<?xml version="1.0" encoding="utf-8"?>
<!-- Generator: Adobe Illustrator 19.0.0, SVG Export Plug-In . SVG Version: 6.00 Build 0)  -->
<svg version="1.1" id="Layer_1" xmlns="http://www.w3.org/2000/svg" xmlns:xlink="http://www.w3.org/1999/xlink" x="0px" y="0px"
	 width="1400px" height="980px" viewBox="0 0 1400 980" style="enable-background:new 0 0 1400 980;" xml:space="preserve">
<style type="text/css">
	.st0{clip-path:url(#XMLID_397_);}
	.st1{fill:#3F3742;}
	.st2{fill:#5A535E;}
	.st3{fill:#262128;}
	.st4{fill:#3F3942;}
	.st5{fill:#6F6A72;}
	.st6{fill:#74787C;}
	.st7{fill:#B5B5C4;}
	.st8{fill:#CECEDD;}
	.st9{fill:#FFFCF5;}
	.st10{fill:#2C2F35;}
	.st11{fill:#50565E;}
	.st12{fill:#3D4144;}
	.st13{fill:#DAD1CA;}
	.st14{fill:#F15A29;}
	.st15{fill:#FBB040;}
	.st16{fill:#7A8084;}
	.st17{fill:#AFB6BA;}
	.st18{fill:#C99484;}
	.st19{fill:#F0D2B8;}
	.st20{fill:#A07354;}
	.st21{fill:#5E3A1F;}
	.st22{fill:#474B54;}
	.st23{fill:#C6BEB3;}
	.st24{fill:#998B81;}
	.st25{fill:#90BAF6;}
	.st26{fill:#557CAA;}
	.st27{fill:#4C4B49;}
	.st28{fill:#892109;}
	.st29{fill:url(#XMLID_401_);}
	.st30{fill:url(#XMLID_425_);}
	.st31{fill:#B8D3F2;}
	.st32{fill:#EAE5DF;}
	.st33{fill:#752F39;}
	.st34{fill:url(#XMLID_428_);}
	.st35{fill:#FFC7AC;}
	.st36{fill:url(#XMLID_439_);}
	.st37{fill:#420D17;}
	.st38{fill:url(#XMLID_443_);}
	.st39{fill:url(#XMLID_444_);}
	.st40{fill:#FFFFFF;}
	.st41{fill:#B80F3A;}
	.st42{fill:#FE4C62;}
	.st43{fill:#190101;}
	.st44{fill:#877E73;}
	.st45{fill:#EDE6DD;}
	.st46{fill:url(#XMLID_445_);}
	.st47{fill:url(#XMLID_447_);}
	.st48{fill:url(#XMLID_448_);}
	.st49{fill:#802C2C;}
	.st50{fill:url(#XMLID_449_);}
	.st51{fill:url(#XMLID_450_);}
	.st52{fill:url(#XMLID_452_);}
	.st53{fill:url(#XMLID_453_);}
</style>
<g id="XMLID_393_">
	<defs>
		<rect id="XMLID_392_" width="1400" height="980"/>
	</defs>
	<clipPath id="XMLID_397_">
		<use xlink:href="#XMLID_392_"  style="overflow:visible;"/>
	</clipPath>
	<g id="XMLID_377_" class="st0">
		<rect id="XMLID_996_" y="0" class="st1" width="1400" height="980"/>
		<g id="XMLID_223_">
			<g id="XMLID_378_">
				<rect id="XMLID_188_" x="87.2" y="67" class="st2" width="262.2" height="386.2"/>
				<rect id="XMLID_372_" x="104.5" y="92.5" class="st3" width="244.9" height="360.8"/>
				<polygon id="XMLID_374_" class="st4" points="104.5,92.5 194.9,125 371.4,125 371.4,92.5 				"/>
				<polygon id="XMLID_376_" class="st5" points="194.9,125 194.9,450.2 104.5,450.2 104.5,92.5 				"/>
			</g>
			<g id="XMLID_266_">
				<rect id="XMLID_388_" x="1050.6" y="67" class="st2" width="262.2" height="386.2"/>
				<rect id="XMLID_386_" x="1050.6" y="92.5" class="st3" width="244.9" height="360.8"/>
				<polygon id="XMLID_385_" class="st4" points="1295.5,92.5 1205.1,125 1028.6,125 1028.6,92.5 				"/>
				<polygon id="XMLID_375_" class="st5" points="1205.1,125 1205.1,450.2 1295.5,450.2 1295.5,92.5 				"/>
			</g>
		</g>
		<path id="XMLID_381_" class="st6" d="M169.8,337H34.2C15.4,337,0,352.4,0,371.3v82h8v-67.5h22.2v67.5h8v-67.5h130.7v67.5h8v-67.5
			H196v67.5h8v-82C204,352.4,188.7,337,169.8,337z M8,380.8v-9.5c0-13.1,9.7-24,22.2-25.9v35.4H8z M38.2,380.8V345h130.7v35.7H38.2z
			 M176.9,380.8V346c11,3.1,19.1,13.2,19.1,25.2v9.5H176.9z"/>
		<path id="XMLID_191_" class="st6" d="M1365.8,337h-135.6c-18.9,0-34.2,15.4-34.2,34.2v82h8v-67.5h22.2v67.5h8v-67.5h130.7v67.5h8
			v-67.5h19.1v67.5h8v-82C1400,352.4,1384.6,337,1365.8,337z M1204,380.8v-9.5c0-13.1,9.7-24,22.2-25.9v35.4H1204z M1234.2,380.8
			V345h130.7v35.7H1234.2z M1372.9,380.8V346c11,3.1,19.1,13.2,19.1,25.2v9.5H1372.9z"/>
		<rect id="XMLID_49_" y="453.2" class="st6" width="1400" height="526.8"/>
		<g id="XMLID_736_">
			<rect id="XMLID_749_" y="565" class="st7" width="1400" height="408.2"/>
			<rect id="XMLID_746_" y="583.5" class="st8" width="1400" height="408.2"/>
			<rect id="XMLID_743_" y="733" class="st6" width="1400" height="244.5"/>
			<rect id="XMLID_740_" y="744.9" class="st7" width="1400" height="271.6"/>
		</g>
		<path id="XMLID_391_" class="st6" d="M387.1,830.7c0,0,160.8-26.9,359.2-26.9s359.2,26.9,359.2,26.9s-160.8,26.9-359.2,26.9
			S387.1,830.7,387.1,830.7z"/>
		<g id="XMLID_30_">
			<g id="XMLID_25_">
				<g id="XMLID_12_">
					<rect id="XMLID_45_" x="500.5" y="50.3" class="st9" width="491.7" height="627.7"/>
					<rect id="XMLID_44_" x="522.8" y="78.8" class="st10" width="447" height="570.7"/>
					<polygon id="XMLID_713_" class="st11" points="522.8,649.5 559,616.7 933.6,616.7 969.8,649.5 					"/>
					<polygon id="XMLID_717_" class="st12" points="522.8,649.5 559,616.7 559,78.8 522.8,78.8 					"/>
					<polygon id="XMLID_720_" class="st12" points="969.8,649.5 933.6,616.7 933.6,78.8 969.8,78.8 					"/>
				</g>
				<g id="XMLID_709_">
					<g id="XMLID_694_">
						<path id="XMLID_692_" class="st10" d="M580.4,840.8h-29.7c-15.8,0-28.6-12.8-28.6-28.6v-90.4c0-15.8,12.8-28.6,28.6-28.6h29.7
							c15.8,0,28.6,12.8,28.6,28.6v90.4C609,828,596.2,840.8,580.4,840.8z"/>
						<path id="XMLID_693_" class="st11" d="M565.6,840.8L565.6,840.8c-0.8,0-1.4-0.6-1.4-1.4V694.6c0-0.8,0.6-1.4,1.4-1.4l0,0
							c0.8,0,1.4,0.6,1.4,1.4v144.8C567,840.2,566.3,840.8,565.6,840.8z"/>
						<path id="XMLID_695_" class="st11" d="M551.3,840.8L551.3,840.8c-0.8,0-1.4-0.6-1.4-1.4V694.6c0-0.8,0.6-1.4,1.4-1.4l0,0
							c0.8,0,1.4,0.6,1.4,1.4v144.8C552.7,840.2,552.1,840.8,551.3,840.8z"/>
						<path id="XMLID_703_" class="st11" d="M579.8,840.8L579.8,840.8c0.8,0,1.4-0.6,1.4-1.4V694.6c0-0.8-0.6-1.4-1.4-1.4l0,0
							c-0.8,0-1.4,0.6-1.4,1.4v144.8C578.5,840.2,579.1,840.8,579.8,840.8z"/>
					</g>
					<g id="XMLID_712_">
						<path id="XMLID_737_" class="st10" d="M941.9,840.8h-29.7c-15.8,0-28.6-12.8-28.6-28.6v-90.4c0-15.8,12.8-28.6,28.6-28.6h29.7
							c15.8,0,28.6,12.8,28.6,28.6v90.4C970.5,828,957.7,840.8,941.9,840.8z"/>
						<path id="XMLID_726_" class="st11" d="M927.1,840.8L927.1,840.8c-0.8,0-1.4-0.6-1.4-1.4V694.6c0-0.8,0.6-1.4,1.4-1.4l0,0
							c0.8,0,1.4,0.6,1.4,1.4v144.8C928.4,840.2,927.8,840.8,927.1,840.8z"/>
						<path id="XMLID_723_" class="st11" d="M912.8,840.8L912.8,840.8c-0.8,0-1.4-0.6-1.4-1.4V694.6c0-0.8,0.6-1.4,1.4-1.4l0,0
							c0.8,0,1.4,0.6,1.4,1.4v144.8C914.2,840.2,913.6,840.8,912.8,840.8z"/>
						<path id="XMLID_716_" class="st11" d="M941.3,840.8L941.3,840.8c0.8,0,1.4-0.6,1.4-1.4V694.6c0-0.8-0.6-1.4-1.4-1.4l0,0
							c-0.8,0-1.4,0.6-1.4,1.4v144.8C939.9,840.2,940.6,840.8,941.3,840.8z"/>
					</g>
				</g>
				<g id="XMLID_697_">
					<polygon id="XMLID_520_" class="st13" points="522.8,649.5 486.8,686.7 1005.8,686.7 969.8,649.5 					"/>
					<g id="XMLID_696_">
						<rect id="XMLID_518_" x="486.8" y="686.7" class="st9" width="519.1" height="49.8"/>
						<g id="XMLID_529_">
							<rect id="XMLID_527_" x="500.5" y="701.3" class="st14" width="44.6" height="20.5"/>
							<rect id="XMLID_531_" x="545.1" y="701.3" class="st15" width="13.9" height="20.5"/>
						</g>
						<g id="XMLID_641_">
							<rect id="XMLID_656_" x="947.5" y="701.3" class="st14" width="44.6" height="20.5"/>
							<rect id="XMLID_645_" x="933.6" y="701.3" class="st15" width="13.9" height="20.5"/>
						</g>
						<g id="XMLID_690_">
							<rect id="XMLID_532_" x="667" y="695.4" class="st16" width="158.6" height="32.4"/>
							<polygon id="XMLID_682_" class="st17" points="684.2,702.9 808.5,702.9 825.6,728.3 667,728.3 							"/>
						</g>
					</g>
				</g>
				<g id="XMLID_3_">
					<g id="XMLID_180_">
						<rect id="XMLID_780_" x="812.1" y="401.6" class="st18" width="109.2" height="109.8"/>
						<rect id="XMLID_777_" x="722.2" y="387" class="st18" width="68.6" height="124.4"/>
						<rect id="XMLID_774_" x="687.9" y="387" class="st19" width="68.6" height="124.4"/>
						<rect id="XMLID_769_" x="780.1" y="401.6" class="st19" width="109.2" height="109.8"/>
						<rect id="XMLID_765_" x="617.7" y="420.4" class="st18" width="90.5" height="91"/>
						<rect id="XMLID_761_" x="591.1" y="420.4" class="st19" width="90.5" height="91"/>
						<rect id="XMLID_758_" x="715.6" y="452.4" class="st18" width="141" height="59"/>
						<rect id="XMLID_187_" x="687.9" y="452.4" class="st19" width="141" height="59"/>
					</g>
					<g id="XMLID_331_">
						<rect id="XMLID_203_" x="812.1" y="510.8" class="st18" width="109.2" height="109.8"/>
						<rect id="XMLID_189_" x="722.2" y="463.5" class="st18" width="68.6" height="157.1"/>
						<rect id="XMLID_185_" x="687.9" y="463.5" class="st19" width="68.6" height="157.1"/>
						<rect id="XMLID_182_" x="780.1" y="510.8" class="st19" width="109.2" height="109.8"/>
						<rect id="XMLID_179_" x="599" y="510.8" class="st18" width="109.2" height="109.8"/>
						<rect id="XMLID_176_" x="567" y="510.8" class="st19" width="109.2" height="109.8"/>
						<rect id="XMLID_173_" x="715.6" y="561.6" class="st18" width="141" height="59"/>
						<rect id="XMLID_170_" x="687.9" y="561.6" class="st19" width="141" height="59"/>
						<polygon id="XMLID_167_" class="st18" points="540.9,483.8 650.1,483.8 676.2,510.8 567,510.8 						"/>
						<polygon id="XMLID_328_" class="st20" points="724.2,483.8 692.2,483.8 676.2,510.8 708.2,510.8 						"/>
					</g>
					<path id="XMLID_181_" class="st20" d="M921.3,510.8c0,0-2.2,0.1-6.1,0.2c-3.9,0.1-9.4,0.3-16,0.4c-6.6,0.1-14.3,0.2-22.6,0.3
						c-4.1,0-8.4,0.1-12.8,0.1c-4.3,0-8.8,0-13.2,0c-4.4,0-8.8,0-13.2,0c-4.3,0-8.6-0.1-12.8-0.1c-8.3-0.1-16-0.2-22.6-0.3
						c-6.6-0.1-12.1-0.3-16-0.4c-3.9-0.1-6.1-0.2-6.1-0.2s2.2-0.1,6.1-0.2c3.9-0.1,9.4-0.3,16-0.4c6.6-0.1,14.3-0.2,22.6-0.3
						c4.1,0,8.4-0.1,12.8-0.1c4.3,0,8.8,0,13.2,0c4.4,0,8.8,0,13.2,0c4.3,0,8.6,0.1,12.8,0.1c8.3,0.1,16,0.2,22.6,0.3
						c6.6,0.1,12.1,0.3,16,0.4C919.1,510.8,921.3,510.8,921.3,510.8z"/>
					<path id="XMLID_183_" class="st20" d="M856.6,452.4c0,0-2.6,0.1-7.2,0.2c-4.6,0.1-11.2,0.3-19.1,0.4c-7.9,0.1-17.1,0.3-27,0.3
						c-9.9,0-20.4,0.1-31,0.1c-10.5,0-21.1-0.1-31-0.1c-9.9,0-19.1-0.2-27-0.3c-7.9-0.1-14.5-0.3-19.1-0.4c-4.6-0.1-7.2-0.2-7.2-0.2
						s2.6-0.1,7.2-0.2c4.6-0.1,11.2-0.3,19.1-0.4c7.9-0.1,17.1-0.3,27-0.3c9.9,0,20.4-0.1,31-0.1c10.5,0,21.1,0.1,31,0.1
						c9.9,0,19.1,0.2,27,0.3c7.9,0.1,14.5,0.3,19.1,0.4C854,452.3,856.6,452.4,856.6,452.4z"/>
				</g>
			</g>
			<g id="XMLID_29_">
				<polygon id="XMLID_26_" class="st16" points="1107.4,693.3 969.8,651.9 969.8,78.8 1107.4,37.4 				"/>
				<rect id="XMLID_28_" x="1107.4" y="37.4" class="st17" width="22.1" height="655.9"/>
			</g>
			<g id="XMLID_33_">
				<polygon id="XMLID_43_" class="st16" points="385.2,693.3 522.8,651.9 522.8,78.8 385.2,37.4 				"/>
				<rect id="XMLID_41_" x="363.1" y="37.4" class="st17" width="22.1" height="655.9"/>
			</g>
		</g>
		<path id="XMLID_20_" class="st6" d="M1044.5,919.1c0,0,59.2-9.9,132.3-9.9s132.3,9.9,132.3,9.9s-59.2,9.9-132.3,9.9
			S1044.5,919.1,1044.5,919.1z"/>
		<path id="XMLID_384_" class="st6" d="M189,916.3c0,0,72.8-12.2,162.5-12.2s162.5,12.2,162.5,12.2s-72.8,12.2-162.5,12.2
			S189,916.3,189,916.3z"/>
		<g id="XMLID_467_">
			<g id="XMLID_168_">
				<rect id="XMLID_464_" x="330.7" y="726" class="st18" width="123" height="123.7"/>
				<rect id="XMLID_461_" x="229.5" y="672.6" class="st18" width="77.2" height="177"/>
				<rect id="XMLID_458_" x="190.8" y="672.6" class="st19" width="77.2" height="177"/>
				<rect id="XMLID_454_" x="294.7" y="726" class="st19" width="123" height="123.7"/>
				<rect id="XMLID_422_" x="90.6" y="726" class="st18" width="123" height="123.7"/>
				<rect id="XMLID_418_" x="54.6" y="726" class="st19" width="123" height="123.7"/>
				<rect id="XMLID_407_" x="222" y="783.1" class="st18" width="158.9" height="66.5"/>
				<rect id="XMLID_175_" x="190.8" y="783.1" class="st19" width="158.9" height="66.5"/>
				<polygon id="XMLID_171_" class="st18" points="25.2,695.5 148.2,695.5 177.6,726 54.6,726 				"/>
				<polygon id="XMLID_169_" class="st20" points="231.7,695.5 195.6,695.5 177.6,726 213.7,726 				"/>
			</g>
			<g id="XMLID_48_">
				<path id="XMLID_571_" class="st21" d="M399,887.9c6.5,2.7,13.4,4.7,20.3,6c5.3,1,11.3,1.8,14.5,6.1c2.1,2.8,2.5,6.6,2.6,10.1
					h-52.9c-0.9-7.8-1.6-17.2-1.5-25.1c0-0.4,0-0.8,0.2-1.2c0.3-0.5,1-0.7,1.6-0.8C389.3,882.2,393.9,885.7,399,887.9z"/>
				<path id="XMLID_320_" class="st21" d="M257.7,898.4c8.2,3.2,13.2,13.2,10.7,21.6h-36.2c0.4-3-1.3-4.9-0.6-7.8
					c0.4-1.5,1.5-2.7,2.5-3.9c3.4-3.6,6.8-7.3,10.2-10.9c1.1-1.2,2.2-2.4,3.7-2.9C251.6,893.5,254.3,897.1,257.7,898.4z"/>
				<path id="XMLID_559_" class="st22" d="M350.2,733.8c3,6.4,6,12.8,8.4,19.4c4.2,12.1,6,24.8,8.9,37.3
					c7.8,34.5,23.2,66.8,38.5,98.7c-7.3,0.9-14.5,1.9-21.8,2.8c-2,0.3-4.1,0.5-6-0.3c-1.8-0.8-3-2.5-4.2-4.1
					c-14.7-20.6-29.3-41.2-44-61.7c-4.3-6.1-8.7-12.2-11.8-18.9c-2.9-6.2-4.8-12.7-7.1-19.1c-6-16.4-15-31.5-22.2-47.4
					c-10.4-22.9-17.2-47.4-23.9-71.7c10.5-3,21.6-3.9,32.5-2.6c3.5,0.4,7,1.1,10.6,1.4c2.5,0.2,8.2-0.9,10.2,0.1
					c4.6,2.4,8.3,16,10.6,20.8C335.9,703.6,343.1,718.7,350.2,733.8z"/>
				<path id="XMLID_315_" class="st22" d="M264.9,901.3c-8.1-1-17.8,1-25.9,0C226,866,214.2,826.6,215.1,789
					c0.2-7.9,1-15.7,1.1-23.6c0.4-30.7-10.2-61-7.8-91.6c0.1-0.9,0.2-1.8,0.6-2.6c0.6-1.1,1.9-1.7,3.1-2.2c5.2-1.8,11-1.4,16.5-0.9
					c9.8,1,33.8-0.1,34.8,12.7c1.4,17.3-2.2,36.4-3.1,53.9c-1.7,35.9-2.5,71.9-0.8,107.8C259.8,848,261.6,900.9,264.9,901.3z"/>
				<path id="XMLID_309_" class="st10" d="M240.8,690c-7.9,2.7-16.6,3.5-24.6,1.1c-4.1-1.2-8.2-3.5-9.7-7.5c0.5,1.4,49.3-7.5,54.9-6
					C256.1,683.2,248.1,687.5,240.8,690z"/>
				<path id="XMLID_733_" class="st10" d="M291.5,680c-11.1,1-22.3-0.3-33.2-2.4c8.7,1.7,22.5-2.8,31.4-4.1
					c10.1-1.4,21.6-4.9,31.7-4.5C316,676.6,300.1,679.2,291.5,680z"/>
				<path id="XMLID_302_" class="st23" d="M273.1,465.4c8,2.1,15.8,4.6,23.5,7.7c7.9,3.1,14.9,8.1,20.5,14.4
					c10.4,11.8,26.5,28,39.7,39.5c-9,13-21.3,22.7-34.1,31.9c-8.6-0.3-16.7-2.1-23.8-7c-5.5-12-11.4-23.4-14.2-36.3
					C281.1,499.1,282.4,479.6,273.1,465.4z"/>
				<path id="XMLID_299_" class="st24" d="M306.5,521.3c3.2-7.2,6.4-14.3,9.6-21.5c-0.7,11.4-3.7,22.7-8.8,33
					c5.1-1.5,9.9-3.7,14.3-6.6c-3.5,3.3-7,6.5-10.6,9.8c-0.6,0.5-1.2,1.2-1.3,2c-0.1,0.7,0.3,1.3,0.7,1.9
					c5.3,7.9,11.9,14.9,19.6,20.5c-9.1-3.1-18-6.8-26.5-11.1c-0.9-0.4-1.8-0.9-2.4-1.8c-0.6-0.8-0.7-1.9-0.8-3
					c-1.7-18.5-5.1-40-0.1-58.2C306.3,492.8,306,512.7,306.5,521.3z"/>
				<path id="XMLID_296_" class="st25" d="M304.7,507.4c-2.5,54.6,6.5,109.8,26.1,160.9c-42.1,10.1-85.9,17.9-129.1,19.4
					c-5.1-57.8-3.4-115-0.5-173c0.4-8.6,0.9-17.4,2.7-25.8c1.1-5.3,4.8-9.8,9.8-12c5-2.2,10-4.6,14.9-6.2c7.9-2.6,16-5.3,24.3-5.2
					c10.3,0.1,41,1.7,47.6,9.5C302.4,477.6,304.9,504.1,304.7,507.4z"/>
				<path id="XMLID_558_" class="st26" d="M271.6,504.9c-1.6-3.9-3.8-7.6-6.6-10.8c-6,5.7-11,12.3-14.8,19.6
					c-8.3-9.9-19.8-18.2-22.5-36.1c8.4-1.5,16.6,4.5,24.5,7.7c2.1,0.9,4.1,1.9,6.3,2c3,0.2,5.9-1.2,8.8-1.6
					C278.6,484.3,274.2,499.2,271.6,504.9z"/>
				<path id="XMLID_291_" class="st26" d="M211.9,526.8c2.7-2.7,4.7-6.2,5.8-9.9c-1,4.4-2,8.8-3,13.2c13.3,5.5,26.6,11,40,16.5
					c-8,7.5-17.7,13.2-28.1,16.5c-8.5,2.7-19.5,2.8-27.4-1.3c-0.8-0.4,0.5-30.2,3.1-42.9c1.3-6.3,3-12.5,5.4-18.5
					c1.7-4.2,4.9-14.1,9.2-15.8C219.3,497.4,215.1,514.3,211.9,526.8z"/>
				<path id="XMLID_288_" class="st26" d="M267.4,574.6c4.8,2.1,10.2,2.4,15.4,2.8c6,0.4,12.1,0.7,18.1,1.1
					c-12.6,11.1-29.5,17.4-46.3,17.1c-1.2,5.3-1.8,10.7-2,16.1c0,0.9,0,1.9,0.3,2.8c0.5,1.2,1.7,1.9,2.8,2.6
					c8.7,5.3,18.1,9.6,27.9,12.6c-13.9,4.1-27.9,8.2-41.8,12.3c-3.7,1.1-7.5,2.2-11.4,1.7c-2.3-0.3-4.6-1.2-6.7-2.1
					c-7.2-3-14.1-6.8-20.6-11c19-13.2,29.5-35.2,41.9-54.8c1.7-2.7,7.9-13.1,11.9-12.3c1.6,0.3,2.6,4.5,3.7,5.9
					C262.3,571.7,264.8,573.5,267.4,574.6z"/>
				<path id="XMLID_285_" class="st26" d="M230.3,662.3c14-1.1,28-3,41.4-7.3c7.1-2.3,14-5.2,20.4-9c4.8-2.8,14.2-7.9,16.1-13.2
					c-4.2-1.4-13.9,5.8-17.9,7.6c-6.5,3-13.1,5.8-19.7,8.5c-6.6,2.6-13.4,5.1-20.1,7.3C244.2,658.3,236.8,661.8,230.3,662.3z"/>
				<path id="XMLID_764_" class="st27" d="M345.7,779.1c-5.6,1-11.3,2.1-17,2.1c-5.5,0-11.3-1-16-4
					C323.6,778.6,334.5,779.8,345.7,779.1z"/>
				<path id="XMLID_767_" class="st10" d="M355.9,789.5c-6.1,4.8-14.6,5.7-22.1,3.6c-5.4-1.5-14.4-5.2-17.2-10.2
					c3.1-3.1,15.1,1,19.1,1.8C338.4,785.3,354.3,790.8,355.9,789.5z"/>
				<path id="XMLID_206_" class="st10" d="M244.8,789.8c-2.6,0.4-4.7,1.9-7,3.3c-5.1,3.1-10.8,5-16.6,5.8c3.5,1.3,7.1,2.3,10.8,2
					c3.3-0.3,6.4-1.8,9.4-3c5.2-2,10.7-3.3,16.2-3.8c0.2,0-3.9-2.9-4.5-3.1C250.8,790.1,247.3,789.5,244.8,789.8z"/>
				<path id="XMLID_204_" class="st10" d="M247.3,804.5c-6.7,2.7-14.2,3.4-21.3,2.1c-1.9-0.4-4.1-0.8-5.6-2
					c2.7-2.3,8.7,0.1,11.9,0.3C236.6,805.2,243.3,806.1,247.3,804.5z"/>
				<g id="XMLID_580_">
					<g id="XMLID_714_">
						
							<rect id="XMLID_718_" x="291.6" y="331.7" transform="matrix(0.9976 -6.879996e-002 6.879996e-002 0.9976 -24.895 23.7951)" class="st18" width="82.8" height="83.3"/>
						
							<rect id="XMLID_715_" x="315.8" y="330" transform="matrix(0.9976 -6.879996e-002 6.879996e-002 0.9976 -24.7227 25.4578)" class="st19" width="82.8" height="83.3"/>
					</g>
					<g id="XMLID_707_">
						
							<rect id="XMLID_711_" x="283.8" y="239.9" transform="matrix(0.9976 -6.879996e-002 6.879996e-002 0.9976 -18.9788 23.4454)" class="st18" width="94.3" height="94.7"/>
						
							<rect id="XMLID_708_" x="311.3" y="238" transform="matrix(0.9976 -6.879996e-002 6.879996e-002 0.9976 -18.7827 25.3375)" class="st19" width="94.3" height="94.7"/>
					</g>
					<g id="XMLID_700_">
						<polygon id="XMLID_704_" class="st18" points="424.8,611.5 304.7,619.8 291.1,414.3 411.2,406 						"/>
						<polygon id="XMLID_701_" class="st19" points="460,609.1 339.9,617.3 326.3,411.8 446.4,403.5 						"/>
					</g>
					<polygon id="XMLID_699_" class="st28" points="460,609.1 307.7,621.1 307.5,618 					"/>
					<polygon id="XMLID_698_" class="st28" points="444.1,404.6 291.8,416.6 291.6,413.5 					"/>
					<path id="XMLID_586_" class="st28" d="M395.9,330.3c0,0-1.7,0.2-4.6,0.5c-2.9,0.3-7.1,0.7-12.1,1.1c-5,0.4-10.8,0.9-17.1,1.4
						c-3.1,0.2-6.4,0.5-9.6,0.7c-3.3,0.2-6.6,0.5-10,0.7c-3.3,0.2-6.7,0.4-10,0.7c-3.3,0.2-6.5,0.4-9.7,0.6
						c-6.3,0.4-12.1,0.7-17.1,0.9c-5,0.3-9.2,0.4-12.1,0.5c-2.9,0.1-4.6,0.2-4.6,0.2s1.7-0.2,4.6-0.5c2.9-0.3,7.1-0.7,12.1-1.1
						c5-0.4,10.8-0.9,17.1-1.4c3.1-0.2,6.4-0.5,9.6-0.7c3.3-0.2,6.6-0.5,10-0.7c3.3-0.2,6.7-0.4,10-0.7c3.3-0.2,6.5-0.4,9.7-0.6
						c6.3-0.4,12.1-0.7,17.1-0.9c5-0.3,9.2-0.4,12.1-0.5C394.2,330.3,395.9,330.3,395.9,330.3z"/>
				</g>
				<g id="XMLID_217_">
					
						<linearGradient id="XMLID_401_" gradientUnits="userSpaceOnUse" x1="-1179.1472" y1="606.7804" x2="-1159.748" y2="606.7804" gradientTransform="matrix(1 0 0 1 1563.5732 0)">
						<stop  offset="0" style="stop-color:#FD7A7F"/>
						<stop  offset="0.1161" style="stop-color:#FD8C8A"/>
						<stop  offset="0.3223" style="stop-color:#FEA699"/>
						<stop  offset="0.5351" style="stop-color:#FFB8A3"/>
						<stop  offset="0.7565" style="stop-color:#FFC3AA"/>
						<stop  offset="1" style="stop-color:#FFC7AC"/>
					</linearGradient>
					<path id="XMLID_216_" class="st29" d="M398,603.6c1.3-0.2,2.7-0.5,4-0.7c0.3,0,0.7-0.1,1,0.1c0.2,0.1,0.4,0.3,0.5,0.6
						c0.4,0.9,0.2,2-0.3,2.8c-0.5,0.8-1.4,1.4-2.2,1.8c-3.5,1.9-7.5,2.6-11.4,2.5c-0.3,0-0.6,0-0.8-0.1c-0.3-0.1-0.5-0.4-0.6-0.6
						c-1.3-1.8-2.5-3.6-3.7-5.5c-0.6-1,5.8-0.4,5.9-0.4C392.9,604.2,395.5,604.1,398,603.6z"/>
					
						<linearGradient id="XMLID_425_" gradientUnits="userSpaceOnUse" x1="-1215.2932" y1="620.5797" x2="-1163.3839" y2="620.5797" gradientTransform="matrix(1 0 0 1 1563.5732 0)">
						<stop  offset="0" style="stop-color:#FD7A7F"/>
						<stop  offset="0.1161" style="stop-color:#FD8C8A"/>
						<stop  offset="0.3223" style="stop-color:#FEA699"/>
						<stop  offset="0.5351" style="stop-color:#FFB8A3"/>
						<stop  offset="0.7565" style="stop-color:#FFC3AA"/>
						<stop  offset="1" style="stop-color:#FFC7AC"/>
					</linearGradient>
					<path id="XMLID_214_" class="st30" d="M370.8,610c3.2-1.1,5.8-3.5,8.9-4.9c3.3-1.5,7.2-1.9,10.8-1.2c1.2,0.3,6.6,8.9,9,12.6
						c0.5,0.7,0.7,1.6,0.6,2.5c-0.3,2.9-3.9,3.2-6.6,2.9c0.3,1.4,0.6,2.9,0.1,4.2c-0.5,1.3-2.1,2.4-3.4,1.7c0.9,2.3-1.7,5.1-4.1,4.5
						c0.9,2.4-1.6,5.1-4.2,5.2s-4.9-1.6-6.6-3.6c-1.7-2-3-4.3-4.8-6.1c-5.5-5.5-14.4-5.4-22.2-4.8c-0.4,0,2.7-12.7,5.9-13.8
						c1.8-0.6,5,1,6.8,1.3C364.3,611,367.6,611.2,370.8,610z"/>
					<path id="XMLID_64_" class="st31" d="M355.8,627.3c-21.2,0.5-42.5,0.2-63.7-0.8c-16.3-0.8-33.5-2.2-47-11.4
						c-10.3-7-17.4-17.7-23.2-28.6c-15-28.1-24.9-59.6-24.9-91.5c0-10,11.3-16.5,19.3-13.8s13,10.5,17.4,17.7
						c16.1,26.9,31.1,55.3,54.6,76.1c16.8,14.9,48.2,28.6,70.2,33.1C357.2,613.8,355.7,621.7,355.8,627.3z"/>
					<path id="XMLID_24_" class="st32" d="M196.8,495.1c0,0,0-0.2,0-0.6c0-0.4,0-1.1,0.2-1.9c0.3-1.6,1-4,3.1-6.4
						c1-1.2,2.3-2.3,3.9-3.3c1.6-1,3.5-1.8,5.6-2.2c2.1-0.4,4.6-0.4,6.9,0.5c0.6,0.2,1.1,0.4,1.7,0.7c0.3,0.1,0.6,0.3,0.9,0.4
						c0.3,0.2,0.6,0.3,0.8,0.5c1.1,0.6,2.2,1.4,3.2,2.3c4.1,3.5,7.4,8.3,10.6,13.5c3.1,5.2,6.4,10.6,9.8,16.3
						c6.7,11.3,14,23.3,22.4,34.6c4.1,5.6,8.6,11.1,13.3,16.1c1.1,1.3,2.4,2.5,3.6,3.7c0.6,0.6,1.2,1.2,1.8,1.8
						c0.6,0.6,1.2,1.2,1.9,1.7c0.6,0.6,1.2,1.1,1.8,1.7c0.6,0.5,1.3,1.1,1.9,1.6c0.6,0.5,1.3,1.1,1.9,1.6c0.7,0.5,1.3,1,2,1.5
						c5.2,3.9,10.6,7.3,15.9,10.2c5.3,2.9,10.4,5.5,15.2,7.6c4.8,2.1,9.3,4,13.3,5.4c4,1.5,7.6,2.6,10.5,3.5c3,0.9,5.3,1.5,6.9,1.9
						c1.6,0.4,2.5,0.6,2.5,0.6s-0.9-0.2-2.5-0.5c-1.6-0.3-4-0.9-6.9-1.7c-3-0.8-6.6-1.9-10.6-3.3c-4.1-1.4-8.6-3.1-13.5-5.2
						c-4.9-2.1-10-4.5-15.4-7.4c-5.3-2.9-10.8-6.1-16.2-10.1c-0.7-0.5-1.3-1-2-1.5c-0.7-0.5-1.3-1.1-1.9-1.6c-0.6-0.5-1.3-1-1.9-1.6
						c-0.6-0.6-1.2-1.1-1.9-1.7c-0.6-0.6-1.3-1.2-1.9-1.7c-0.6-0.6-1.2-1.2-1.8-1.8c-1.2-1.2-2.5-2.4-3.6-3.7
						c-4.8-5.1-9.3-10.5-13.5-16.2c-8.4-11.4-15.6-23.5-22.3-34.8c-3.3-5.7-6.5-11.2-9.6-16.4c-3-5.2-6.2-10-10.1-13.4
						c-1-0.8-2-1.6-3.1-2.2c-0.3-0.2-0.5-0.3-0.8-0.5c-0.3-0.1-0.5-0.3-0.8-0.4c-0.5-0.3-1.1-0.5-1.7-0.7c-2.2-0.9-4.5-0.9-6.5-0.6
						c-2.1,0.3-3.9,1.1-5.5,2c-1.6,0.9-2.9,2-3.9,3.2c-2,2.3-2.9,4.6-3.2,6.2c-0.2,0.8-0.2,1.4-0.3,1.9
						C196.8,494.9,196.8,495.1,196.8,495.1z"/>
					<path id="XMLID_22_" class="st26" d="M277.5,573.4c0,0-22.8,7.5-30.4,11.2S263.1,568.4,277.5,573.4z"/>
					<path id="XMLID_19_" class="st26" d="M272.7,569.2h-29.5C243.2,569.2,257.3,563.3,272.7,569.2z"/>
				</g>
				<g id="XMLID_229_">
					<path id="XMLID_278_" class="st31" d="M263.4,462.9c-0.2-1-0.3-2.1-0.5-3.1c6,3.5,10,9.7,11.9,16.4c1.9,6.7,2,13.7,1.6,20.6
						c-0.2,2.8-0.4,5.8-2,8.2c-2.1-4.7-4.8-9-8.1-12.9c-7.3,4.5-14.5,10.1-20,16.7c-8.7-12.2-16.5-16.3-18.5-31.2
						c2.5-4.8,7.9-21,10.9-25.6c0.3-0.4,0.6-0.9,1-1.1c0.6-0.3,1.2-0.1,1.8,0.1c5.1,1.4,10,3.3,14.7,5.7
						C258.5,457.9,261.9,460.8,263.4,462.9z"/>
					<path id="XMLID_275_" class="st33" d="M234.7,413.9c-2.5,9.3-2.8,19.3-0.6,28.7c3.2,0.5,7.1,1,10.2,1.5
						C245,433.3,241.8,422.2,234.7,413.9z"/>
					
						<linearGradient id="XMLID_428_" gradientUnits="userSpaceOnUse" x1="-7422.084" y1="1007.2491" x2="-7422.5874" y2="1036.9633" gradientTransform="matrix(-0.9992 4.006463e-002 4.006463e-002 0.9992 -7200.7573 -260.2467)">
						<stop  offset="0" style="stop-color:#FD7A7F"/>
						<stop  offset="0.5081" style="stop-color:#FE9F95"/>
						<stop  offset="1" style="stop-color:#FFC7AC"/>
					</linearGradient>
					<path id="XMLID_274_" class="st34" d="M272.4,463.3c3.3,5.2,1.8,8.6,0.5,12.5c-1.2,3.7-2.8,7.2-4.8,10.5
						c-1.1,1.8-1.9,3.7-2.7,5.9c-2.9-2.7-10.9-10.6-17.7-17.5c-6.4-6.5-9.7-15.3-9.2-24.4c0.4-8.4,0.5-16.7-0.2-25.3
						C250.4,436.2,263.1,449.6,272.4,463.3z"/>
					<path id="XMLID_271_" class="st35" d="M239.5,424.5c-0.2,8.1-0.3,16.4,3.1,23.8c5.1,11.3,17.1,17.8,29.2,20.3
						c5.9,1.2,12,1.3,17.9,0.2c5.9-1.1,11.8-3.5,16.1-7.7c5.5-5.3,8-13,8.8-20.6s0.1-15.2,0.1-22.8c0-7.6-1.7-32,1.7-38.8
						c-14.2-7.4-31.5-10.5-47.5-9.6c-8.1,0.5-20-1.5-27.6,1.3c-5.2,1.9-6.9,16.8-4.5,25.6c0.6,2.3,0.2,5.1,0.2,7.6
						C236.9,410.6,239.6,417.6,239.5,424.5z"/>
					<path id="XMLID_268_" class="st33" d="M228.7,394.4c-0.3-0.9-1.4-10.1,0.5-13.3c12.2-7.7,30.1-12.8,44.5-12.7
						c-0.5,4.4-1.6,8.7-3.2,12.8c-0.8,2-1.9,4.1-3.8,5.3c-1.9,1.2-4.3,1.2-6.5,1.5c-0.3,0.1-0.7,0.1-1,0.2c-3.5,1.9-5.8,5.8-6.7,9.7
						c-1,4.2-0.7,8.5-0.4,12.8c0.3,4.9,0.7,9.7,1,14.6c-3.6,0.7-6.9,1.3-10.6,1.4C241.8,415.5,228.3,394.7,228.7,394.4z"/>
					<path id="XMLID_264_" class="st33" d="M261,393.9c5.1-5,12.4-7.8,19.6-7.4c-0.5-0.8-1-1.7-1.5-2.5c-1.2-2.2-8.1,1.2-9.8,2.1
						C266,388,263.2,390.8,261,393.9z"/>
					<path id="XMLID_261_" class="st33" d="M309.5,394.4c-1.1-3.3-2.9-6.5-5.6-8.7c-0.7-0.6-1.5-1.1-2.2-1.7c-1-0.8-1.8-1.8-2.6-2.8
						c0.5,0.6,0,3.3,0.4,4.2c0.5,1.4,1.3,2,2.5,2.9C304.6,390.4,307.2,392,309.5,394.4z"/>
					<path id="XMLID_257_" class="st26" d="M348.5,366c0,0,16.6,8.3,7.7,18.2c0,0-19.3-9.6-45-9.8
						C311.2,374.5,327.9,360.9,348.5,366z"/>
					<path id="XMLID_252_" class="st25" d="M228,385.7c-2-7.7-2.8-15.7-2.4-23.7c0.4-8.4,2.6-17.5,9.6-23c4.5-3.6,10.4-5.1,16.1-6.5
						c10.9-2.7,22-5.4,33.2-4.6c11.1,0.8,22.5,5.6,27.6,14.8c4.3,7.7,3.7,16.9,2.9,25.6C284.7,370.9,256.5,375.4,228,385.7z"/>
					<path id="XMLID_248_" class="st31" d="M254.3,377.5c20.6,2,43,5.5,62.3,12.8c2-6.6,5.7-12.7,10.5-17.7c2.8-2.8,6-5.3,9.7-6.7
						c3.7-1.4,8-1.5,11.6,0.1C333.5,360.1,281.7,368.7,254.3,377.5z"/>
					
						<linearGradient id="XMLID_439_" gradientUnits="userSpaceOnUse" x1="-7399.8989" y1="948.6271" x2="-7404.4312" y2="991.9391" gradientTransform="matrix(-0.9992 4.006463e-002 4.006463e-002 0.9992 -7200.7573 -260.2467)">
						<stop  offset="0" style="stop-color:#FD7A7F"/>
						<stop  offset="0.1161" style="stop-color:#FD8C8A"/>
						<stop  offset="0.3223" style="stop-color:#FEA699"/>
						<stop  offset="0.5351" style="stop-color:#FFB8A3"/>
						<stop  offset="0.7565" style="stop-color:#FFC3AA"/>
						<stop  offset="1" style="stop-color:#FFC7AC"/>
					</linearGradient>
					<path id="XMLID_247_" class="st36" d="M239.8,400.1c-1.4-2-3.1-3.9-5.3-5s-5-1.4-7.1-0.1c-2.9,1.7-3.7,5.4-4,8.7
						c-0.6,6.6,0,13.7,3.7,19.2s10.9,9.2,17.2,7c0.7-0.2,1.4-0.6,1.8-1.2c0.3-0.5,0.3-1.2,0.3-1.8
						C246.2,416.9,245.7,408.4,239.8,400.1z"/>
					
						<ellipse id="XMLID_244_" transform="matrix(-0.9992 4.006463e-002 -4.006463e-002 -0.9992 566.0555 799.6102)" class="st37" cx="275" cy="405.5" rx="4" ry="7.4"/>
					
						<ellipse id="XMLID_241_" transform="matrix(-0.9992 4.006463e-002 -4.006463e-002 -0.9992 621.6652 794.9821)" class="st37" cx="302.9" cy="403.7" rx="3.1" ry="6.7"/>
					
						<linearGradient id="XMLID_443_" gradientUnits="userSpaceOnUse" x1="-7408.6602" y1="972.1264" x2="-7394.9639" y2="972.1264" gradientTransform="matrix(-0.9992 4.006463e-002 4.006463e-002 0.9992 -7200.7573 -260.2467)">
						<stop  offset="0" style="stop-color:#F3676A"/>
						<stop  offset="0.4434" style="stop-color:#F56A6E"/>
						<stop  offset="0.8459" style="stop-color:#FA7479"/>
						<stop  offset="1" style="stop-color:#FD7A7F"/>
					</linearGradient>
					<path id="XMLID_240_" class="st38" d="M240.2,416.8c-0.6-2.3-1.4-4.6-2.3-6.7c-0.9-2.1-2.2-4.3-4.3-5.1c-2.8-1-6.3,1.2-6.5,4.2
						c1-2,4-2.6,5.7-1.2c-2.7,2-3.8,5.7-3.1,9c0.7,3.3,3.3,6,6.6,6.9c-1.9-1.4-1.5-4.8,0.6-5.8c0.5,1.5,1,2.9,1.5,4.4
						c0.2,0.6,0.4,1.2,0.9,1.6c0.5,0.4,1.3,0.4,1.6-0.1c0.1-0.2,0.2-0.4,0.2-0.7C241.5,421.3,240.6,418.6,240.2,416.8z"/>
					
						<linearGradient id="XMLID_444_" gradientUnits="userSpaceOnUse" x1="4765.4995" y1="-521.1727" x2="4808.6455" y2="-521.1727" gradientTransform="matrix(0.9516 0.3072 -0.3072 0.9516 -4413.8018 -557.6095)">
						<stop  offset="0" style="stop-color:#FFC7AC"/>
						<stop  offset="0.2435" style="stop-color:#FFC3AA"/>
						<stop  offset="0.4649" style="stop-color:#FFB8A3"/>
						<stop  offset="0.6777" style="stop-color:#FEA699"/>
						<stop  offset="0.8839" style="stop-color:#FD8C8A"/>
						<stop  offset="1" style="stop-color:#FD7A7F"/>
					</linearGradient>
					<path id="XMLID_239_" class="st39" d="M315.4,413.5c2.1,0.5,4.2,1,5.8,2.5c3.2,3,1.9,8.9-1.7,11.6c-3.6,2.6-8.4,2.7-12.8,2
						c-6.6-1.1-12.9-3.7-18.2-7.7c-1.7-1.3-3.3-2.7-4.4-4.6c-3.1-5.3-2.5-18.8,6.3-15.3c4.1,1.6,7.5,4.9,11.5,6.8
						C306.2,410.9,310.8,412.4,315.4,413.5z"/>
					<path id="XMLID_27_" class="st40" d="M290.4,402.1c0,0,0.2,0.1,0.5,0.2c0.3,0.1,0.8,0.3,1.4,0.5c1.2,0.5,2.9,1.4,4.8,2.5
						c1,0.6,2,1.2,3.1,1.8c1.1,0.6,2.3,1.1,3.5,1.6c1.3,0.5,2.6,1,3.9,1.5c1.4,0.5,2.7,0.9,4.2,1.3c1.4,0.4,2.8,0.8,4.2,1.2
						c1.4,0.4,2.9,0.8,4.2,1.5c0.7,0.4,1.3,0.8,1.8,1.4l0.3,0.4c0.1,0.1,0.2,0.3,0.3,0.5c0.2,0.3,0.4,0.7,0.5,1
						c0.6,1.3,0.6,2.7,0.4,3.9c-0.2,1.2-0.6,2.2-1,3c-0.5,0.8-0.9,1.5-1.4,1.9c-0.2,0.2-0.5,0.4-0.6,0.6c-0.2,0.2-0.4,0.3-0.5,0.4
						c-0.3,0.2-0.4,0.3-0.4,0.3s0.1-0.1,0.4-0.4c0.2-0.2,0.6-0.6,0.9-1.2c0.4-0.5,0.7-1.2,1-2c0.3-0.8,0.5-1.8,0.6-2.8
						c0-1-0.1-2.1-0.6-3.1c-0.1-0.2-0.3-0.5-0.4-0.7c-0.1-0.1-0.1-0.2-0.2-0.3l-0.4-0.4c-0.4-0.4-0.9-0.7-1.4-1
						c-1.1-0.6-2.4-0.9-3.8-1.2c-1.4-0.3-2.9-0.7-4.3-1.1c-1.4-0.4-2.8-0.9-4.2-1.4c-1.4-0.5-2.7-1.1-4-1.7
						c-1.3-0.6-2.5-1.2-3.6-1.9c-1.1-0.7-2.1-1.4-2.9-2.1c-1.8-1.3-3.2-2.5-4.3-3.1C291,402.5,290.4,402.1,290.4,402.1z"/>
					<path id="XMLID_238_" class="st40" d="M274.1,403.8c0-0.8-0.1-1.6-0.4-2.3c-0.2-0.5-0.9-0.5-1.2-0.1c-0.4,0.7-0.6,1.5-0.6,2.2
						c0,0.6,0.5,1.2,1.1,1.2C273.5,405,274.1,404.5,274.1,403.8z"/>
					<path id="XMLID_237_" class="st40" d="M302.6,402.5c0.1-0.6-0.2-1.2-0.4-1.8c-0.1-0.4-0.4-0.7-0.8-0.6c-0.4,0-0.7,0.3-0.7,0.7
						c0,0.7,0,1.4,0.2,2c0.2,0.4,0.6,0.5,1,0.5C302.3,403.2,302.6,402.9,302.6,402.5z"/>
					<path id="XMLID_234_" class="st41" d="M269.5,430.4c-1,6.7,4.1,13.1,10.4,15.5c6.3,2.4,24.9,5.1,21.7-12
						C292.1,434.8,269.3,431.6,269.5,430.4z"/>
					<path id="XMLID_233_" class="st40" d="M269.7,435.1c-0.4-1.5-0.5-3.1-0.2-4.6c-0.2,1.1,18.5,3.8,29,3.7
						c-0.1,1.3-0.2,2.5,0.4,3.7C289.2,439.8,279,438.5,269.7,435.1z"/>
					<path id="XMLID_230_" class="st42" d="M293,447.5c-4.8,0.7-10.3-0.4-13.2-1.5c-3.7-1.4-6.9-4.2-8.8-7.6
						C279.3,438.9,286.7,442.5,293,447.5z"/>
				</g>
			</g>
			<g id="XMLID_100_">
				<g id="XMLID_95_">
					
						<rect id="XMLID_500_" x="-48.5" y="743.4" transform="matrix(-0.9766 -0.2152 0.2152 -0.9766 -135.182 1609.9913)" class="st18" width="137.1" height="137.9"/>
					
						<rect id="XMLID_491_" x="-87.8" y="734.8" transform="matrix(-0.9766 -0.2152 0.2152 -0.9766 -210.935 1584.4352)" class="st19" width="137.1" height="137.9"/>
				</g>
				<g id="XMLID_483_">
					
						<rect id="XMLID_502_" x="75.3" y="505.3" transform="matrix(-0.9766 -0.2152 0.2152 -0.9766 104.2088 1095.3264)" class="st18" width="73" height="73.3"/>
					
						<rect id="XMLID_486_" x="54.4" y="500.7" transform="matrix(-0.9766 -0.2152 0.2152 -0.9766 63.9098 1081.731)" class="st19" width="73" height="73.3"/>
				</g>
				<g id="XMLID_487_">
					
						<rect id="XMLID_519_" x="83.3" y="425.6" transform="matrix(-0.9766 -0.2152 0.2152 -0.9766 146.0428 950.462)" class="st18" width="83" height="83.5"/>
					
						<rect id="XMLID_492_" x="59.5" y="420.3" transform="matrix(-0.9766 -0.2152 0.2152 -0.9766 100.1839 934.991)" class="st19" width="83" height="83.5"/>
				</g>
				<g id="XMLID_420_">
					<polygon id="XMLID_484_" class="st18" points="0.8,737.6 104.4,760.4 143,583.1 39.4,560.3 					"/>
					<polygon id="XMLID_446_" class="st19" points="-29.6,730.9 74,753.7 112.6,576.4 9,553.6 					"/>
				</g>
				<polygon id="XMLID_472_" class="st28" points="-29.6,730.9 101.6,761.1 102.2,758.4 				"/>
				<polygon id="XMLID_507_" class="st28" points="10.9,554.8 142,585.1 142.6,582.4 				"/>
				<circle id="XMLID_405_" class="st43" cx="133.5" cy="854.9" r="39.6"/>
				<g id="XMLID_440_">
					<polygon id="XMLID_400_" class="st43" points="117.7,845 127.4,840.3 102.8,757 100.7,757.6 124.7,839.2 119,841.9 
						103.8,790.1 101.7,790.7 					"/>
				</g>
				<g id="XMLID_441_">
					
						<rect id="XMLID_399_" x="77.5" y="884" transform="matrix(-0.9016 0.4326 -0.4326 -0.9016 552.7267 1644.3835)" class="st43" width="23.5" height="2.1"/>
				</g>
				<g id="XMLID_432_">
					<path id="XMLID_434_" class="st28" d="M166.1,702.5c7.7-3.7,13.7-10.7,15.8-19.6L196,624c3.7-15.5-5.4-30.8-20.7-35l-26.3-7.2
						l-2,7.3l26.3,7.2c11.3,3.1,18.1,14.5,15.3,25.9l-14.1,58.9c-2.7,11.2-13.7,18.4-25,16.3l-31.7-5.8l-1.4,7.5l31.7,5.8
						C154.5,706.1,160.7,705.1,166.1,702.5z"/>
				</g>
				<polygon id="XMLID_431_" class="st28" points="67.8,898 80.7,900.7 151.8,575.6 138.9,572.9 				"/>
				<circle id="XMLID_433_" class="st27" cx="129.7" cy="865.7" r="39.6"/>
				<path id="XMLID_438_" class="st23" d="M160.3,851c0,0-0.5-1-1.3-2.8c-0.4-0.9-1.1-1.9-1.8-3.1c-0.4-0.6-0.8-1.1-1.3-1.8
					c-0.5-0.6-1-1.3-1.6-1.9c-0.6-0.6-1.2-1.3-1.8-1.9c-0.7-0.6-1.4-1.2-2.2-1.8c-0.8-0.6-1.6-1.1-2.5-1.7c-0.2-0.1-0.4-0.3-0.6-0.4
					l-0.7-0.4c-0.5-0.3-0.9-0.5-1.4-0.8l-0.7-0.4c-0.2-0.1-0.5-0.2-0.7-0.3c-0.5-0.2-1-0.4-1.5-0.6c-1-0.5-2.1-0.7-3.2-1.1
					c-2.2-0.6-4.4-1-6.7-1.2c-2.3-0.2-4.6-0.1-6.8,0.2c-2.2,0.3-4.4,0.8-6.4,1.5c-1,0.3-2,0.7-2.9,1.2c-0.5,0.2-0.9,0.4-1.4,0.6
					c-0.5,0.2-0.9,0.5-1.3,0.7c-1.7,1-3.2,2-4.6,3.1c-2.6,2.2-4.5,4.4-5.6,5.9c-0.6,0.8-1,1.5-1.3,1.9c-0.3,0.4-0.4,0.7-0.4,0.7
					s0.2-0.2,0.5-0.6c0.3-0.4,0.8-1,1.5-1.7c1.3-1.4,3.3-3.4,6-5.3c1.3-0.9,2.9-1.9,4.5-2.7c0.4-0.2,0.9-0.4,1.3-0.6
					c0.4-0.2,0.9-0.3,1.4-0.5c0.9-0.3,1.8-0.8,2.8-1c1.9-0.6,4-1,6.1-1.3c2.1-0.2,4.3-0.3,6.4-0.1c2.2,0.2,4.3,0.5,6.4,1.1
					c2.1,0.6,4,1.3,5.9,2.1c0.5,0.2,0.9,0.5,1.4,0.7c0.5,0.2,0.9,0.4,1.3,0.7c0.8,0.5,1.7,1,2.4,1.5c0.7,0.6,1.5,1.1,2.2,1.6
					c0.7,0.6,1.3,1.2,1.9,1.7c0.6,0.5,1.1,1.1,1.7,1.7c0.5,0.6,1,1.1,1.4,1.6c0.4,0.5,0.8,1,1.1,1.5c0.3,0.5,0.7,0.9,0.9,1.3
					C159.7,850,160.3,851,160.3,851z"/>
				<circle id="XMLID_435_" class="st23" cx="129.7" cy="865.7" r="21.1"/>
				<circle id="XMLID_436_" class="st44" cx="129.7" cy="865.7" r="18.7"/>
				<circle id="XMLID_437_" class="st27" cx="129.7" cy="865.7" r="8.1"/>
				<path id="XMLID_513_" class="st28" d="M62.5,496.3c0,0,1.4,0.4,3.9,1c2.5,0.6,6.1,1.5,10.4,2.6c4.3,1,9.3,2.2,14.7,3.5
					c2.7,0.6,5.5,1.2,8.3,1.9c2.8,0.6,5.7,1.3,8.6,1.9c2.9,0.6,5.8,1.3,8.6,1.9c2.8,0.6,5.6,1.2,8.3,1.8c5.4,1.1,10.5,2.2,14.8,3
					c4.3,0.9,8,1.5,10.5,2c2.5,0.5,4,0.7,4,0.7s-1.4-0.4-3.9-1c-2.5-0.6-6.1-1.5-10.4-2.6c-4.3-1-9.3-2.2-14.7-3.5
					c-2.7-0.6-5.5-1.2-8.3-1.9c-2.8-0.6-5.7-1.3-8.6-1.9c-2.9-0.6-5.8-1.3-8.6-1.9c-2.8-0.6-5.6-1.2-8.3-1.8
					c-5.4-1.1-10.5-2.2-14.8-3c-4.3-0.9-8-1.5-10.5-2C64,496.6,62.5,496.3,62.5,496.3z"/>
			</g>
		</g>
		<g id="XMLID_1_">
			<path id="XMLID_15_" class="st35" d="M1103.4,533.7c-7.5,10.1-15.2,20.3-24.9,28.2c-9.7,8-22,13.6-34.5,13.1
				c-3.5-0.1-7.2-0.8-10.1-2.8c-4.2-2.8-6.5-7.9-7-13c-0.5-5.1,0.5-10.2,1.5-15.1c4.9-23.4,9.2-48.6,16.7-71.3
				c-7.4-11.6-15-23.6-16.7-37.2c-0.1-0.6-0.1-1.4,0.3-1.9c0.7-1,2.4-0.4,3,0.6c0.6,1.1,0.5,2.3,0.5,3.5c0,3.9,1.8,7.7,4.6,10.3
				c-2.1-10.2-4.1-21.2-0.2-30.8c0.4-1,1-2.1,2-2.5c1.5-0.6,3.2,0.8,3.6,2.4c0.4,1.6,0,3.3-0.3,4.9c-1.1,5.9-0.3,12.2,2.2,17.6
				c0.5-7.7,2.5-15.2,5.8-22.1c0.4-0.9,0.9-1.8,1.8-2.3c1.8-0.9,3.9,1,4.2,3s-0.8,3.9-1.6,5.7c-2.5,5.8-3.4,12.2-2.5,18.5
				c2-3.2,4.4-6.1,7.7-7.9c3.3-1.8,7.5-2.1,10.7-0.1c2.3,1.4,3.8,3.9,4.1,6.5c0.2,2.6-2.1,5.8-4.4,4.5c-1.7-1-1.5-3.8-3-5.1
				c-1.3-1.1-3.4-0.6-4.5,0.7s-1.6,3-1.8,4.6c-0.5,2.7-0.7,5.8,0.8,8.1c1.5,2.4,5.3,3.4,7.1,1.3c2.1-2.4,0.5-7.3,3.4-8.7
				c1.9-0.9,4.1,0.7,5.2,2.5c2,3.5,1.6,8-0.3,11.6c-1.8,3.6-4.9,6.4-8.2,8.7c-2.3,1.6-6.4,2.9-8.9,4.1c-1.9,22.8-3.8,45.9-2.3,68.8
				c14.1-12.1,27.9-24.6,41.2-37.6c2.3,6.7,4.3,13.6,5.9,20.5C1105.1,528.2,1106.4,533,1103.4,533.7z"/>
			<g id="XMLID_14_">
				<path id="XMLID_574_" class="st10" d="M1218.9,896.2c-7.9,4.6-11.4,15.6-7.5,23.9h37.1c0-3.3,0.5-10.9-0.7-13.8
					c-0.6-1.5-1.9-2.6-3.2-3.5c-4.1-3.2-8.1-6.4-12.2-9.6c-1.3-1-2.7-2.1-4.3-2.4C1224.4,890.1,1222.2,894.3,1218.9,896.2z"/>
				<path id="XMLID_563_" class="st22" d="M1212,900.2c8.1-2.3,18.4-1.8,26.5-4.1c7.8-38.2,13.6-80.4,6.7-118.8
					c-1.4-8-3.5-15.9-4.9-24c-5.2-31.4,0.8-64.1-6.5-95.1c-0.2-0.9-0.4-1.8-1-2.6c-0.8-1.1-2.2-1.5-3.5-1.7c-5.7-1-11.5,0.2-17,1.7
					c-9.9,2.6-34.6,5.2-33.7,18.5c1.3,18,8.1,37,11.7,54.7c7.4,36.5,14,73.3,17.9,110.4C1208.8,844.8,1215.3,899.3,1212,900.2z"/>
				<path id="XMLID_756_" class="st10" d="M1203.2,679.9c8.5,1.6,17.5,0.9,25.3-2.7c4-1.9,7.8-4.9,8.7-9.2
					c-0.3,1.5-51.7,0.1-57.2,2.6C1186.4,675.4,1195.4,678.5,1203.2,679.9z"/>
				<path id="XMLID_770_" class="st10" d="M1215,782.9c2.7,0,5.2,1.2,7.6,2.3c5.7,2.3,11.8,3.4,17.9,3.3c-3.3,1.9-6.9,3.5-10.8,3.7
					c-3.4,0.2-6.8-0.8-10.2-1.6c-5.7-1.2-11.5-1.7-17.2-1.3c-0.3,0,3.5-3.6,4.2-3.9C1208.8,784.1,1212.3,782.9,1215,782.9z"/>
				<path id="XMLID_773_" class="st10" d="M1214.7,798.3c7.3,1.7,15.1,1.3,22.2-1.2c1.9-0.7,4-1.5,5.4-2.9
					c-3.1-1.9-8.9,1.4-12.2,2.2C1225.8,797.3,1219.1,799.3,1214.7,798.3z"/>
			</g>
			<g id="XMLID_16_">
				<path id="XMLID_143_" class="st10" d="M1137.9,896.2c7.9,4.6,11.4,15.6,7.5,23.9h-37.1c0-3.3-0.5-10.9,0.7-13.8
					c0.6-1.5,1.9-2.6,3.2-3.5c4.1-3.2,8.1-6.4,12.2-9.6c1.3-1,2.7-2.1,4.3-2.4C1132.4,890.1,1134.6,894.3,1137.9,896.2z"/>
				<path id="XMLID_137_" class="st22" d="M1144.8,900.2c-8.1-2.3-18.4-1.8-26.5-4.1c-7.8-38.2-13.6-80.4-6.7-118.8
					c1.4-8,3.5-15.9,4.9-24c5.2-31.4-0.8-64.1,6.5-95.1c0.2-0.9,0.4-1.8,1-2.6c0.8-1.1,2.2-1.5,3.5-1.7c5.7-1,11.5,0.2,17,1.7
					c9.9,2.6,34.6,5.2,33.7,18.5c-1.3,18-8.1,37-11.7,54.7c-7.4,36.5-14,73.3-17.9,110.4C1148,844.8,1141.5,899.3,1144.8,900.2z"/>
				<path id="XMLID_74_" class="st10" d="M1153.6,679.9c-8.5,1.6-17.5,0.9-25.3-2.7c-4-1.9-7.8-4.9-8.7-9.2
					c0.3,1.5,51.7,0.1,57.2,2.6C1170.3,675.4,1161.4,678.5,1153.6,679.9z"/>
				<path id="XMLID_21_" class="st10" d="M1141.8,782.9c-2.7,0-5.2,1.2-7.6,2.3c-5.7,2.3-11.8,3.4-17.9,3.3
					c3.3,1.9,6.9,3.5,10.8,3.7c3.4,0.2,6.8-0.8,10.2-1.6c5.7-1.2,11.5-1.7,17.2-1.3c0.3,0-3.5-3.6-4.2-3.9
					C1147.9,784.1,1144.5,782.9,1141.8,782.9z"/>
				<path id="XMLID_17_" class="st10" d="M1142.1,798.3c-7.3,1.7-15.1,1.3-22.2-1.2c-1.9-0.7-4-1.5-5.4-2.9
					c3.1-1.9,8.9,1.4,12.2,2.2C1131,797.3,1137.7,799.3,1142.1,798.3z"/>
			</g>
			<path id="XMLID_528_" class="st35" d="M1237.2,577.4c0.5,4.3,1,8.8,2.7,12.8s4.9,7.6,9.1,8.8c2.3,0.6,4.8,0.5,7.2,0.3
				c2.1-0.1,4.5-0.3,6-1.8c1.3-1.2,1.7-3,2.2-4.6c0.6-2.2,1.1-4.4,1.3-6.6c0.3-3.2-0.2-6.4-0.7-9.6c-1.3-8.2-2.6-16.4-3.8-24.6
				c-0.1-0.5-0.2-1.1-0.6-1.4c-0.4-0.3-0.9-0.3-1.4-0.3c-7,0.2-13.9,1.9-20.3,4.8C1231.7,558.5,1236.5,570.8,1237.2,577.4z"/>
			<path id="XMLID_402_" class="st31" d="M1134.6,456.3c-7.8,3.4-13.3,3.5-20.6,7.8c-7.6,4.5-16.2,13-20.9,20.4
				c-8.8,13.7-22.7,32.9-34.5,46.8c11.3,11.9,18.2,22.6,32.8,30c8.8-1.7,27.3-13.8,33.8-19.9c3.7-13.2,4.7-19.4,5.5-33.1
				C1131.7,490.7,1127.3,472.3,1134.6,456.3z"/>
			<path id="XMLID_556_" class="st26" d="M1109.3,517.4c-4.4-6.8-8.8-13.7-13.2-20.5c2.5,11.6,7.4,22.7,14.3,32.4
				c-5.4-0.7-10.7-2.2-15.7-4.5c4.1,2.8,8.2,5.6,12.4,8.4c0.7,0.5,1.4,1,1.6,1.8c0.2,0.7-0.1,1.4-0.4,2.1
				c-4.2,8.9-9.9,17.2-16.8,24.1c8.8-4.6,18.8-8.1,26.9-13.9c0.8-0.6,0.2-2.9,0.7-3.9c0.5-1,0.4-2.1,0.3-3.2
				c-1.2-19.2-1.1-41.9-9.1-59.7C1104.9,488.2,1108.4,508.5,1109.3,517.4z"/>
			<path id="XMLID_413_" class="st25" d="M1108.8,502.9c11.2,55.6,10.8,113.5-1.2,169c44.7,3.7,90.8,4.7,135.4-0.5
				c-3.9-60-14.7-118.4-26.8-177.4c-1.8-8.8-3.6-17.7-6.8-26c-2-5.3-6.4-9.3-11.9-10.7c-5.4-1.4-10.9-3.1-16.2-4
				c-8.5-1.4-17.2-2.9-25.8-1.5c-10.5,1.7-41.7,8.2-47.2,17.3C1106.5,471.9,1108.2,499.5,1108.8,502.9z"/>
			<path id="XMLID_577_" class="st26" d="M1207,508.1c-3.2-2.4-5.8-5.6-7.5-9.2c1.7,4.3,3.4,8.7,5.1,13
				c-12.8,7.7-25.6,15.5-38.3,23.2c9.4,6.4,20.2,10.7,31.5,12.4c9.2,1.4,19.2,0.9,26.7-4.7c0.7-0.5,1.4-1.1,1.8-2
				c0.5-1.1,0.2-2.4,0-3.6c-2.9-13.1-5.9-26.3-10.6-38.9c-2.3-6.3-5.1-12.4-8.5-18.1c-2.4-4-7.2-13.7-11.9-14.8
				C1194.8,479.1,1201.8,495.7,1207,508.1z"/>
			<path id="XMLID_729_" class="st26" d="M1157.7,565.9c-4.6,2.9-10,4.1-15.3,5.3c-6.1,1.3-12.3,2.7-18.4,4
				c14.7,9.4,32.9,13.1,50.2,10.2c2,5.2,3.6,10.7,4.6,16.2c0.2,1,0.3,1.9,0.1,2.9c-0.3,1.3-1.4,2.3-2.4,3.1
				c-8.1,6.8-17,12.7-26.6,17.3c14.9,2,29.9,4,44.8,6c4,0.5,8.1,1.1,11.9,0c2.3-0.7,4.5-1.9,6.6-3.2c6.9-4.3,13.4-9.2,19.4-14.6
				c-21.6-10.6-35.8-31.4-51.6-49.5c-2.2-2.5-10.1-12.2-14.2-10.7c-1.6,0.6-1.9,5.1-2.8,6.7C1162.5,562.1,1160.2,564.3,1157.7,565.9
				z"/>
			<path id="XMLID_730_" class="st26" d="M1209.6,649.8c-14.5,1.1-29.2,1.4-43.6-0.9c-7.6-1.2-15.1-3.1-22.3-6
				c-5.4-2.1-15.8-5.9-18.6-11c4.1-2.1,15.2,3.7,19.6,5c7.1,2.1,14.3,3.9,21.5,5.5s14.5,3.1,21.8,4.3
				C1194.7,647.9,1202.9,650.3,1209.6,649.8z"/>
			<path id="XMLID_414_" class="st31" d="M1231.8,471.7c10,8.2,15.6,20.6,20.8,32.4c7.6,17.4,15.3,34.9,18.9,53.6
				c-17.3,1.2-34.4,4.3-50.9,9.4c5.4-1.7-15.5-72.7-17.9-79.4c-2.8-8.2-15.8-27.5-3.4-28.8C1209.1,457.8,1224.6,465.8,1231.8,471.7z
				"/>
			<polygon id="XMLID_533_" class="st33" points="1238.4,529.8 1161.7,530.9 1171.9,621.4 1241.2,620.2 			"/>
			<path id="XMLID_554_" class="st45" d="M1182.9,538.1l-1.5-9.4l13.9-0.8l0.6-5.2c0.3-2.2,2.3-4.1,4.9-4.5l0,0
				c3.1-0.5,5.9,1.2,6.3,3.8l0.8,5.5l12.4-0.8l0,10.4L1182.9,538.1z"/>
			<path id="XMLID_530_" class="st35" d="M1249.8,566.2c-19.5,4.5-39.6,6.1-59.6,4.7c-3.8-7-8.4-14.8-12.5-22
				c-0.7-1.3-2.6-1-2.9,0.4c-0.6,2.8-0.5,5.9,0.4,8.6c0.3,1,0.7,2.1,0.1,3c-0.6,0.8-1.8,0.8-2.8,0.7c-3.9-0.3-7.8-0.6-11.8-0.9
				c-1.1,1.6-0.6,3.8,0.5,5.3c1.2,1.5,2.9,2.5,4.5,3.4c-3-1-6.5,2-6.2,5c0.4,3.1,4.3,5.1,7.2,3.8c-2.3-0.1-4.5,2.1-4.2,4.4
				c0.3,2.3,2.9,4,5.1,3.3c-2.1,0.9-4.6,2.6-3.8,4.6c0.5,1.4,2.2,1.9,3.6,2.1c5.3,0.8,10.9,0.1,15.9-2c2.4-1,4.9-2.4,7.5-2.2
				c1.7,0.1,3.4,0.9,4.9,1.6c9,4.4,18.1,8.9,27.8,11.6c9.7,2.8,20.2,3.7,29.9,1c4.7-1.3,9.5-3.8,11.8-8c1-1.9,1.5-4.1,1.7-6.3
				C1267.7,577.9,1260.1,563.8,1249.8,566.2z"/>
			<path id="XMLID_731_" class="st26" d="M1233.3,488.9c-6.5,10.1-13.4,19.9-20.6,29.4c2.3-5.5,4.2-11.4,7.7-16.2
				C1223.9,497.2,1230.1,493.8,1233.3,488.9z"/>
			<path id="XMLID_732_" class="st26" d="M1243.4,494.9c-8.8,7.1-17.5,14.2-26.3,21.4c3.8-3.1,5.8-8.5,9.9-11.8
				C1231.9,500.4,1237.4,497.2,1243.4,494.9z"/>
			<polygon id="XMLID_23_" class="st26" points="1143.2,488.9 1163.4,478.6 1185.2,488.9 1181.5,455.2 1146.1,456.3 			"/>
			<polygon id="XMLID_13_" class="st31" points="1162.8,477.1 1141.6,486.3 1143.9,454 1150.5,446.1 1178.2,446.1 1183,453.5 
				1185.2,484.2 			"/>
			<g id="XMLID_11_">
				<linearGradient id="XMLID_445_" gradientUnits="userSpaceOnUse" x1="1163.9431" y1="431.6633" x2="1163.9431" y2="472.1128">
					<stop  offset="0" style="stop-color:#FD7A7F"/>
					<stop  offset="0.5081" style="stop-color:#FE9F95"/>
					<stop  offset="1" style="stop-color:#FFC7AC"/>
				</linearGradient>
				<path id="XMLID_10_" class="st46" d="M1179.2,433.3c-1.2,7.9-0.9,16.4-0.7,24.4c-4.7,6.9-10.1,13.1-15.6,19.4
					c-4-6.3-8.8-11.7-13.8-17.3c2.4-6.6,2.3-14.1-0.3-20.7C1157.8,436.5,1169.7,433.3,1179.2,433.3z"/>
				<g id="XMLID_9_">
					
						<linearGradient id="XMLID_447_" gradientUnits="userSpaceOnUse" x1="1121.4254" y1="372.8378" x2="1130.2778" y2="372.8378" gradientTransform="matrix(0.9944 0.1055 -0.1055 0.9944 39.2136 -101.8605)">
						<stop  offset="0" style="stop-color:#FD7A7F"/>
						<stop  offset="0.1541" style="stop-color:#FA7479"/>
						<stop  offset="0.5566" style="stop-color:#F56A6E"/>
						<stop  offset="1" style="stop-color:#F3676A"/>
					</linearGradient>
					<path id="XMLID_34_" class="st47" d="M1114.8,389.5c-0.1,2.7,0.2,5.5,1.4,8c1.2,2.5,3.5,4.5,6.2,4.9c-0.2,0,2.1-25,1-27.3
						C1119.8,367.8,1114.9,386.5,1114.8,389.5z"/>
					
						<linearGradient id="XMLID_448_" gradientUnits="userSpaceOnUse" x1="1204.7848" y1="364.4522" x2="1216.1248" y2="364.4522" gradientTransform="matrix(0.9944 0.1055 -0.1055 0.9944 39.2136 -101.8605)">
						<stop  offset="0" style="stop-color:#FD7A7F"/>
						<stop  offset="0.1541" style="stop-color:#FA7479"/>
						<stop  offset="0.5566" style="stop-color:#F56A6E"/>
						<stop  offset="1" style="stop-color:#F3676A"/>
					</linearGradient>
					<path id="XMLID_35_" class="st48" d="M1207.3,379.2c0.7,2.1,1.1,4.3,1.5,6.5c0.6,3.4,1.1,6.9,0.4,10.4c-0.7,3.4-2.8,6.7-6,8
						c-0.9-8.2-1.8-16.5-2.7-24.7c-0.2-2-1.4-7.1,2.2-7.2C1205.2,372.1,1206.8,377.4,1207.3,379.2z"/>
					<path id="XMLID_46_" class="st49" d="M1118,370.2c-0.6,3.9,0,7.8,0.5,11.7c1,6.6,2.1,13.3,5.6,19c1.7-10.8,3.3-21.6,5-32.5
						c0.4-2.3,0.7-4.8,0-7.1C1126.2,352.1,1118.6,366.7,1118,370.2z"/>
					<path id="XMLID_47_" class="st49" d="M1199.4,405.1c4.5-7.4,5.3-16.3,6-25c0.5-5.9,1-11.8,0.3-17.6c-0.2-2.2-2.6-13.9-6.3-12.5
						c-2.4,0.9-0.7,10.2-0.5,11.9c0.8,7.2,1.3,14.5,1.4,21.8c0,3.7,0,7.4-0.2,11.1C1200,397.3,1200.7,403,1199.4,405.1z"/>
					
						<linearGradient id="XMLID_449_" gradientUnits="userSpaceOnUse" x1="1164.0306" y1="327.1647" x2="1174.012" y2="405.2328" gradientTransform="matrix(0.9944 0.1055 -0.1055 0.9944 39.2136 -101.8605)">
						<stop  offset="0" style="stop-color:#FD7A7F"/>
						<stop  offset="0.1161" style="stop-color:#FD8C8A"/>
						<stop  offset="0.3223" style="stop-color:#FEA699"/>
						<stop  offset="0.5351" style="stop-color:#FFB8A3"/>
						<stop  offset="0.7565" style="stop-color:#FFC3AA"/>
						<stop  offset="1" style="stop-color:#FFC7AC"/>
					</linearGradient>
					<path id="XMLID_32_" class="st50" d="M1121.1,391.1c-0.6,6.6-1.7,13.2-1.8,19.8c0,6.6,1.1,13.4,4.5,19.1
						c6.1,9.9,18.2,14.3,29.7,16c10.6,1.6,21.8,1.4,31.7-2.5s18.7-12,21.5-22.4c3.9-14.5-3.8-29.4-4.3-44.4
						c-0.1-4.8,0.5-9.7,0.3-14.5c-0.1-4.8-1.2-9.9-4.2-13.7c-5.6-6.9-15.7-7.6-24.6-7.4c-9.6,0.2-19.2,0.9-28.4,3.6
						c-7.8,2.3-19.8,7.3-23.8,15.1c-1.9,3.8-0.5,8.8-0.3,12.8C1121.9,378.7,1121.7,384.9,1121.1,391.1z"/>
					<path id="XMLID_92_" class="st40" d="M1153.6,446c0,0,1.7,0.2,4.7,0.4c3,0.2,7.2,0.4,12.3-0.1c5.1-0.5,10.9-1.7,16.7-4.4
						c2.8-1.3,5.6-3.1,8.2-5.2c2.5-2.1,4.9-4.6,6.7-7.4c1.9-2.8,3.4-5.8,4.1-9c0.2-0.8,0.4-1.6,0.5-2.4c0.1-0.8,0.2-1.6,0.3-2.4
						c0-0.8,0.1-1.6,0.1-2.4c0-0.8,0-1.6,0-2.4c-0.2-6.3-1.5-12.2-2.5-17.2c-0.5-2.5-1-4.8-1.3-6.9c-0.3-2.1-0.6-3.9-0.7-5.4
						c-0.2-1.5-0.2-2.7-0.2-3.5c0-0.8,0-1.2,0-1.2s0,0.4,0.1,1.2c0.1,0.8,0.2,2,0.4,3.4c0.2,1.5,0.5,3.3,0.9,5.3
						c0.4,2,1,4.3,1.5,6.8c0.6,2.5,1.2,5.2,1.8,8.1c0.6,2.9,1,6,1.2,9.2c0,0.8,0.1,1.6,0,2.5c0,0.8-0.1,1.7-0.1,2.5
						c-0.1,0.8-0.2,1.7-0.3,2.5c-0.1,0.8-0.3,1.6-0.5,2.5c-0.8,3.4-2.3,6.6-4.3,9.5c-2,2.9-4.4,5.4-7,7.6c-2.7,2.1-5.5,3.9-8.5,5.3
						c-2.9,1.4-6,2.3-8.8,2.9c-2.9,0.6-5.7,1-8.2,1.2c-5.1,0.3-9.4-0.1-12.4-0.4c-1.5-0.2-2.7-0.4-3.4-0.5
						C1154,446.1,1153.6,446,1153.6,446z"/>
					<path id="XMLID_36_" class="st25" d="M1121.2,338.8c0.2-3,0.4-6.2,1.6-9c1.2-2.9,3.5-5.3,5.8-7.5c8.9-8.3,20.1-14.5,32.2-16.1
						c12.1-1.7,25,1.5,34.1,9.6c10.6,9.4,14.9,25.2,10.7,38.6c-13.6-7.6-29.4-11.8-44.9-10.6c-16.7,1.4-27.8,9.1-40.3,19.2
						c-1.7-2-0.2-8.6,0-11.4C1120.6,347.4,1120.9,343.1,1121.2,338.8z"/>
					<path id="XMLID_93_" class="st40" d="M1160.7,306.2c0,0,0.3,0,0.9-0.1c0.6-0.1,1.4-0.2,2.5-0.3c1.1-0.1,2.4-0.2,3.9-0.2
						c1.5,0,3.2,0,5.1,0.3c1.9,0.2,3.8,0.6,5.9,1.1c2.1,0.5,4.2,1.2,6.4,2.2c2.1,1,4.3,2.1,6.3,3.5c2,1.4,4,3.1,5.7,4.8
						c1.7,1.9,3.2,3.9,4.5,6c1.2,2.1,2.4,4.3,3.2,6.5c0.9,2.2,1.4,4.4,1.8,6.5c0.4,2.1,0.6,4.1,0.6,6c0.1,1.9-0.1,3.6-0.3,5.1
						c-0.1,0.7-0.2,1.4-0.3,2.1c-0.1,0.6-0.3,1.2-0.4,1.8c-0.2,1.1-0.5,1.9-0.7,2.4c-0.2,0.6-0.3,0.8-0.3,0.8s0.1-0.3,0.2-0.9
						c0.1-0.6,0.4-1.4,0.5-2.4c0.1-0.5,0.2-1.1,0.3-1.8c0.1-0.6,0.1-1.3,0.2-2.1c0.1-1.5,0.1-3.2,0-5c-0.1-1.8-0.4-3.8-0.8-5.8
						c-0.5-2-1.1-4.2-1.9-6.3c-0.8-2.1-1.9-4.2-3.1-6.3c-1.3-2-2.8-3.9-4.4-5.7c-1.7-1.8-3.5-3.4-5.5-4.7c-2-1.4-4-2.5-6.1-3.5
						c-2.1-0.9-4.2-1.7-6.2-2.3c-2-0.5-4-1-5.8-1.2c-3.6-0.5-6.7-0.6-8.8-0.5c-1.1,0-1.9,0.1-2.5,0.1
						C1161,306.2,1160.7,306.2,1160.7,306.2z"/>
					<path id="XMLID_31_" class="st26" d="M1117,367.5c0,0,8.9-16.6,42.2-17.1c33.4-0.5,44.1,0,52,11.9c0,0-1-9.2-11.4-19.4
						c-10.4-10.2-27.8-16.4-40.7-12.1s-31.2,13.2-38.8,28.8C1120.4,359.5,1117.4,363.2,1117,367.5z"/>
					
						<linearGradient id="XMLID_450_" gradientUnits="userSpaceOnUse" x1="1151.4247" y1="370.2464" x2="1151.4247" y2="352.5103" gradientTransform="matrix(0.9944 0.1055 -0.1055 0.9944 39.2136 -101.8605)">
						<stop  offset="0" style="stop-color:#135F6D"/>
						<stop  offset="6.084794e-002" style="stop-color:#135C6C"/>
						<stop  offset="0.6518" style="stop-color:#174160"/>
						<stop  offset="1" style="stop-color:#19375B"/>
					</linearGradient>
					<path id="XMLID_40_" class="st51" d="M1149.5,379.3c-0.5,4.9-2.4,8.7-4.3,8.5c-1.9-0.2-2.9-4.3-2.4-9.2s2.4-8.7,4.3-8.5
						S1150,374.4,1149.5,379.3z"/>
					
						<linearGradient id="XMLID_452_" gradientUnits="userSpaceOnUse" x1="1187.1653" y1="367.3123" x2="1187.1653" y2="349.5963" gradientTransform="matrix(0.9944 0.1055 -0.1055 0.9944 39.2136 -101.8605)">
						<stop  offset="0" style="stop-color:#135F6D"/>
						<stop  offset="6.084794e-002" style="stop-color:#135C6C"/>
						<stop  offset="0.6518" style="stop-color:#174160"/>
						<stop  offset="1" style="stop-color:#19375B"/>
					</linearGradient>
					<path id="XMLID_42_" class="st52" d="M1185.3,380c-0.3,4.9-2,8.8-3.9,8.7c-1.9-0.1-3.2-4.1-2.9-9s2-8.8,3.9-8.7
						C1184.3,371,1185.6,375.1,1185.3,380z"/>
					<path id="XMLID_63_" class="st31" d="M1184.4,330.3c-14.1-5.1-30.4-2.9-43.1,4.9c-11.8,7.3-20.6,19-25,32.2
						c-0.1,0.3,0,0.6,0.3,0.7l0,0c0.3,0.2,0.8,0.1,0.9-0.3c4.8-11.3,12.9-21.3,23.3-27.7c12.8-7.8,29.1-10,43.1-4.9
						c11.9,4.4,22.7,15.3,27.2,27.5c0.1,0.3,0.5,0.4,0.7,0.2l0,0c0.1-0.1,0.2-0.3,0.2-0.5C1209.5,348,1198.3,335.4,1184.4,330.3z"/>
					<path id="XMLID_61_" class="st40" d="M1146.8,374.2c-0.1-0.9-1.2-1.4-2-1.1c-0.9,0.4-1.4,1.3-1.7,2.2c-0.3,0.9-0.6,2.1-0.1,3
						c0.6,1,2.1,1.4,2.8,0.3c0.5-0.7,0.4-1.5,0.6-2.3C1146.6,375.5,1146.9,374.9,1146.8,374.2z"/>
					<path id="XMLID_2_" class="st40" d="M1181.1,377.2c0-0.5,0.1-0.9,0.1-1.4c0-0.9-0.8-1.8-1.8-1.3c-0.8,0.4-1.2,1.2-1.5,2
						c-0.2,1-0.1,2.1,0.8,2.6c0.6,0.4,1.4,0.3,1.8-0.3C1181.1,378.4,1181.1,377.9,1181.1,377.2z"/>
					<path id="XMLID_4_" class="st33" d="M1193.6,359.7c-5.3-4.4-12.2-6.8-19.1-6.5c0.1,1-0.2,2.2-0.1,3.3c3.4-0.3,6.8-0.7,10.2-0.2
						C1187.8,356.8,1191,357.5,1193.6,359.7z"/>
					<path id="XMLID_7_" class="st42" d="M1188.4,416.4c-14.1,1.1-28.2,1.9-42.3,2.2c6.4,4.8,13.5,6.6,21.5,6
						c3.8-0.3,7.6-1.1,11.2-2.5c1.8-0.7,3.5-1.5,5.1-2.5C1184.9,419,1187.4,416.5,1188.4,416.4z"/>
					<path id="XMLID_5_" class="st33" d="M1134,364.3c4.1-5.5,10.4-9.4,17.1-10.6c0.2,1,0.7,2.1,0.9,3.1c-3.3,0.5-6.8,0.8-9.9,2.1
						S1136,361.7,1134,364.3z"/>
					<path id="XMLID_6_" class="st33" d="M1147.6,405.2c-1.7,0.5-3.4,1-4.7,2.2c-1.3,1.2-2.1,2.9-2.6,4.5c-1,2.9-1.7,6.2-0.6,9.1
						c0.6-1.1,1.1-2.2,1.7-3.3c0,1.3,0,2.5,0,3.8c2.5,0.3,5.1,0.4,7.7,0.3c1,0,1.9-0.1,2.8-0.6c0.8-0.5,1.4-1.5,1.2-2.4
						c0.3,1,0.6,2.1,0.8,3.1c7.4-0.4,14.8-0.7,22.2-1.1c1.4-0.1,2.9-0.2,4.2-0.9c1.2-0.7,2.1-2.3,1.6-3.6c0.5,1.5,1,3,1.4,4.5
						c0.1-1.2,0.5-2.4,1-3.5c0.9,1,1.5,2.3,1.7,3.6c1.9-0.1,3.9-0.3,5.8-0.4c-0.4-4.9,0.2-12.1-3.3-15.7
						C1182,407.2,1159.5,409.4,1147.6,405.2z"/>
					
						<linearGradient id="XMLID_453_" gradientUnits="userSpaceOnUse" x1="1190.2483" y1="385.9138" x2="1168.3251" y2="360.7823" gradientTransform="matrix(0.9944 0.1055 -0.1055 0.9944 39.2136 -101.8605)">
						<stop  offset="0" style="stop-color:#FD7A7F"/>
						<stop  offset="1" style="stop-color:#FD7B80;stop-opacity:0"/>
					</linearGradient>
					<path id="XMLID_18_" class="st53" d="M1181,391.4c1.6,0.9,3.5,1.8,4.4,3.4c1.5,2.6-0.2,6.1-2.8,7.6c-2.6,1.5-5.8,1.4-8.7,1.1
						c-2.8-0.3-5.6-0.9-7.9-2.5c-1.7-1.2-2.9-3-3.9-4.8c-2.1-4-6-22.7,2.9-22.7c3.4,0,4.9,6.5,6.4,8.8
						C1173.8,386,1177.1,389.2,1181,391.4z"/>
					<path id="XMLID_8_" class="st40" d="M1165,373.4c0,0,0.2,0,0.4,0c0.1,0,0.3,0,0.5,0.1c0.2,0,0.4,0.2,0.7,0.3
						c0.5,0.3,1,0.7,1.5,1.3c0.5,0.6,1,1.3,1.4,2.2c0.4,0.8,0.9,1.7,1.3,2.7c0.2,0.5,0.5,0.9,0.7,1.4c0.1,0.2,0.3,0.4,0.4,0.7
						c0.2,0.2,0.3,0.5,0.5,0.7c0.6,0.9,1.4,1.8,2.2,2.7c0.8,0.9,1.7,1.7,2.6,2.5c0.9,0.8,1.9,1.5,2.9,2.1c1,0.6,2,1.2,3,1.8
						c1,0.6,2,1.4,2.6,2.4l0.1,0.2c0.1,0.1,0.1,0.1,0.1,0.2l0.2,0.4c0.1,0.3,0.2,0.6,0.2,0.8c0.1,0.5,0.1,1.1,0,1.6
						c-0.1,1-0.5,1.8-1,2.5c-0.4,0.7-0.9,1.1-1.3,1.5c-0.4,0.4-0.8,0.6-1,0.7c-0.3,0.1-0.4,0.2-0.4,0.2s0.1-0.1,0.4-0.3
						c0.2-0.2,0.5-0.5,0.9-0.9c0.3-0.4,0.7-0.9,1-1.6c0.3-0.6,0.6-1.4,0.6-2.3c0-0.4,0-0.9-0.1-1.3c0-0.2-0.1-0.4-0.2-0.6l-0.2-0.3
						c0,0-0.1-0.2-0.1-0.1l-0.1-0.1c-0.5-0.8-1.4-1.4-2.3-1.9c-1-0.5-2.1-1.1-3.1-1.7c-1-0.7-2.1-1.4-3-2.2c-1-0.8-1.9-1.7-2.7-2.6
						c-0.8-0.9-1.5-1.9-2.2-2.9c-0.2-0.2-0.3-0.5-0.5-0.7c-0.2-0.2-0.3-0.5-0.4-0.8c-0.2-0.5-0.5-1-0.7-1.5c-0.4-1-0.7-1.9-1.1-2.8
						c-0.4-0.8-0.7-1.6-1.1-2.2c-0.4-0.6-0.8-1.1-1.2-1.4c-0.2-0.2-0.4-0.3-0.6-0.4c-0.2-0.1-0.3-0.2-0.5-0.2
						C1165.2,373.4,1165,373.4,1165,373.4z"/>
				</g>
			</g>
		</g>
	</g>
</g>
</svg>
