<?xml version="1.0" encoding="utf-8"?>
<!-- Generator: Adobe Illustrator 19.0.0, SVG Export Plug-In . SVG Version: 6.00 Build 0)  -->
<svg version="1.1" id="Layer_1" xmlns="http://www.w3.org/2000/svg" xmlns:xlink="http://www.w3.org/1999/xlink" x="0px" y="0px"
	 width="1400px" height="980px" viewBox="0 0 1400 980" style="enable-background:new 0 0 1400 980;" xml:space="preserve">
<style type="text/css">
	.st0{clip-path:url(#XMLID_76_);}
	.st1{fill:#CDE7F9;}
	.st2{fill:#FFFFFF;}
	.st3{fill:#EBF4FB;}
	.st4{fill:#86C550;}
	.st5{fill:#517837;}
	.st6{fill:#B7B6A4;}
	.st7{fill:#777167;}
	.st8{fill:#E5E4D6;}
	.st9{fill:#061733;}
	.st10{fill:#DAD1CA;}
	.st11{fill:#C6BAAE;}
	.st12{fill:#DD3E0E;}
	.st13{fill:#1D2633;}
	.st14{fill:#534A43;}
	.st15{fill:#A3D3D1;}
	.st16{fill:#3D3533;}
	.st17{fill:url(#XMLID_78_);}
	.st18{fill:#DE8654;}
	.st19{fill:#F0CD73;}
	.st20{fill:url(#XMLID_87_);}
	.st21{fill:#C46A27;}
	.st22{fill:#F4A75B;}
	.st23{fill:#892109;}
	.st24{fill:#190101;}
	.st25{fill:#5E3A1F;}
	.st26{fill:#333333;}
	.st27{fill:#4C4C4B;}
	.st28{fill:url(#XMLID_92_);}
	.st29{fill:#C6BEB3;}
	.st30{fill:#BDB0A7;}
	.st31{fill:#998B81;}
	.st32{fill:#752F39;}
	.st33{fill:url(#XMLID_93_);}
	.st34{fill:url(#XMLID_94_);}
	.st35{fill:#4C4B49;}
	.st36{fill:#9B9A9A;}
	.st37{fill:url(#XMLID_95_);}
	.st38{fill:#420D17;}
	.st39{fill:#B80F3A;}
	.st40{fill:#FE4C62;}
	.st41{fill:url(#XMLID_99_);}
	.st42{fill:url(#XMLID_100_);}
	.st43{fill:#EAE5DF;}
	.st44{fill:#877E73;}
	.st45{fill:#FFC7AC;}
	.st46{fill:url(#XMLID_101_);}
	.st47{fill:url(#XMLID_102_);}
	.st48{fill:url(#XMLID_103_);}
	.st49{fill:url(#XMLID_104_);}
	.st50{fill:#EDE6DD;}
	.st51{fill:url(#XMLID_106_);}
	.st52{fill:url(#XMLID_107_);}
	.st53{fill:url(#XMLID_108_);}
	.st54{fill:#FBC4A5;}
	.st55{fill:#4E2811;}
	.st56{fill:#B30E39;}
	.st57{fill:#D33D6C;}
	.st58{fill:url(#XMLID_109_);}
	.st59{fill:#F5655A;}
	.st60{fill:#91562C;}
</style>
<g id="XMLID_58_">
	<defs>
		<rect id="XMLID_7_" width="1400" height="980"/>
	</defs>
	<clipPath id="XMLID_76_">
		<use xlink:href="#XMLID_7_"  style="overflow:visible;"/>
	</clipPath>
	<g id="XMLID_36_" class="st0">
		<rect id="XMLID_5_" class="st1" width="1400" height="980"/>
		<g id="XMLID_333_">
			<polygon id="XMLID_356_" class="st2" points="1400,420.2 0,420.2 0,401.8 1400,368.1 			"/>
			<rect id="XMLID_347_" y="379.8" class="st3" width="1400" height="3.5"/>
			<rect id="XMLID_341_" y="425" class="st2" width="1400" height="3.5"/>
			<path id="XMLID_338_" class="st2" d="M17.5,345.7c8.1-19.4,24.5-14.9,35.6-19.9c13.4-6,24.2-16.8,37.2-23.7s30.7-9.1,41.2,1.3
				l4.6,9.7c21.5-17.6,47.8-29.3,75.3-33.5c10.3-1.6,21.3-2,30.4,3c9.1,5,15.1,16.9,10.3,26.1l24.4-2.5c8.1-0.8,14.4,7.4,11,14.9
				c0,0.1,0,0.1-0.1,0.2c20.2,1.7,40.4,3.4,60.6,5.1c5.3,0.4,12.5,5.1,8.9,9c55.6-7.6,112.7-4.1,166.9,10.2H17.5z"/>
			<path id="XMLID_345_" class="st2" d="M1054.2,340.7c8.1-19.4,24.5-14.9,35.6-19.9c13.4-6,24.2-16.8,37.2-23.7
				c13-6.9,30.7-9.1,41.2,1.3l4.6,9.7c21.5-17.6,47.8-29.3,75.3-33.5c10.3-1.6,21.3-2,30.4,3c9.1,5,15.1,16.9,10.3,26.1l24.4-2.5
				c8.1-0.8,14.4,7.4,11,14.9c0,0.1,0,0.1-0.1,0.2c20.2,1.7,40.4,3.4,60.6,5.1c5.3,0.4,12.5,5.1,8.9,9
				c55.6-7.6,112.7-4.1,166.9,10.2H1054.2z"/>
			<path id="XMLID_336_" class="st2" d="M837.7,343H563c5.6-5.2,14.8-6.1,21.5-2.5c-0.5-8.4,8.2-16.1,16.4-14.5
				c0.8,2.9,1.6,5.7,2.3,8.6c3.3-4,8.4-6.4,13.5-6.5c1.3,3.1,1.6,6.7,0.6,9.9c5.6-17.6,24.4-27.6,42.5-31.4c9.7-2,20.2-2.8,29.3,1.1
				c9.1,3.9,16.4,13.5,14.8,23.4c5-3.4,10.3-6.9,16.3-7.3c6-0.5,12.8,3.2,13.5,9.2c16.8-10.5,36.8-15.8,56.6-15c5.6,0.2,11.3,1,16,4
				c4.7,3,8,8.8,6.6,14.2c4.8-1.7,9.9-3.4,15-2.7C833.2,334.1,837.4,337.9,837.7,343z"/>
			<path id="XMLID_294_" class="st2" d="M549.5,299.9H421.9c2.6-2.4,6.9-2.8,10-1.1c-0.2-3.9,3.8-7.5,7.6-6.7c0.4,1.3,0.7,2.7,1.1,4
				c1.5-1.9,3.9-3,6.3-3c0.6,1.4,0.7,3.1,0.3,4.6c2.6-8.2,11.4-12.8,19.7-14.6c4.5-1,9.4-1.3,13.6,0.5s7.6,6.3,6.9,10.8
				c2.3-1.6,4.8-3.2,7.6-3.4c2.8-0.2,5.9,1.5,6.3,4.3c7.8-4.9,17.1-7.3,26.3-7c2.6,0.1,5.3,0.5,7.5,1.9c2.2,1.4,3.7,4.1,3.1,6.6
				c2.2-0.8,4.6-1.6,7-1.3C547.4,295.7,549.3,297.5,549.5,299.9z"/>
		</g>
		<g id="XMLID_118_">
			<g id="XMLID_11_">
				<path id="XMLID_72_" class="st4" d="M1464.8,398.5c-38.5-4-78.1,22.3-92.9,61.7c-29.1-21.3-74.9,14-66.8,51.4
					c-12.5-29-59.6-23.8-66.6,7.4c-14.1-44.9-78-56.3-104.2-18.6c2-34.8-43.2-40.6-72.7-53.1c-22-9.3-39.7-28.6-62.1-36.4
					c-22.4-7.8-54,5-53.4,30.9c-23.2-21.2-50.9-42-80.7-37.5c-29.8,4.5-52.7,49.5-30.7,72.1c-15.8-14-40.3-14.4-56.6-1
					c-16.2,13.4-22.7,39.5-15,60.2c-15.7-24.5-57.2-16.4-64.2,12.6c-14.1-53.8-71.9-88.2-120.4-71.6
					c-17.1-46.9-74.2-69.7-114.5-45.8c-9.7-35.4-47-58.4-79.3-48.9c-32.4,9.4-54.5,49.7-47.1,85.8c-12.7-17.7-36.6-24.1-55.2-14.9
					c-18.6,9.2-30.2,33.2-26.7,55.4c-3.6-23.8-22.5-43.7-44.1-46.7c-21.7-3-44.4,11.1-53.3,33.1c-19.4-38.8-78.5-41-100.2-3.7
					c-10.9-14.2-22.6-29-38.6-34.6s-37.2,2.4-40.7,20.5c3.4-23.2-29-33.3-46.9-20.7c-18,12.5-27.7,35.7-44.6,49.9l9.6,171.3h1610.3
					V415.8C1494.4,406.3,1479.9,400.1,1464.8,398.5z"/>
				<g id="XMLID_71_">
					<g id="XMLID_869_">
						<path id="XMLID_871_" class="st4" d="M86.2,464.5c0.2-11.4-2.6-22.2-6.9-32.7c-0.8-2-1.9-3.1-4.2-3.5
							c-11-1.7-18.2-11.4-17.7-22c0.5-10.2,8.7-18.9,19.2-20c10.1-1.1,20,5.8,22.5,15.4c3.1,12.2-3.8,23.6-16.1,26.5
							c-1.9,0.4-1.9,1-1.2,2.5c4.1,9.8,7,19.9,7.1,30.6c0.1,0.2,0.2,0.4,0.2,0.6c0,0.2-0.1,0.4-0.2,0.5c0.3-0.3,0.5-1,1-1.4
							c3.7-7,8.4-12.9,16.7-14.6c1.3-0.3,1.2-1,1.2-1.9c-0.5-11.8,8.1-20.6,19.9-20.3c7.7,0.2,14.9,6.1,17.1,13.9
							c2.1,7.5-1,16.2-7.4,20.3c-10.3,6.8-22.9,3.3-28.1-7.9c-0.7-1.6-1.5-1.7-2.9-1.4c-3.8,0.9-6.8,3-9.2,5.9
							c-4.8,5.9-8.3,12.3-9.4,20.2c-1.2,8.3-3.5,16.5-6.4,24.5c-1.8,5-3.8,10-6,14.9c-0.2,0.4-0.4,0.8-0.6,1.2
							c-0.4,0.6-1,1.3-1.9,0.8c-0.7-0.4-0.7-1.1-0.4-1.8c0.7-1.9,1.5-3.8,2.4-5.6c3.6-7.8,6-15.9,8.3-24.1c1.1-3.8,1.9-7.8,2.3-11.8
							c0.5-5.4-2.7-9.3-6.3-12.7c-5.4-5.1-12.2-5.4-19.1-4.3c-4.4,0.7-8.6,2.4-12.6,4.2c-1.2,0.5-1.2,1.1-0.7,2.3
							c5.3,13.4-4.2,26.8-18.5,26.3c-7.7-0.3-14.9-6.2-17.1-14c-2.1-7.5,1.1-16.2,7.5-20.3c8.2-5.3,17.5-4.4,24.4,2.5
							c1.2,1.2,2,1.6,3.8,0.7c6.5-3.1,13.2-5.3,20.5-4.8c7.9,0.5,14.4,3.8,18.3,11.1C85.5,464.5,85.7,465,86.2,464.5z"/>
					</g>
				</g>
			</g>
			<path id="XMLID_8_" class="st4" d="M297.6,479.9c-0.6-1.8-0.3-3.9-2.2-5.3c-2.5-1.9-5.4-2.2-8.4-1.9c-2.8,0.4-5.5,1.2-8.3,1.9
				c-1.5,0.4-2.9,0.7-4.4,0.8c-2.2,0.2-3.4-1.1-3.1-3.3c0.1-1.1,0.4-2.1,0.8-3.1c2.4-5.8,5.6-11.2,8.2-16.9
				c2.1-4.5,3.8-9.1,3.3-14.2c-0.4-4.1-3.2-5.8-6.9-4.1c-3.1,1.4-5.5,3.7-8,5.8c-2.2,1.7-4.2,3.7-6.7,4.8c-1.9,0.9-3.3,0.2-3.9-1.8
				c-0.5-1.5-0.5-3.1-0.2-4.6c0.8-5.8,3-11.1,4.9-16.6c1.6-4.6,3.2-9.1,3.8-13.9c0.9-6.3-4.6-9.2-8.8-8.6c-2,0.3-3.8,1.2-5.5,2.3
				c-2.4,1.4-4.7,2.9-7.4,3.8c-2.6,0.9-4.2,0.3-5.7-2c-0.9-1.4-1.6-2.8-2.3-4.3c-1.7-3.8-2.8-7.8-5-11.4c-1-1.6-2.2-2.7-4.1-2.9
				c-0.7,0-1.3,0-2,0c-2.4,0.1-3.9,1.2-4.9,3.3c-0.8,1.6-1.5,3.2-1.7,4.9c-0.8,5.3-0.4,10.7-0.1,16c0.1,2.3,0.3,4.6,0,6.8
				c-0.2,2-1.2,2.3-2.8,1.3c-1.2-0.8-2.3-1.8-3.5-2.5c-4.4-2.3-8.9,0.4-9,5.3c0,2.8,1.2,5.2,2.7,7.5c2.8,4.4,6,8.5,9.1,12.8
				c1.9,2.5,3.6,5.2,4.2,8.3c0.5,2.2-0.4,3.7-2.5,4.4c-0.7,0.2-1.5,0.5-2.3,0.5c-2.1,0-4.2,0.3-6.3,0.5c-3.1,0.3-6.3,1.2-6.2,5.5
				c0,0.1-0.1,0.2-0.2,0.3c0,0.1,0,0.2,0,0.4c0.4,0.9,0.1,1.9,0.2,2.8c-0.2,3.5,1.4,5.9,4.3,7.7c3.7,2.3,7.9,3.4,11.9,5.2
				c3.8,1.7,7.3,3.7,9,7.8c2,4.7,1,8-3.6,10.3c-1.4,0.7-3,1.4-4.3,2.3c-2.8,2.1-3.9,4.8-3.4,8.4c0.5,3.2,2.5,5.3,4.9,7.1
				c3.7,2.9,8,4.6,12.4,6.2c8.8,3.1,17.8,5,27,6.6c1.2,0.2,2,0.6,2.4,1.8c2.1,6.2,5.9,11.3,11,15.3c3.1,2.4,6.1,5.1,10.2,5.9
				c0.5,0,1,0,1.4,0c0.3-0.2,0.7-0.2,1-0.4c1.4-0.4,2.1-1.3,2.3-2.7c0.2-1.5-0.4-2.6-1.8-3.2c-2.9-1.5-6-2.7-8.8-4.4
				c-4.3-2.7-8-6-10.3-10.5c-0.6-1.2-0.5-2,0.7-2.9c6.1-4.3,11.9-9,16.5-14.9c5.4-7.1,11.2-14,12.4-23.4c0-0.2,0-0.5,0-0.7
				c-0.3-1.2-0.3-2.4,0-3.6C297.6,480.2,297.6,480.1,297.6,479.9z"/>
			<path id="XMLID_70_" class="st5" d="M-25.1,629.7c10.3-7.9,16.3-20.7,27.2-27.6s30.7-1.3,28.7,11.5c2.1-10.1,15.1-14.5,24.9-11.4
				c9.8,3.1,16.9,11.3,23.6,19.2c13.3-20.7,49.3-19.5,61.2,2c5.4-12.2,19.3-20,32.5-18.3c13.2,1.7,24.7,12.7,26.9,25.8
				c-2.1-12.3,4.9-25.6,16.3-30.6c11.4-5.1,26-1.5,33.7,8.3c-4.5-19.9,9-42.2,28.8-47.5s42.5,7.5,48.4,27.1
				c24.6-13.2,59.5-0.6,69.9,25.3c29.6-9.2,64.9,9.8,73.5,39.6c4.3-16,29.6-20.6,39.2-7c-4.7-11.5-0.8-25.9,9.2-33.3
				s24.9-7.2,34.5,0.6c-13.4-12.5,0.5-37.4,18.7-39.9c18.2-2.5,35.1,9,49.3,20.8c-0.4-14.3,18.9-21.4,32.6-17.1s24.5,15,37.9,20.1
				c18,6.9,45.6,10.1,44.4,29.4c16-20.8,55-14.5,63.6,10.3c4.3-17.2,33.1-20.1,40.7-4.1c-5-20.7,23-40.3,40.8-28.5
				c9-21.8,33.2-36.4,56.7-34.1c23.5,2.2,44.5,21,49.3,44.2c25.4-23.1,73.1-10.9,84.3,21.5c4.2-7.3,15.8-8.7,21.7-2.7
				c1.5-11.7,20.1-15.9,26.5-6.1c3.3-21.5,36.7-29.8,49.7-12.4c7-21.5,34.3-31.4,56.1-25.1c21.7,6.3,38,24.7,49.1,44.4
				c23.6-8.2,52.2,1.8,65.7,22.9c-0.6-15.5,20-27.1,32.9-18.6c27.8-12.6,64.9,9.9,66.7,40.4c0.8,13.7,4.9,27.3,4.8,41
				c0,2.6-2.1,6.4-4.2,4.7h-1460L-25.1,629.7z"/>
		</g>
		<path id="XMLID_456_" class="st6" d="M1419.2,678.6V657l51.3-0.2l0.4-7.3c0,0-8.4,0-23.2-0.1c-7.4,0-16.3,0-26.6-0.1
			c-0.6,0-1.3,0-1.9,0v-20.7c0,0,0.1-0.7,0.2-1.8c0.1-1.2,0.2-2.8,0.4-4.8c0.1-1,0.1-2.1,0.2-3.2c0-0.5,0-1,0.1-1.5l50.5-0.2
			l0.4-7.3c0,0-8.4,0-23.2-0.1c-7.4,0-16.3,0-26.6-0.1c-0.3,0-0.6,0-1,0c0-0.7,0-1.4,0-2.1c0-1.3,0-2.6,0-3.9l0-0.2l0-0.2l0-0.1
			c0-0.2,0-0.3,0-0.5c0-0.2-0.1-0.4-0.1-0.6l-0.1-0.5c-0.2-0.7-0.6-1.3-1-1.9c-0.4-0.5-1-1-1.5-1.3c-0.6-0.3-1.2-0.5-1.8-0.6
			c-0.6-0.1-1.2-0.1-1.8,0c-0.2,0-0.6,0.1-0.9,0.2c-0.3,0.1-0.5,0.2-0.8,0.3c-0.5,0.2-0.9,0.5-1.3,0.9c-0.2,0.2-0.4,0.3-0.5,0.5
			c-0.1,0.1-0.2,0.2-0.2,0.3c-0.1,0.1-0.1,0.2-0.2,0.3c-0.5,0.7-0.8,1.4-0.9,2c-0.2,0.6-0.2,1.1-0.2,1.4c0,0.3,0,0.5,0,0.5v5.7
			c-6.9,0-14.3,0-22,0c-25.3,0-54.8,0-86.4,0.1c-15.8,0-32.1,0.1-48.7,0.1c-16.6,0.1-33.5,0.1-50.3,0.2c-16.9,0.1-33.7,0.2-50.3,0.2
			c-16.6,0.1-32.9,0.2-48.7,0.3c-31.6,0.2-61.1,0.5-86.4,0.7c-5.1,0-10,0.1-14.7,0.1c0-0.8,0-1.6,0-2.5c0-0.3,0-0.7,0-1l0-0.3l0-0.1
			l0-0.2c0-0.2,0-0.3,0-0.5c0-0.2-0.1-0.4-0.1-0.6c-0.1-0.2-0.1-0.4-0.2-0.6c-0.1-0.2-0.1-0.4-0.2-0.5c-0.1-0.2-0.2-0.3-0.3-0.5
			c-0.7-1.3-2-2.1-3.2-2.5c-0.6-0.2-1.3-0.3-1.9-0.2l-0.2,0l-0.1,0l0,0l-0.1,0l-0.1,0c-0.1,0-0.3,0-0.4,0.1
			c-0.3,0.1-0.6,0.2-0.9,0.3c-1.1,0.4-2,1.1-2.5,1.8c-0.6,0.7-0.9,1.5-1.1,2.1c-0.1,0.3-0.1,0.6-0.2,0.8c0,0.2,0,0.4,0,0.6
			c0,0.3,0,0.5,0,0.5v3.3c-2.8,0-5.6,0.1-8.3,0.1c-10.3,0.1-19.2,0.2-26.6,0.3c-9.7,0.1-16.7,0.2-20.3,0.2c-3.9,0-9.1,0-15.6-0.1
			c-7.4,0-16.3,0-26.6-0.1c-0.3,0-0.6,0-1,0c0-0.7,0-1.4,0-2.1c0-1.3,0-2.6,0-3.9l0-0.2l0-0.2l0-0.1c0-0.2,0-0.3,0-0.5
			c0-0.2-0.1-0.4-0.1-0.6l-0.1-0.5c-0.2-0.7-0.6-1.3-1-1.9c-0.4-0.5-1-1-1.5-1.3c-0.6-0.3-1.2-0.5-1.8-0.6c-0.6-0.1-1.2-0.1-1.8,0
			c-0.2,0-0.6,0.1-0.9,0.2c-0.3,0.1-0.5,0.2-0.8,0.3c-0.5,0.2-0.9,0.5-1.3,0.9c-0.2,0.2-0.4,0.3-0.5,0.5c-0.1,0.1-0.2,0.2-0.2,0.3
			c-0.1,0.1-0.1,0.2-0.2,0.3c-0.5,0.7-0.8,1.4-0.9,2c-0.2,0.6-0.2,1.1-0.2,1.4c0,0.3,0,0.5,0,0.5v5.7c-6.9,0-14.3,0-22,0
			c-25.3,0-54.8,0-86.4,0.1c-15.8,0-32.1,0.1-48.7,0.1c-16.6,0.1-33.5,0.1-50.3,0.2c-16.9,0.1-33.7,0.2-50.3,0.2
			c-16.6,0.1-32.9,0.2-48.7,0.3c-31.6,0.2-61.1,0.5-86.4,0.7c-5.1,0-10,0.1-14.7,0.1c0-0.8,0-1.6,0-2.5c0-0.3,0-0.7,0-1l0-0.3l0-0.1
			l0-0.2c0-0.2,0-0.3,0-0.5c0-0.2-0.1-0.4-0.1-0.6c-0.1-0.2-0.1-0.4-0.2-0.6c-0.1-0.2-0.1-0.4-0.2-0.5c-0.1-0.2-0.2-0.3-0.3-0.5
			c-0.7-1.3-2-2.1-3.2-2.5c-0.6-0.2-1.3-0.3-1.9-0.2l-0.2,0l-0.1,0l0,0l-0.1,0l-0.1,0c-0.1,0-0.3,0-0.4,0.1
			c-0.3,0.1-0.6,0.2-0.9,0.3c-1.1,0.4-2,1.1-2.5,1.8c-0.6,0.7-0.9,1.5-1.1,2.1c-0.1,0.3-0.1,0.6-0.2,0.8c0,0.2,0,0.4,0,0.6
			c0,0.3,0,0.5,0,0.5v3.3c-2.8,0-5.6,0.1-8.3,0.1c-10.3,0.1-19.2,0.2-26.6,0.3c-7,0.1-12.6,0.2-16.5,0.2c-0.2,0-0.5,0-0.7,0
			c-7.4,0-16.3,0-26.6-0.1c-0.3,0-0.6,0-1,0c0-0.7,0-1.4,0-2.1c0-1.3,0-2.6,0-3.9l0-0.2l0-0.2l0-0.1c0-0.2,0-0.3,0-0.5
			c0-0.2-0.1-0.4-0.1-0.6l-0.1-0.5c-0.2-0.7-0.6-1.3-1-1.9c-0.4-0.5-1-1-1.5-1.3c-0.6-0.3-1.2-0.5-1.8-0.6c-0.6-0.1-1.2-0.1-1.8,0
			c-0.2,0-0.6,0.1-0.9,0.2c-0.3,0.1-0.5,0.2-0.8,0.3c-0.5,0.2-0.9,0.5-1.3,0.9c-0.2,0.2-0.4,0.3-0.5,0.5c-0.1,0.1-0.2,0.2-0.2,0.3
			c-0.1,0.1-0.1,0.2-0.2,0.3c-0.5,0.7-0.8,1.4-0.9,2c-0.2,0.6-0.2,1.1-0.2,1.4c0,0.3,0,0.5,0,0.5v5.7c-6.9,0-14.3,0-22,0
			c-25.3,0-54.8,0-86.4,0.1c-15.8,0-32.1,0.1-48.7,0.1c-16.6,0.1-33.5,0.1-50.3,0.2c-16.9,0.1-33.7,0.2-50.3,0.2
			c-16.6,0.1-32.9,0.2-48.7,0.3c-31.6,0.2-61.1,0.5-86.4,0.7c-5.1,0-10,0.1-14.7,0.1c0-0.8,0-1.6,0-2.5c0-0.3,0-0.7,0-1l0-0.3l0-0.1
			l0-0.2c0-0.2,0-0.3,0-0.5c0-0.2-0.1-0.4-0.1-0.6c-0.1-0.2-0.1-0.4-0.2-0.6c-0.1-0.2-0.1-0.4-0.2-0.5c-0.1-0.2-0.2-0.3-0.3-0.5
			c-0.7-1.3-2-2.1-3.2-2.5c-0.6-0.2-1.3-0.3-1.9-0.2l-0.2,0l-0.1,0l0,0l-0.1,0l-0.1,0c-0.1,0-0.3,0-0.4,0.1
			c-0.3,0.1-0.6,0.2-0.9,0.3c-1.1,0.4-2,1.1-2.5,1.8c-0.6,0.7-0.9,1.5-1.1,2.1c-0.1,0.3-0.1,0.6-0.2,0.8c0,0.2,0,0.4,0,0.6
			c0,0.3,0,0.5,0,0.5v3.3c-2.8,0-5.6,0.1-8.3,0.1c-10.3,0.1-19.2,0.2-26.6,0.3c-14.8,0.2-23.2,0.3-23.2,0.3l-0.4,7.3l58.5-0.2v32
			c-2.8,0-5.6,0.1-8.3,0.1c-10.3,0.1-19.2,0.2-26.6,0.3c-14.8,0.2-23.2,0.3-23.2,0.3l-0.4,7.3l58.5-0.2v20.3l-49.7,0.2v225.7
			l49.6,0.5v93.6l1706.5,15.2v-92.8v-75.4V677.8L1419.2,678.6z M1408.6,678.7L1000,680v-21.3l408.6-1.7V678.7z M471,637.5
			c0,0,0.1-0.7,0.2-1.9c0.1-1.2,0.2-3,0.4-5.1c0.1-1,0.1-2.2,0.2-3.4c0-1.2,0.1-2.5,0.1-3.8c0-0.7,0-1.4,0-2.1l407.7-1.7v32
			c-6.9,0-14.3,0-22,0c-25.3,0-54.8,0-86.4,0.1c-15.8,0-32.1,0.1-48.7,0.1c-16.6,0.1-33.5,0.1-50.3,0.2c-16.9,0.1-33.7,0.2-50.3,0.2
			c-16.6,0.1-32.9,0.2-48.7,0.3c-31.6,0.2-61.1,0.5-86.4,0.7c-5.4,0.1-10.6,0.1-15.7,0.1V637.5z M981.2,651.1
			c-10.3,0.1-19.2,0.2-26.6,0.3c-9.7,0.1-16.7,0.2-20.3,0.2c-3.9,0-9.1,0-15.5-0.1c-7.4,0-16.3,0-26.6-0.1c-0.6,0-1.3,0-1.9,0v-20.7
			c0,0,0.1-0.7,0.2-1.8c0.1-1.2,0.2-2.8,0.4-4.8c0.1-1,0.1-2.1,0.2-3.2c0-0.5,0-1,0.1-1.5l50.5-0.2l0,0l48-0.2v32
			C986.6,651.1,983.8,651.1,981.2,651.1z M379.9,633c0,0,0.1-0.7,0.2-1.8c0.1-1.2,0.2-2.8,0.4-4.8c0.1-1,0.1-2.1,0.2-3.2
			c0-0.5,0-1,0.1-1.5l50.5-0.2l0-0.1l29.3-0.1v32c-2.8,0-5.6,0.1-8.3,0.1c-10.3,0.1-19.2,0.2-26.6,0.3c-7,0.1-12.6,0.2-16.6,0.2
			c-0.2,0-0.4,0-0.7,0c-7.4,0-16.3,0-26.6-0.1c-0.6,0-1.3,0-1.9,0V633z M431.1,661.2l0-0.1l29.3-0.1v20.8l-80.6,0.3v-20.6
			L431.1,661.2z M471,660.9l408.6-1.7v21.2L471,681.7V660.9z M890.2,659.2l51.3-0.2l0,0l48-0.2V680l-99.2,0.3V659.2z M1386.5,649.3
			c-25.3,0-54.8,0-86.4,0.1c-15.8,0-32.1,0.1-48.7,0.1c-16.6,0.1-33.5,0.1-50.3,0.2c-16.9,0.1-33.7,0.2-50.3,0.2
			c-16.6,0.1-32.9,0.2-48.7,0.3c-31.6,0.2-61.1,0.5-86.4,0.7c-5.4,0.1-10.6,0.1-15.7,0.1v-15.6c0,0,0.1-0.7,0.2-1.9
			c0.1-1.2,0.2-3,0.4-5.1c0.1-1,0.1-2.2,0.2-3.4c0-1.2,0.1-2.5,0.1-3.8c0-0.7,0-1.4,0-2.1l407.7-1.7v32
			C1401.7,649.3,1394.3,649.3,1386.5,649.3z M-39.3,639.7c0,0,0.1-0.7,0.2-1.9c0.1-1.2,0.2-3,0.4-5.1c0.1-1,0.1-2.2,0.2-3.4
			c0-1.2,0.1-2.5,0.1-3.8c0-0.7,0-1.4,0-2.1l407.7-1.7v32c-6.9,0-14.3,0-22,0c-25.3,0-54.8,0-86.4,0.1c-15.8,0-32.1,0.1-48.7,0.1
			c-16.6,0.1-33.5,0.1-50.3,0.2c-16.9,0.1-33.7,0.2-50.3,0.2c-16.6,0.1-32.9,0.2-48.7,0.3c-31.6,0.2-61.1,0.5-86.4,0.7
			c-5.4,0.1-10.6,0.1-15.7,0.1V639.7z M-39.3,663.1l408.6-1.7v20.6l-408.6,1.3V663.1z"/>
		<g id="XMLID_339_">
			<rect id="XMLID_96_" x="-39.3" y="672.4" class="st7" width="1600.3" height="60.4"/>
			<rect id="XMLID_105_" x="-39.3" y="732.8" class="st8" width="1558.3" height="16.8"/>
		</g>
		<path id="XMLID_34_" class="st7" d="M634.5,846c0,0-81.4,16.5-181.9,16.5S270.7,846,270.7,846s81.4-16.5,181.9-16.5
			S634.5,846,634.5,846z"/>
		<path id="XMLID_51_" class="st7" d="M201.5,848.1c0,0-101.4,20.6-226.4,20.6s-226.4-20.6-226.4-20.6S-150,827.5-25,827.5
			S201.5,848.1,201.5,848.1z"/>
		<path id="XMLID_38_" class="st7" d="M1015.5,857.3c0,0-68.3,13.6-152.6,13.6s-152.6-13.6-152.6-13.6s68.3-13.6,152.6-13.6
			S1015.5,857.3,1015.5,857.3z"/>
		<path id="XMLID_49_" class="st7" d="M870.6,837.5c0,0-68.3,13.6-152.6,13.6s-152.6-13.6-152.6-13.6s68.3-13.6,152.6-13.6
			S870.6,837.5,870.6,837.5z"/>
		<path id="XMLID_47_" class="st7" d="M1323.6,840.3c0,0-63.1,8.6-140.8,8.6s-140.8-8.6-140.8-8.6s63.1-8.6,140.8-8.6
			S1323.6,840.3,1323.6,840.3z"/>
		<g id="XMLID_342_">
			<g id="XMLID_4_">
				<path id="XMLID_80_" class="st9" d="M91.4,735.9L41,685l-105.4-0.5l-46.7,46.2l-411.8-2.1v70.1l66.8,0.3c5.3,0,9.7-4.3,9.7-9.6
					l0-5.6l26.8,0.1c0,5.3,4.3,9.7,9.6,9.7l87.8,0.5c3.7,0,6.6-2.9,6.7-6.6l79.1,0.4c0,3.7,2.9,6.6,6.6,6.7l173,0.9l165.4,0.9
					l26.8-26.5l33.1,0.7l74.2-33.4L91.4,735.9z"/>
				<path id="XMLID_306_" class="st10" d="M224,190.2l-611.6-3.7c-25.7-0.1-46.7,20.6-46.8,46.3l-2.6,508.3l353.9,1.8l14-27
					c7.1-13.6,24.4-22.6,43.7-22.5l44.2,0.2c19,0.1,36.1,8.9,43.2,22.4l14.7,27.6l176.4,1.5l2.7-522.9
					C255.9,204.7,241.6,190.3,224,190.2z"/>
				<path id="XMLID_300_" class="st11" d="M207.7,202.4l-579.8-3.6c-24.6-0.1-44.6,19.7-44.7,44.3l-2.5,485.8l342.5,1.8l7.7-14.7
					c7.1-13.6,24.4-22.6,43.7-22.5l44.2,0.2c19,0.1,36.1,8.9,43.2,22.4l8.2,15.3l165.4,1.4l2.6-499.7
					C238.1,216.2,224.5,202.5,207.7,202.4z"/>
				
					<rect id="XMLID_297_" x="177.3" y="207.4" transform="matrix(1 5.171490e-003 -5.171490e-003 1 1.1014 -1.0085)" class="st12" width="36.5" height="10.1"/>
				<g id="XMLID_113_">
					<path id="XMLID_292_" class="st13" d="M68,787.8c3.1,39.3-26.2,71-65.5,70.8s-73.7-32.2-76.9-71.6s26.2-71,65.5-70.8
						S64.8,748.5,68,787.8z"/>
					<g id="XMLID_133_">
						<g id="XMLID_366_">
							<g id="XMLID_378_">
								<path id="XMLID_379_" class="st14" d="M-8.9,716.2c-10.7-0.1-20.6,2.2-29.3,6.4c10.4,30.6,40,53.4,73.1,53.6
									c10.7,0.1,20.6-2.2,29.3-6.4C53.8,739.2,24.2,716.4-8.9,716.2z"/>
							</g>
						</g>
					</g>
					<g id="XMLID_128_">
						<path id="XMLID_130_" class="st15" d="M1.5,846c-32.3-0.2-60.7-26.6-63.3-58.9c-2.6-32.3,21.6-58.5,53.9-58.3
							s60.7,26.6,63.3,58.9C58,820.1,33.8,846.2,1.5,846z M-7.6,732.4c-30.3-0.2-53,24.4-50.6,54.7c2.4,30.3,29.1,55.1,59.4,55.3
							s53-24.4,50.6-54.7C49.4,757.4,22.7,732.6-7.6,732.4z"/>
					</g>
					<path id="XMLID_126_" class="st15" d="M42.1,787.7c2,25-16.6,45.2-41.7,45.1s-46.9-20.5-48.9-45.5c-2-25,16.6-45.2,41.7-45.1
						S40.1,762.6,42.1,787.7z"/>
					<path id="XMLID_120_" class="st16" d="M27.3,787.6c1.4,16.9-11.2,30.5-28.1,30.4s-31.6-13.8-33-30.7
						c-1.4-16.9,11.2-30.5,28.1-30.4S26,770.7,27.3,787.6z"/>
					<path id="XMLID_115_" class="st15" d="M24.8,787.6c1.2,15.5-10.3,28-25.8,27.9c-15.5-0.1-29-12.7-30.3-28.2s10.3-28,25.8-27.9
						C10,759.5,23.6,772.1,24.8,787.6z"/>
					
						<radialGradient id="XMLID_78_" cx="75.9181" cy="776.4653" r="50.4198" gradientTransform="matrix(1 5.171490e-003 8.007304e-002 1.0004 -149.04 -5.2189)" gradientUnits="userSpaceOnUse">
						<stop  offset="0" style="stop-color:#B3E0F7"/>
						<stop  offset="0.6235" style="stop-color:#3D3533"/>
						<stop  offset="1" style="stop-color:#608888"/>
					</radialGradient>
					<path id="XMLID_114_" class="st17" d="M22.3,787.6c1.1,14.1-9.4,25.5-23.5,25.4c-14.1-0.1-26.4-11.6-27.6-25.7
						c-1.1-14.1,9.4-25.5,23.5-25.4C8.9,762,21.2,773.5,22.3,787.6z"/>
				</g>
				<g id="XMLID_111_">
					<polygon id="XMLID_91_" class="st18" points="-381.8,248.5 -382.1,313.4 -268.5,314 -204.3,250.4 					"/>
					<polygon id="XMLID_90_" class="st18" points="-246.2,314.1 -180.4,249 -122.1,249.3 -186.1,312.7 					"/>
					<polygon id="XMLID_89_" class="st18" points="-165,314.5 -99.3,249.4 -40.9,249.7 -104.9,313.1 					"/>
					<polygon id="XMLID_88_" class="st18" points="-83.9,315 -18.1,249.9 18.9,250.1 -45.1,313.4 					"/>
					<polygon id="XMLID_86_" class="st18" points="-25,315.3 40.8,250.2 62.4,250.3 -1.6,313.6 					"/>
				</g>
				<polygon id="XMLID_81_" class="st19" points="212.2,521.3 -383.2,517.7 -382.3,343.6 213.1,347.2 				"/>
			</g>
			<g id="XMLID_1_">
				<g id="XMLID_488_">
					<linearGradient id="XMLID_87_" gradientUnits="userSpaceOnUse" x1="501.8391" y1="424.5612" x2="490.0851" y2="477.1089">
						<stop  offset="0" style="stop-color:#FFC7AC"/>
						<stop  offset="0.2435" style="stop-color:#FFC3AA"/>
						<stop  offset="0.4649" style="stop-color:#FFB8A3"/>
						<stop  offset="0.6777" style="stop-color:#FEA699"/>
						<stop  offset="0.8839" style="stop-color:#FD8C8A"/>
						<stop  offset="1" style="stop-color:#FD7A7F"/>
					</linearGradient>
					<path id="XMLID_368_" class="st20" d="M488.9,445c-1-3.1-2.2-6.3-1.8-9.6c0.7-5.7,6.1-9.5,11-12.5c1.1-0.7,2.2-1.3,3.5-1.2
						c1.7,0.1,2.9,1.6,3.4,3.2s0.3,3.3,0.2,4.9c-0.2,4,0.3,8,1.3,11.8c0.9,3.4,2.3,6.9,1.4,10.3c-0.9,3.7-4.3,6.4-5.6,10
						c-1.2,3.5,2.2,13.9-0.1,16c-3.2,2.9-9.2-1.8-10.5-4.7c-1.3-3,0.1-7.6,0.1-10.7C491.6,456.7,490.6,450.7,488.9,445z"/>
					<g id="XMLID_3_">
						
							<rect id="XMLID_500_" x="714.2" y="638.3" transform="matrix(0.7873 -0.6165 0.6165 0.7873 -269.5332 633.0344)" class="st21" width="137.1" height="137.9"/>
						
							<rect id="XMLID_491_" x="745.9" y="613.5" transform="matrix(0.7873 -0.6165 0.6165 0.7873 -247.5152 647.2805)" class="st22" width="137.1" height="137.9"/>
					</g>
					<g id="XMLID_483_">
						
							<rect id="XMLID_502_" x="546.7" y="466.4" transform="matrix(0.7873 -0.6165 0.6165 0.7873 -186.1603 466.5517)" class="st21" width="73" height="73.3"/>
						
							<rect id="XMLID_486_" x="563.5" y="453.3" transform="matrix(0.7873 -0.6165 0.6165 0.7873 -174.4472 474.1303)" class="st22" width="73" height="73.3"/>
					</g>
					<g id="XMLID_487_">
						
							<rect id="XMLID_519_" x="497.6" y="399.7" transform="matrix(0.7873 -0.6165 0.6165 0.7873 -157.4815 426.2541)" class="st21" width="83" height="83.5"/>
						
							<rect id="XMLID_492_" x="516.8" y="384.7" transform="matrix(0.7873 -0.6165 0.6165 0.7873 -144.1523 434.8783)" class="st22" width="83" height="83.5"/>
					</g>
					<g id="XMLID_420_">
						<polygon id="XMLID_484_" class="st21" points="767.8,631.4 684.3,696.8 572.8,553.7 656.3,488.3 						"/>
						<polygon id="XMLID_446_" class="st22" points="792.3,612.3 708.8,677.6 597.3,534.5 680.8,469.1 						"/>
					</g>
					<polygon id="XMLID_472_" class="st23" points="792.3,612.3 687.2,696.3 685.5,694.1 					"/>
					<polygon id="XMLID_507_" class="st23" points="679.6,471 574.5,555.1 572.8,552.9 					"/>
					<circle id="XMLID_405_" class="st24" cx="699" cy="794.6" r="39.6"/>
					<g id="XMLID_440_">
						<polygon id="XMLID_400_" class="st24" points="708.9,778.9 698.2,778.9 684.2,693 686.4,692.7 700,776.7 706.3,776.7 
							697.7,723.4 699.8,723 						"/>
					</g>
					<g id="XMLID_441_">
						<rect id="XMLID_399_" x="740.1" y="801.7" class="st24" width="23.5" height="2.1"/>
					</g>
					<g id="XMLID_432_">
						<path id="XMLID_434_" class="st23" d="M603.6,671.3c-8.5,0-17-3.7-22.7-10.8l-38.2-47c-10-12.3-8.5-30.2,3.5-40.6l20.6-17.9
							l5,5.7l-20.6,17.9c-8.9,7.7-10,20.9-2.6,30l38.2,47c7.3,8.9,20.3,10.6,29.6,3.9l26.1-19l4.5,6.2l-26.1,19
							C615.6,669.5,609.6,671.3,603.6,671.3z"/>
					</g>
					<polygon id="XMLID_431_" class="st23" points="776.8,805.1 766.4,813.1 561.6,550.7 572,542.7 					"/>
					<path id="XMLID_430_" class="st25" d="M521.1,828.4c6.9,0.1,13.9,0.6,20.7,1.4c4.2-3.8,11.6-2.3,14.1,2.7
						c0.3,0.7,0.6,1.4,0.5,2.1c-0.2,1.1-1.1,1.9-2,2.5c-13.7,9.8-30.5,15.3-47.3,15.3c-1.2,0-2.7-0.2-3.2-1.3
						c-0.3-0.6-0.1-1.3,0-1.9c0.7-3.5,1.4-7.1,2-10.6c0.2-1.2,0.5-2.4,1.1-3.5c0.6-0.9,1.4-1.5,2.2-2.1
						C512.4,830.7,517.4,829.3,521.1,828.4z"/>
					<path id="XMLID_408_" class="st25" d="M351.9,826c1.9,3.1,3.3,6.6,4.1,10.1c6.1,0.7,11.3,7.4,10,13.4h-18.7
						c-2.2-0.6-5.4-1.9-7.1-3.5c-6.8-6.2-15.5-9.3-23.3-14.3c4.5-4.2,11.4-9.7,17.4-11.2c1.8-0.4,3.6-0.8,5.5-0.7
						C344.4,819.9,349.5,822.1,351.9,826z"/>
					<path id="XMLID_373_" class="st26" d="M383.9,636.1c0.9,37.1-0.3,74.2-3.7,111.1c-18.6,14.9-35.1,33.7-49.2,52.8
						c-7.3,9.8-14.1,20.7-15.1,32.8c13.1-3.1,27.3-4.5,40.7-4.2c-0.2-3.7-0.6-8.3-0.8-11.9c19.7-11.8,38.2-24.9,55.4-40.1
						c2.9-2.6,5.8-5.2,7.9-8.4c1.6-2.4,2.7-5.1,3.7-7.7c7-18.4,9.5-38.1,11.9-57.6c0.7-5.7,1.4-11.5,0.7-17.2
						c-0.7-5.8-2.8-11.3-5.6-16.5c-8.7-16-24-28.1-41.3-33.8C386.9,634.9,383.8,634.3,383.9,636.1z"/>
					<path id="XMLID_372_" class="st27" d="M503.5,856.4c5.4-2.8,9.6-7.4,12.9-12.5s6.3-11.2,8.6-16.8c-1.4-5.8-2-11.8-2.7-17.8
						c-2.8-24.2-7.7-48.2-14.5-71.6c-1.8-6-3.6-11.9-5.8-17.7c-14.1-37.7-40.2-71-48-110.4c-27.8-7.6-58.8-15.2-86.4-7.4
						c9.9,33.4,24.5,66.2,44.8,94.5c16.3,22.8,35.7,43.3,50.2,67.3c5.4,8.9,10.1,18.2,14.6,27.6C487,812.3,495.1,835,503.5,856.4z"
						/>
					<linearGradient id="XMLID_92_" gradientUnits="userSpaceOnUse" x1="516.7346" y1="577.87" x2="559.9229" y2="577.87">
						<stop  offset="0" style="stop-color:#FD7A7F"/>
						<stop  offset="0.1161" style="stop-color:#FD8C8A"/>
						<stop  offset="0.3223" style="stop-color:#FEA699"/>
						<stop  offset="0.5351" style="stop-color:#FFB8A3"/>
						<stop  offset="0.7565" style="stop-color:#FFC3AA"/>
						<stop  offset="1" style="stop-color:#FFC7AC"/>
					</linearGradient>
					<path id="XMLID_369_" class="st28" d="M535.4,569.1c2.7-1,4.9-2.9,7.4-4.1c3.4-1.6,7.4-1.7,10.9-0.4c-0.4,0.7-0.9,1.2-1.6,1.6
						c2.5,2.2,4.8,4.8,6.7,7.5c0.7,1,1.3,2.1,1,3.2c-0.5,2.1-3.3,2.3-5.5,2c0.2,1.2,0.5,2.4,0.1,3.5c-0.4,1.1-1.8,2-2.8,1.4
						c0.7,1.9-1.4,4.3-3.4,3.8c0.7,2-1.4,4.2-3.5,4.3c-2.2,0.1-4.1-1.3-5.5-3c-1.4-1.6-2.5-3.6-4-5.1c-4.6-4.6-12-4.5-18.5-4
						c-0.3,0,2.2-10.5,4.9-11.5c1.5-0.5,4.2,0.8,5.6,1.1C530,569.9,532.8,570,535.4,569.1z"/>
					<path id="XMLID_350_" class="st29" d="M439.1,454.7c7.8,17.1,20.4,32,36,42.6c4.8-10.9,9.2-22.5,13.6-33.5
						c4.5,4.4,11.4,6.2,17.7,6.8c-1.4,15.6-3.7,32.1-9.5,46.7c-5.8,14.6-16.7,27.9-31.6,32.9c-1.5,0.5-3.1,0.9-4.7,0.6
						c-1.7-0.4-3-1.6-4.2-2.8C432.2,523.6,424.5,485.7,439.1,454.7z"/>
					<path id="XMLID_485_" class="st26" d="M424,624.7c-11.4,1.4-23.4,0.2-33.8-4.7c-7.2-3.4-13.5-8.6-20.8-11.9
						c24.1,0.4,48,2.9,72,5.3c2.9,0.3,10.7-0.4,11.9,2.7c-3.4,2.8-10,4.1-14.3,5.3C434.4,622.9,429,624.7,424,624.7z"/>
					<path id="XMLID_84_" class="st30" d="M462.1,616.6c-33.4,3-68.9,1.3-101.8-5.4c-2.8-63.9,11.1-128.4,40-185.5
						c6.4-3.8,12.9-3.8,19.7-0.8c2.8,1.3,5.4,3.1,7.9,5c3.8,2.8,7.7,5.7,10.3,9.6c14.6,22.7,8.2,53.6,11.4,80.4
						C453.4,551.7,453,585.9,462.1,616.6z"/>
					<path id="XMLID_445_" class="st31" d="M439.2,439.3l-4.9-2l-1.9,2l-3.5,1.8c-7.1-0.8-14.1-3.1-20.2-6.9
						c-5.1-3.1-11.4-4.9-8,3.1c2.7,6.3,7.6,12.2,11.5,17.8c1.9,2.7,3.8,5.5,6.5,7.5c4.9-7.4,10.2-14.5,15.9-21.3l8.2,7.6
						L439.2,439.3z"/>
					<path id="XMLID_407_" class="st31" d="M410.9,557.1c-4-0.5-7.4-3-10.5-5.7c-6.5-5.6-12.4-11.7-17.7-18.4
						c11,20.3,33.5,33.8,56.5,33.9c-14.9-25.7-25.8-53.8-32.2-82.8c-0.8-3.6-1.6-7.4-4.2-10c-7.4-7.5-11.1,1.9-11.5,7.9
						c-0.5,8.9,0,17.8,1.3,26.5c1.4,8.8,3.6,17.4,6.8,25.7C400.7,537.4,407.3,556.6,410.9,557.1z"/>
					<path id="XMLID_409_" class="st31" d="M421.6,477.2c6.4,7.4,12.7,14.7,18.5,22.6c1.3,1.8,2.6,3.5,3.5,5.5
						c0.8,1.6,1.3,3.3,1.8,5c1.7,5.4,3.3,10.7,5,16.1c-5.2-7.2-10.4-14.4-15.1-21.9c-2.7-4.4-5.3-8.8-8-13.2
						c-3.3-5.1-6.9-9.9-10.1-15c-0.4-0.6-3.6-5.3-1.8-5.6C416.6,470.6,420.7,476.2,421.6,477.2z"/>
					<g id="XMLID_418_">
						<path id="XMLID_415_" class="st29" d="M422.8,415.3c-0.4-0.8-0.8-1.6-1.3-2.5c6,1.3,11.1,5.5,14.5,10.5
							c3.4,5.1,5.4,11,6.9,16.9c0.6,2.4,1.2,5,0.5,7.4c-3-3.4-6.5-6.3-10.3-8.7c-4.9,5.8-9.4,12.5-12.3,19.4
							c-10.6-7.9-19.3-18.4-25-30.4c0.8-4.7,2-10.6,3.3-15.2c0.1-0.4,0.2-0.9,0.6-1.2c0.4-0.4,1-0.4,1.6-0.5
							c4.6-0.2,9.3,0.1,13.9,0.8C417.4,412.3,421.1,413.9,422.8,415.3z"/>
						<path id="XMLID_412_" class="st32" d="M385.5,381.9c0.4,8.5,2.9,17,7.3,24.3c2.8-0.5,6.2-1.1,9-1.5
							C399.4,395.3,393.7,387,385.5,381.9z"/>
						
							<linearGradient id="XMLID_93_" gradientUnits="userSpaceOnUse" x1="-3043.9348" y1="337.5259" x2="-3044.3794" y2="363.7513" gradientTransform="matrix(-0.9386 0.3451 0.3451 0.9386 -2560.8 1139.2324)">
							<stop  offset="0" style="stop-color:#FD7A7F"/>
							<stop  offset="0.5081" style="stop-color:#FE9F95"/>
							<stop  offset="1" style="stop-color:#FFC7AC"/>
						</linearGradient>
						<path id="XMLID_411_" class="st33" d="M430.5,413.2c4.2,3.4,3.8,6.7,3.8,10.3c0,3.4-0.4,6.8-1.2,10.1
							c-0.4,1.8-0.6,3.6-0.7,5.7c-3.2-1.5-12-5.9-19.6-9.9c-7.1-3.7-12.3-10.2-14.4-18c-1.9-7.2-4.1-14.2-7-21.2
							C404.7,396.3,419,404.2,430.5,413.2z"/>
						
							<linearGradient id="XMLID_94_" gradientUnits="userSpaceOnUse" x1="-3065.0811" y1="279.2474" x2="-3064.1919" y2="348.5891" gradientTransform="matrix(-0.9386 0.3451 0.3451 0.9386 -2560.8 1139.2324)">
							<stop  offset="0" style="stop-color:#FD7A7F"/>
							<stop  offset="0.1161" style="stop-color:#FD8C8A"/>
							<stop  offset="0.3223" style="stop-color:#FEA699"/>
							<stop  offset="0.5351" style="stop-color:#FFB8A3"/>
							<stop  offset="0.7565" style="stop-color:#FFC3AA"/>
							<stop  offset="1" style="stop-color:#FFC7AC"/>
						</linearGradient>
						<path id="XMLID_410_" class="st34" d="M392.4,389.5c2.1,6.8,4.2,13.9,9,19.1c7.3,8.1,19.2,10.3,30,9.2
							c5.3-0.6,10.4-2.2,15-4.7c4.7-2.6,8.9-6.1,11.4-10.9c3.1-5.9,3.2-13.1,1.8-19.7c-1.4-6.6-4-12.8-6.1-19.2
							c-2.1-6.4-3.7-13.2-2.7-19.8c-13.9-2.4-29.4-5.3-42.5-0.2c-6.7,2.6-12.5,6.9-18.1,11.3c-3.9,3-8,6.8-8,11.8
							c0,2.1,1.5,4.3,2.2,6.3C386.4,378.5,390.6,383.6,392.4,389.5z"/>
						<path id="XMLID_401_" class="st32" d="M399.4,353.2c-2.7,2.6-3.7,6.6-3.4,10.4s1.7,7.3,3.1,10.8c1.6,4,3.2,8,4.8,12
							c-2.9,1.6-5.4,3-8.5,4.1c-3.6-9.2-8.7-18.1-15-25.7c-0.2-0.3-0.5-0.6-0.5-0.9c-0.1-0.4,0.2-0.8,0.5-1.2
							C384.8,357,392.3,353.6,399.4,353.2z"/>
						<path id="XMLID_376_" class="st32" d="M405.5,364.8c3-5.6,8.3-9.9,14.5-11.6c-0.6-0.6-1.3-1.2-1.9-1.7
							c-1.6-1.5-6.5,3.2-7.6,4.4C408.1,358.5,406.5,361.6,405.5,364.8z"/>
						<path id="XMLID_381_" class="st32" d="M447.5,354.3c-1.8-2.5-4.2-4.7-7.1-5.8c-0.8-0.3-1.6-0.5-2.4-0.9c-1-0.4-2-1-2.9-1.6
							c0.6,0.4,0.9,2.8,1.5,3.5c0.8,1.1,1.6,1.3,2.9,1.8C442.2,352.2,444.9,352.9,447.5,354.3z"/>
						<path id="XMLID_398_" class="st35" d="M472,322.9c0,0,16.2,2.5,11.4,13.2c0,0-18.8-2.8-40.4,4
							C443,340.1,453.4,324.1,472,322.9z"/>
						<path id="XMLID_383_" class="st35" d="M380.5,368.9c-3.7-6-6.5-12.5-8.4-19.3c-2-7.1-2.7-15.3,1.3-21.5
							c2.6-4,6.8-6.7,10.9-9.2c7.9-4.8,15.9-9.7,24.9-11.7c9-2,19.3-0.6,25.9,5.9c5.5,5.4,7.5,13.3,9.3,20.8
							C421.3,343.2,400.3,353.6,380.5,368.9z"/>
						<path id="XMLID_382_" class="st2" d="M372.2,349.6c0,0-0.2-1-0.6-2.7c-0.2-0.9-0.3-1.9-0.5-3.1c-0.1-1.2-0.2-2.6-0.3-4.1
							c0-3,0.4-6.5,2.1-9.8c0.4-0.8,0.9-1.6,1.5-2.4c0.5-0.7,1.2-1.5,1.9-2.1c1.4-1.4,3-2.6,4.6-3.7c1.6-1.1,3.4-2.2,5-3.2
							c1.7-1,3.3-2.1,5-3c3.2-1.9,6.3-3.6,9-4.9c1.4-0.6,2.6-1.2,3.8-1.6c1.1-0.4,2.1-0.8,3-1.1c0.8-0.3,1.5-0.5,2-0.6
							c0.5-0.1,0.7-0.2,0.7-0.2s-0.2,0-0.7,0.1c-0.5,0.1-1.1,0.2-2,0.4c-0.9,0.2-1.9,0.5-3.1,0.9c-1.2,0.4-2.5,0.9-3.9,1.4
							c-2.8,1.2-6,2.7-9.3,4.6c-1.6,0.9-3.3,1.9-5,3c-1.7,1-3.4,2.1-5.1,3.2c-1.7,1.2-3.3,2.4-4.7,3.8c-0.7,0.7-1.4,1.5-2,2.3
							c-0.6,0.8-1.1,1.7-1.5,2.5c-0.9,1.7-1.3,3.6-1.6,5.3c-0.3,1.7-0.3,3.4-0.2,4.9c0.1,3,0.7,5.5,1.1,7.2c0.2,0.9,0.4,1.5,0.6,2
							C372.1,349.3,372.2,349.6,372.2,349.6z"/>
						<path id="XMLID_375_" class="st36" d="M396,358c17.8-3.9,37.6-7.1,55.8-6.1c-0.1-6.1,1.3-12.2,4-17.7c1.6-3.1,3.6-6.1,6.4-8.2
							c2.8-2.2,6.3-3.5,9.8-3.1C457.9,322,416.6,343.3,396,358z"/>
						
							<linearGradient id="XMLID_95_" gradientUnits="userSpaceOnUse" x1="-3024.3542" y1="285.7867" x2="-3028.3547" y2="324.0135" gradientTransform="matrix(-0.9386 0.3451 0.3451 0.9386 -2560.8 1139.2324)">
							<stop  offset="0" style="stop-color:#FD7A7F"/>
							<stop  offset="0.1161" style="stop-color:#FD8C8A"/>
							<stop  offset="0.3223" style="stop-color:#FEA699"/>
							<stop  offset="0.5351" style="stop-color:#FFB8A3"/>
							<stop  offset="0.7565" style="stop-color:#FFC3AA"/>
							<stop  offset="1" style="stop-color:#FFC7AC"/>
						</linearGradient>
						<path id="XMLID_374_" class="st37" d="M386,368.9c-1.7-1.3-3.7-2.4-5.8-2.8c-2.1-0.4-4.5,0.2-6,1.8c-1.9,2.2-1.7,5.5-1,8.4
							c1.3,5.7,3.7,11.5,8.3,15.2s11.6,4.8,16.3,1.2c0.5-0.4,1-0.9,1.2-1.5c0.1-0.5-0.1-1.1-0.2-1.6
							C395.9,381.3,393.2,374.3,386,368.9z"/>
						
							<ellipse id="XMLID_371_" transform="matrix(-0.9386 0.3451 -0.3451 -0.9386 944.7128 574.1902)" class="st38" cx="421.2" cy="371.2" rx="3.6" ry="6.5"/>
						
							<ellipse id="XMLID_353_" transform="matrix(-0.9386 0.3451 -0.3451 -0.9386 987.8649 550.4488)" class="st38" cx="444.9" cy="363.2" rx="2.8" ry="5.9"/>
						<path id="XMLID_293_" class="st39" d="M414.5,391.1c-1.1,0.1-2.3,0.3-3.1,1.1c-1,1-1.1,2.6-0.5,3.8c0.6,1.3,1.6,2.2,2.8,3
							c6.7,4.7,15.7,5.1,23.7,3.3c3.9-0.9,7.9-2.4,10.7-5.4c1.9-2,4.7-6.9,2.4-9.4c-2.2-2.5-7.4,0.9-10,1.5
							C431.9,390.9,423.1,390.2,414.5,391.1z"/>
						<g id="XMLID_82_">
							<path id="XMLID_97_" class="st2" d="M445.1,390.9c-1.3,0.7-2.7,1.1-4.2,1.3c-3.5,0.7-7.2,1.1-10.7,0.6
								c-2.2-0.3-4.4-1.1-6.3-2.3c5.6-0.2,11.1-0.4,16.5-1.6c1.8-0.4,4.9-2.2,7.4-2.4c0,0.3,0,0.7-0.1,1
								C447.4,389,446.3,390.2,445.1,390.9z"/>
							<path id="XMLID_83_" class="st40" d="M446.5,398.2c-2.6,2.1-5.9,3.2-9.2,4c-8,1.9-17,1.5-23.7-3.3c-0.8-0.5-1.5-1.1-2-1.9
								C422.9,393.7,435.4,394.1,446.5,398.2z"/>
						</g>
						
							<linearGradient id="XMLID_99_" gradientUnits="userSpaceOnUse" x1="-3032.0872" y1="306.5269" x2="-3019.9988" y2="306.5269" gradientTransform="matrix(-0.9386 0.3451 0.3451 0.9386 -2560.8 1139.2324)">
							<stop  offset="0" style="stop-color:#F3676A"/>
							<stop  offset="0.4434" style="stop-color:#F56A6E"/>
							<stop  offset="0.8459" style="stop-color:#FA7479"/>
							<stop  offset="1" style="stop-color:#FD7A7F"/>
						</linearGradient>
						<path id="XMLID_2_" class="st41" d="M390.8,382.8c-1.1-1.8-2.4-3.5-3.8-5c-1.3-1.5-3-3-5-3.1c-2.6-0.1-5,2.7-4.3,5.3
							c0.3-1.9,2.6-3.3,4.5-2.6c-1.7,2.4-1.6,5.8-0.1,8.4c1.5,2.6,4.5,4.2,7.4,4c-2-0.7-2.6-3.6-1.1-5.1c0.8,1.1,1.6,2.2,2.5,3.2
							c0.3,0.4,0.7,0.9,1.2,1.1c0.5,0.2,1.2,0,1.4-0.5c0.1-0.2,0-0.4,0-0.6C393.2,386.3,391.7,384.2,390.8,382.8z"/>
						<linearGradient id="XMLID_100_" gradientUnits="userSpaceOnUse" x1="430.9859" y1="372.8341" x2="458.2199" y2="372.8341">
							<stop  offset="0" style="stop-color:#FD7B80;stop-opacity:0"/>
							<stop  offset="1" style="stop-color:#FD7A7F"/>
						</linearGradient>
						<path id="XMLID_396_" class="st42" d="M452,368c1.3-0.1,2.7-0.2,3.9,0.4c2.5,1.2,2.9,5,1.2,7.3s-4.5,3.3-7.3,3.7
							c-4.2,0.6-8.5,0.3-12.4-1.1c-1.3-0.4-2.5-1-3.5-1.9c-2.9-2.6-5.2-10.8,0.8-10.4c2.8,0.2,5.5,1.5,8.2,1.8
							C446,368.2,449,368.2,452,368z"/>
						<path id="XMLID_404_" class="st2" d="M420,370.1c-0.2-0.6-0.5-1.3-1-1.8c-0.3-0.3-0.9-0.2-1,0.3c-0.2,0.7-0.1,1.4,0.1,2
							c0.1,0.5,0.7,0.8,1.2,0.7C419.8,371.2,420.2,370.6,420,370.1z"/>
						<path id="XMLID_406_" class="st2" d="M444.4,362.2c-0.1-0.5-0.5-1-0.8-1.4c-0.2-0.3-0.5-0.4-0.9-0.3c-0.3,0.1-0.5,0.5-0.4,0.8
							c0.2,0.6,0.4,1.2,0.7,1.6c0.2,0.3,0.7,0.3,1,0.1C444.4,362.9,444.5,362.5,444.4,362.2z"/>
					</g>
					<path id="XMLID_85_" class="st29" d="M523,583.5c-17.7,0.4-35.4,0.2-53-0.6c-13.6-0.6-27.9-1.8-39.1-9.5
						c-8.6-5.8-14.5-14.7-19.3-23.8c-12.5-23.4-20.7-49.6-20.7-76.1c0-8.3,9.4-13.8,16.1-11.5c6.6,2.3,10.8,8.7,14.4,14.8
						c13.4,22.4,25.9,46,45.5,63.3c14,12.4,40.1,23.8,58.4,27.6C524.2,572.2,522.9,578.8,523,583.5z"/>
					<path id="XMLID_495_" class="st43" d="M390.7,473.4c0,0,0-0.2,0-0.5c0-0.4,0-0.9,0.2-1.6c0.2-1.3,0.9-3.4,2.6-5.3
						c0.8-1,1.9-2,3.2-2.8c1.3-0.8,2.9-1.5,4.7-1.9c1.8-0.3,3.8-0.3,5.8,0.4c0.5,0.2,0.9,0.3,1.4,0.6c0.2,0.1,0.5,0.2,0.7,0.3
						c0.2,0.1,0.5,0.3,0.7,0.4c0.9,0.5,1.8,1.2,2.7,1.9c3.4,2.9,6.2,6.9,8.8,11.2c2.6,4.3,5.3,8.9,8.1,13.6
						c5.6,9.4,11.7,19.4,18.6,28.8c3.4,4.7,7.1,9.2,11,13.4c0.9,1.1,2,2.1,3,3.1c0.5,0.5,1,1,1.5,1.5c0.5,0.5,1,1,1.5,1.4
						c0.5,0.5,1,1,1.5,1.4c0.5,0.5,1.1,0.9,1.6,1.3c0.5,0.4,1.1,0.9,1.6,1.3c0.5,0.4,1.1,0.8,1.6,1.2c4.4,3.2,8.9,6,13.2,8.5
						c4.4,2.4,8.6,4.6,12.6,6.3c4,1.8,7.7,3.3,11.1,4.5c3.3,1.3,6.3,2.2,8.7,2.9c2.5,0.7,4.4,1.3,5.7,1.6c1.3,0.3,2,0.5,2,0.5
						s-0.7-0.1-2.1-0.4c-1.3-0.3-3.3-0.7-5.8-1.4c-2.5-0.7-5.5-1.6-8.8-2.7c-3.4-1.1-7.2-2.6-11.2-4.3c-4.1-1.7-8.4-3.8-12.8-6.1
						c-4.4-2.4-9-5.1-13.5-8.4c-0.6-0.4-1.1-0.8-1.7-1.3c-0.6-0.4-1.1-0.9-1.6-1.3c-0.5-0.5-1.1-0.9-1.6-1.4c-0.5-0.5-1-1-1.6-1.4
						c-0.5-0.5-1-1-1.6-1.4c-0.5-0.5-1-1-1.5-1.5c-1-1-2.1-2-3-3.1c-4-4.2-7.7-8.7-11.2-13.5c-7-9.5-13-19.5-18.6-29
						c-2.8-4.7-5.4-9.3-8-13.7c-2.5-4.3-5.2-8.3-8.4-11.1c-0.8-0.7-1.7-1.3-2.6-1.9c-0.2-0.1-0.4-0.3-0.7-0.4
						c-0.2-0.1-0.4-0.2-0.7-0.3c-0.4-0.2-0.9-0.4-1.4-0.6c-1.8-0.7-3.7-0.8-5.4-0.5c-1.7,0.3-3.3,0.9-4.6,1.7
						c-1.3,0.8-2.4,1.7-3.2,2.6c-1.7,1.9-2.4,3.8-2.7,5.2c-0.2,0.7-0.2,1.2-0.2,1.5C390.7,473.2,390.7,473.4,390.7,473.4z"/>
					<circle id="XMLID_433_" class="st35" cx="707" cy="802.7" r="39.6"/>
					<path id="XMLID_438_" class="st29" d="M673,802.7c0,0,0-1.1-0.1-3.1c0-1,0.2-2.2,0.3-3.5c0.1-0.7,0.3-1.4,0.4-2.2
						c0.2-0.8,0.3-1.6,0.6-2.4c0.3-0.8,0.5-1.7,0.8-2.5c0.4-0.8,0.8-1.7,1.2-2.6c0.4-0.9,1-1.7,1.5-2.6c0.1-0.2,0.2-0.5,0.4-0.7
						l0.5-0.6c0.3-0.4,0.6-0.9,0.9-1.3l0.5-0.7c0.2-0.2,0.4-0.4,0.5-0.6c0.4-0.4,0.7-0.8,1.1-1.2c0.7-0.9,1.6-1.6,2.4-2.3
						c1.7-1.5,3.6-2.8,5.5-4c2-1.1,4.1-2.1,6.3-2.8c2.1-0.7,4.3-1.2,6.5-1.4c1.1-0.2,2.1-0.2,3.1-0.2c0.5,0,1,0,1.5,0
						c0.5,0,1,0,1.5,0.1c2,0.1,3.8,0.4,5.5,0.8c3.3,0.8,5.9,2,7.6,2.9c0.9,0.5,1.5,0.9,2,1.2c0.4,0.3,0.7,0.4,0.7,0.4
						s-0.3-0.1-0.7-0.3c-0.5-0.2-1.2-0.5-2.1-0.9c-1.8-0.7-4.4-1.6-7.7-2.1c-1.6-0.3-3.4-0.4-5.3-0.5c-0.5,0-1,0-1.4,0
						c-0.5,0-1,0.1-1.5,0.1c-1,0.1-2,0.1-3,0.3c-2,0.3-4,0.8-6.1,1.5c-2,0.7-4,1.6-5.9,2.7c-1.9,1.1-3.7,2.3-5.3,3.7
						c-1.6,1.4-3.1,2.9-4.4,4.5c-0.3,0.4-0.6,0.8-0.9,1.2c-0.3,0.4-0.6,0.8-0.9,1.2c-0.5,0.8-1.1,1.6-1.5,2.4
						c-0.4,0.8-0.9,1.6-1.3,2.4c-0.4,0.8-0.7,1.6-1,2.4c-0.3,0.8-0.5,1.5-0.8,2.2c-0.2,0.7-0.5,1.4-0.6,2c-0.1,0.7-0.3,1.3-0.4,1.8
						c-0.1,0.6-0.3,1.1-0.3,1.6C673.2,801.6,673,802.7,673,802.7z"/>
					<circle id="XMLID_435_" class="st29" cx="707" cy="802.7" r="21.1"/>
					<circle id="XMLID_436_" class="st44" cx="707" cy="802.7" r="18.7"/>
					<circle id="XMLID_437_" class="st35" cx="707" cy="802.7" r="8.1"/>
					<path id="XMLID_513_" class="st23" d="M607.8,440.6c0,0-1.1,0.9-3.1,2.6c-2,1.6-4.8,4-8.3,6.8c-3.4,2.8-7.4,6-11.8,9.5
						c-2.2,1.7-4.4,3.5-6.7,5.3c-2.3,1.8-4.6,3.6-6.9,5.4c-2.3,1.8-4.7,3.6-6.9,5.4c-2.3,1.8-4.6,3.5-6.7,5.2
						c-4.4,3.4-8.5,6.5-12,9.1c-3.5,2.7-6.5,4.8-8.6,6.4c-2.1,1.5-3.3,2.4-3.3,2.4s1.1-0.9,3.1-2.6c2-1.6,4.8-4,8.3-6.8
						c3.4-2.8,7.4-6,11.8-9.5c2.2-1.7,4.4-3.5,6.7-5.3c2.3-1.8,4.6-3.6,6.9-5.4c2.3-1.8,4.7-3.6,6.9-5.4c2.3-1.8,4.6-3.5,6.7-5.2
						c4.4-3.4,8.5-6.5,12-9.1c3.5-2.7,6.5-4.8,8.6-6.4C606.6,441.5,607.8,440.6,607.8,440.6z"/>
					<path id="XMLID_417_" class="st31" d="M475.1,497.3l-19.6,23.1C455.6,520.4,458.4,507.9,475.1,497.3z"/>
					<path id="XMLID_428_" class="st31" d="M475.1,497.3l-17.3,7C457.9,504.4,461.8,498.6,475.1,497.3z"/>
					<path id="XMLID_455_" class="st31" d="M457.9,538.6c0,0-18.9,6.2-25.3,9.3C426.2,551,445.9,534.5,457.9,538.6z"/>
					<path id="XMLID_482_" class="st31" d="M453.8,535.1h-24.5C429.3,535.1,441,530.2,453.8,535.1z"/>
				</g>
				<g id="XMLID_776_">
					<path id="XMLID_571_" class="st25" d="M1114.7,821.5c-5.4,2.3-11,3.9-16.8,5c-4.4,0.8-9.3,1.5-12,5.1c-1.7,2.4-2.1,5.4-2.2,8.4
						h43.7c0.7-6.4,1.3-14.2,1.2-20.7c0-0.3,0-0.7-0.2-1c-0.3-0.4-0.8-0.6-1.3-0.7C1122.7,816.8,1118.9,819.7,1114.7,821.5z"/>
					<path id="XMLID_574_" class="st25" d="M1231.5,830.2c-6.8,2.6-10.9,10.9-8.8,17.9h29.9c-0.3-2.4,1-4,0.5-6.4
						c-0.3-1.2-1.2-2.2-2.1-3.2c-2.8-3-5.6-6-8.4-9c-0.9-1-1.8-2-3.1-2.4C1236.6,826.1,1234.4,829.1,1231.5,830.2z"/>
					<path id="XMLID_559_" class="st27" d="M1155,694.1c-2.5,5.3-5,10.6-6.9,16.1c-3.5,10-5,20.5-7.3,30.9
						c-6.5,28.5-19.2,55.2-31.8,81.6c6,0.8,12,1.6,18,2.3c1.7,0.2,3.4,0.4,4.9-0.3c1.5-0.7,2.5-2.1,3.5-3.4
						c12.1-17,24.3-34,36.4-51.1c3.6-5,7.2-10.1,9.8-15.6c2.4-5.1,4-10.5,5.9-15.8c5-13.6,12.4-26.1,18.4-39.2
						c8.6-19,14.2-39.2,19.7-59.3c-8.7-2.4-17.9-3.2-26.8-2.2c-2.9,0.3-5.8,0.9-8.8,1.1c-2,0.2-6.8-0.8-8.5,0.1
						c-3.8,2-6.9,13.2-8.7,17.2C1166.9,669.1,1161,681.6,1155,694.1z"/>
					<path id="XMLID_563_" class="st27" d="M1225.6,832.6c6.7-0.8,14.7,0.8,21.4,0c10.8-29.2,20.5-61.7,19.8-92.8
						c-0.2-6.5-0.8-13-0.9-19.5c-0.3-25.4,8.4-50.4,6.5-75.8c-0.1-0.7-0.1-1.5-0.5-2.1c-0.5-0.9-1.6-1.4-2.6-1.8
						c-4.3-1.5-9.1-1.2-13.6-0.7c-8.1,0.8-27.9-0.1-28.8,10.5c-1.2,14.3,1.8,30.1,2.5,44.5c1.4,29.7,2.1,59.5,0.7,89.2
						C1229.8,788.5,1228.3,832.2,1225.6,832.6z"/>
					<path id="XMLID_528_" class="st45" d="M1284.7,581.2c-0.2,3.5-0.3,7,0.6,10.4c0.9,3.4,2.9,6.6,6.1,8c1.7,0.8,3.7,1,5.6,1.1
						c1.7,0.2,3.6,0.3,5-0.7c1.1-0.8,1.7-2.1,2.3-3.4c0.7-1.6,1.4-3.3,1.8-5c0.6-2.5,0.6-5.1,0.6-7.7c0-6.6,0-13.3,0-19.9
						c0-0.4,0-0.9-0.3-1.2c-0.3-0.3-0.7-0.3-1-0.4c-5.5-0.7-11.2-0.2-16.5,1.3C1282.7,565.7,1285,575.9,1284.7,581.2z"/>
					<path id="XMLID_756_" class="st26" d="M1245.5,657.9c6.5,2.3,13.7,2.9,20.3,0.9c3.4-1,6.8-2.9,8-6.2
						c-0.4,1.1-40.8-6.2-45.4-4.9C1232.8,652.2,1239.5,655.8,1245.5,657.9z"/>
					<path id="XMLID_733_" class="st26" d="M1203.6,649.6c9.2,0.9,18.4-0.2,27.5-2c-7.2,1.4-18.6-2.3-25.9-3.4
						c-8.3-1.2-17.9-4.1-26.2-3.7C1183.3,646.8,1196.5,648.9,1203.6,649.6z"/>
					<path id="XMLID_416_" class="st45" d="M1150,565c-0.3,3.4-0.2,7.1,2,9.7c2.5,2.9,7,3.2,10.5,1.9c3.5-1.4,6.3-4.1,8.9-6.9
						c7.8-8.3,15-17.4,20-27.7c0.4-0.8,0.7-1.6,0.7-2.4c0-0.9-0.6-1.8-1.2-2.5c-6-7.7-18.4-9.4-26.5-4
						C1155.4,538.9,1151,554.9,1150,565z"/>
					<path id="XMLID_402_" class="st29" d="M1218.8,472.1c-6.6,1.7-13.1,3.8-19.4,6.4c-6.5,2.6-12.3,6.7-17,11.9
						c-8.6,9.7-21.9,23.2-32.9,32.7c7.5,10.7,17.6,18.8,28.2,26.4c7.1-0.3,13.8-1.7,19.7-5.8c4.5-9.9,9.4-19.3,11.8-30
						C1212.2,500,1211.1,483.8,1218.8,472.1z"/>
					<path id="XMLID_556_" class="st31" d="M1191.2,518.4c-2.6-5.9-5.3-11.9-7.9-17.8c0.6,9.5,3.1,18.8,7.3,27.3
						c-4.2-1.2-8.2-3.1-11.8-5.4c2.9,2.7,5.8,5.4,8.7,8.1c0.5,0.4,1,1,1,1.6c0,0.6-0.3,1.1-0.6,1.6c-4.4,6.5-9.9,12.3-16.2,17
						c7.5-2.5,14.9-5.6,21.9-9.2c0.7-0.4,1.5-0.8,2-1.5c0.5-0.7,0.6-1.6,0.7-2.4c1.4-15.3,4.2-33.1,0.1-48.2
						C1191.4,494.8,1191.6,511.2,1191.2,518.4z"/>
					<path id="XMLID_413_" class="st30" d="M1192.7,506.9c2,45.2-5.3,90.8-21.5,133c34.8,8.4,71,14.8,106.8,16.1
						c4.2-47.8,2.8-95.1,0.4-143c-0.4-7.1-0.7-14.4-2.2-21.3c-0.9-4.4-3.9-8.1-8.1-9.9c-4.1-1.8-8.2-3.8-12.3-5.2
						c-6.5-2.2-13.2-4.4-20.1-4.3c-8.5,0.1-33.9,1.4-39.3,7.9C1194.6,482.2,1192.5,504.2,1192.7,506.9z"/>
					<path id="XMLID_558_" class="st31" d="M1220.9,504.4c0.4-3.5,1.5-6.9,3.1-10c5.9,3.3,11.3,7.6,15.9,12.7
						c4.6-9.6,8.7-19.6,12-29.7c-7,0.6-13.9,3.2-19.5,7.4c-1.5,1.1-2.9,2.4-4.7,2.9c-2.4,0.8-4.9,0.3-7.4,0.6
						C1211,489.4,1217.6,500.4,1220.9,504.4z"/>
					<path id="XMLID_577_" class="st31" d="M1269.4,522.9c-2.3-2.3-3.9-5.1-4.8-8.2c0.8,3.6,1.6,7.3,2.4,10.9
						c-11,4.5-22,9.1-33,13.6c6.6,6.2,14.6,10.9,23.3,13.6c7.1,2.2,15.1,3,21.6-0.4c0.6-0.3,1.3-0.7,1.6-1.3
						c0.5-0.8,0.5-1.9,0.4-2.9c-0.7-10.7-1.4-21.4-3.6-32c-1.1-5.2-2.5-10.4-4.5-15.3c-1.4-3.5-4.1-11.7-7.6-13.1
						C1263.3,498.6,1266.8,512.5,1269.4,522.9z"/>
					<path id="XMLID_729_" class="st31" d="M1223.5,562.5c-4,1.7-8.4,2-12.7,2.3c-5,0.3-10,0.6-15,0.9c10.4,9.2,24.4,14.4,38.3,14.2
						c1,4.4,1.5,8.9,1.7,13.3c0,0.8,0,1.6-0.3,2.3c-0.4,1-1.4,1.6-2.3,2.2c-7.2,4.4-15,7.9-23,10.4c11.5,3.4,23,6.8,34.6,10.2
						c3.1,0.9,6.2,1.8,9.4,1.4c1.9-0.2,3.8-1,5.6-1.7c5.9-2.5,11.7-5.6,17.1-9.1c-15.7-11-24.4-29.1-34.7-45.3
						c-1.4-2.2-6.5-10.9-9.9-10.2c-1.3,0.3-2.1,3.8-3,4.9C1227.7,560.1,1225.7,561.5,1223.5,562.5z"/>
					<path id="XMLID_730_" class="st31" d="M1254.2,634.9c-11.6-0.9-23.2-2.5-34.2-6c-5.9-1.9-11.5-4.3-16.8-7.4
						c-4-2.3-11.8-6.6-13.3-10.9c3.5-1.1,11.5,4.8,14.8,6.3c5.4,2.5,10.8,4.8,16.3,7c5.5,2.2,11.1,4.2,16.7,6.1
						C1242.7,631.6,1248.8,634.5,1254.2,634.9z"/>
					<path id="XMLID_414_" class="st29" d="M1293.4,497.3c6.9,7.7,9.8,18.1,12.4,28.1c3.9,14.6,7.8,29.4,8.4,44.5
						c-13.7-1.2-27.6-0.8-41.3,1.2c4.5-0.6-3.4-59.2-4.4-64.8c-1.2-6.8-9.1-23.6,0.8-23.1C1277.2,483.6,1288.4,491.7,1293.4,497.3z"
						/>
					<g id="XMLID_549_">
						<path id="XMLID_593_" class="st29" d="M1222.4,468.3c0-0.9,0-1.7,0.1-2.6c-4.5,3.5-7.1,9.1-7.9,14.8s0,11.5,1.1,17.1
							c0.5,2.3,1,4.7,2.6,6.5c1.1-4.1,2.9-8,5.1-11.5c6.5,2.9,13.1,6.6,18.3,11.3c5.7-11,11.6-15.3,11.5-27.7
							c-2.6-3.7-8.9-16.3-11.9-19.7c-0.3-0.3-0.6-0.6-1-0.8c-0.5-0.2-1,0.1-1.5,0.3c-4,1.7-7.8,3.9-11.4,6.4
							C1225.8,463.5,1223.3,466.4,1222.4,468.3z"/>
						<path id="XMLID_590_" class="st32" d="M1240.1,424.8c3.2,7.3,4.5,15.5,3.9,23.5c-2.6,0.8-5.7,1.6-8.2,2.4
							C1234,441.8,1235.4,432.4,1240.1,424.8z"/>
						
							<linearGradient id="XMLID_101_" gradientUnits="userSpaceOnUse" x1="-6508.7246" y1="1176.0389" x2="-6509.1411" y2="1200.6115" gradientTransform="matrix(0.9949 -0.1005 0.1005 0.9949 7584.604 -1368.3466)">
							<stop  offset="0" style="stop-color:#FD7A7F"/>
							<stop  offset="0.5081" style="stop-color:#FE9F95"/>
							<stop  offset="1" style="stop-color:#FFC7AC"/>
						</linearGradient>
						<path id="XMLID_589_" class="st46" d="M1215,469.6c-2.1,4.6-0.4,7.2,1.1,10.2c1.4,2.9,3.2,5.5,5.1,8c1.1,1.4,2,2.8,2.9,4.5
							c2.1-2.6,7.7-9.9,12.5-16.4c4.5-6,6.1-13.7,4.7-21c-1.3-6.8-2.3-13.6-2.8-20.7C1229.9,444.9,1221.1,457.3,1215,469.6z"/>
						<path id="XMLID_588_" class="st45" d="M1237.5,434c1.1,6.6,2.1,13.4,0.2,19.8c-2.9,9.8-11.9,16.6-21.5,20
							c-4.7,1.7-9.6,2.4-14.6,2.2c-5-0.2-10.1-1.5-14.1-4.5c-5.1-3.7-8.1-9.7-9.6-15.8c-1.5-6.1-1.8-12.4-2.7-18.7
							c-0.8-6.2-2.3-26.4-5.9-31.6c10.7-7.7,24.6-12.3,37.8-13.4c6.7-0.5,16.2-3.6,22.8-2.2c4.5,1,7.6,13,6.7,20.5
							c-0.2,2,0.5,4.2,0.7,6.2C1238,422.3,1236.6,428.4,1237.5,434z"/>
						<path id="XMLID_403_" class="st32" d="M1242.8,408.1c0.1-0.8,0-8.4-2-10.9c-10.9-4.9-26.1-7-37.9-5.3
							c0.9,3.5,2.3,6.9,4.1,10.1c0.9,1.6,2,3.2,3.7,3.9c1.7,0.7,3.7,0.5,5.5,0.5c0.3,0,0.6,0,0.8,0.1c3.1,1.2,5.4,4.1,6.6,7.2
							c1.3,3.3,1.6,6.9,1.8,10.4c0.3,4,0.6,8.1,0.9,12.1c3.1,0.1,5.8,0.3,8.8-0.1C1234.6,426.9,1243.2,408.3,1242.8,408.1z"/>
						<path id="XMLID_582_" class="st32" d="M1216.3,411.5c-4.8-3.5-11.1-4.9-16.9-3.8c0.3-0.7,0.6-1.5,0.9-2.2
							c0.8-1.9,6.8,0,8.2,0.6C1211.5,407.2,1214.2,409.2,1216.3,411.5z"/>
						<path id="XMLID_579_" class="st32" d="M1176.7,417.5c0.5-2.9,1.6-5.7,3.6-7.8c0.5-0.6,1.1-1.1,1.6-1.7
							c0.7-0.8,1.2-1.7,1.8-2.6c-0.3,0.6,0.4,2.7,0.2,3.5c-0.3,1.2-0.8,1.8-1.7,2.7C1180.2,413.6,1178.2,415.2,1176.7,417.5z"/>
						<path id="XMLID_576_" class="st35" d="M1141.5,398.8c0,0-12.7,8.7-4.2,15.8c0,0,14.7-10.1,35.7-13.2
							C1173,401.4,1157.7,392.2,1141.5,398.8z"/>
						<path id="XMLID_573_" class="st35" d="M1242.4,400.9c0.7-6.6,0.5-13.2-0.8-19.7c-1.3-6.8-4.2-14-10.5-17.7
							c-4.1-2.4-9.1-2.9-13.9-3.4c-9.2-0.9-18.7-1.9-27.7,0c-9,1.9-17.8,7.2-20.9,15.3c-2.6,6.8-1,14.3,0.6,21.3
							C1194.2,395.4,1217.8,395.8,1242.4,400.9z"/>
						<path id="XMLID_569_" class="st36" d="M1219.9,397.2c-16.6,4-34.5,9.5-49.5,17.7c-2.4-5.2-6.1-9.8-10.7-13.3
							c-2.6-2-5.5-3.6-8.7-4.3c-3.2-0.7-6.7-0.3-9.5,1.4C1153,392.2,1196.5,393.3,1219.9,397.2z"/>
						
							<linearGradient id="XMLID_102_" gradientUnits="userSpaceOnUse" x1="-6490.3779" y1="1127.5604" x2="-6494.1265" y2="1163.3781" gradientTransform="matrix(0.9949 -0.1005 0.1005 0.9949 7584.604 -1368.3466)">
							<stop  offset="0" style="stop-color:#FD7A7F"/>
							<stop  offset="0.1161" style="stop-color:#FD8C8A"/>
							<stop  offset="0.3223" style="stop-color:#FEA699"/>
							<stop  offset="0.5351" style="stop-color:#FFB8A3"/>
							<stop  offset="0.7565" style="stop-color:#FFC3AA"/>
							<stop  offset="1" style="stop-color:#FFC7AC"/>
						</linearGradient>
						<path id="XMLID_568_" class="st47" d="M1234.4,414.1c0.9-1.8,2.1-3.6,3.8-4.7c1.7-1.2,3.9-1.7,5.8-0.9c2.5,1.1,3.7,4,4.3,6.6
							c1.3,5.4,1.6,11.2-0.8,16.2c-2.3,5-7.8,8.8-13.2,7.7c-0.6-0.1-1.2-0.3-1.6-0.8c-0.3-0.4-0.4-0.9-0.5-1.5
							C1231.1,428.6,1230.5,421.5,1234.4,414.1z"/>
						
							<ellipse id="XMLID_565_" transform="matrix(0.9949 -0.1005 0.1005 0.9949 -36.3594 123.3538)" class="st38" cx="1206.2" cy="422.6" rx="3.3" ry="6.1"/>
						
							<ellipse id="XMLID_562_" transform="matrix(0.9949 -0.1005 0.1005 0.9949 -36.656 121.0507)" class="st38" cx="1183.2" cy="424.4" rx="2.6" ry="5.5"/>
						
							<linearGradient id="XMLID_103_" gradientUnits="userSpaceOnUse" x1="-6497.6235" y1="1146.9935" x2="-6486.2974" y2="1146.9935" gradientTransform="matrix(0.9949 -0.1005 0.1005 0.9949 7584.604 -1368.3466)">
							<stop  offset="0" style="stop-color:#F3676A"/>
							<stop  offset="0.4434" style="stop-color:#F56A6E"/>
							<stop  offset="0.8459" style="stop-color:#FA7479"/>
							<stop  offset="1" style="stop-color:#FD7A7F"/>
						</linearGradient>
						<path id="XMLID_553_" class="st48" d="M1236,427.8c0.2-2,0.6-3.9,1.1-5.8c0.5-1.8,1.3-3.7,3-4.7c2.2-1.2,5.3,0.3,5.8,2.7
							c-1.1-1.5-3.5-1.7-4.8-0.4c2.4,1.4,3.7,4.2,3.6,7s-2,5.3-4.6,6.4c1.4-1.4,0.7-4.1-1.2-4.7c-0.2,1.2-0.5,2.5-0.7,3.7
							c-0.1,0.5-0.2,1-0.6,1.4s-1,0.5-1.4,0.1c-0.1-0.1-0.2-0.3-0.3-0.5C1235.5,431.7,1235.9,429.3,1236,427.8z"/>
						
							<linearGradient id="XMLID_104_" gradientUnits="userSpaceOnUse" x1="3964.3267" y1="-39.8748" x2="4000.0071" y2="-39.8748" gradientTransform="matrix(-0.8991 0.4377 0.4377 0.8991 4783.4917 -1271.8285)">
							<stop  offset="0" style="stop-color:#FFC7AC"/>
							<stop  offset="0.2435" style="stop-color:#FFC3AA"/>
							<stop  offset="0.4649" style="stop-color:#FFB8A3"/>
							<stop  offset="0.6777" style="stop-color:#FEA699"/>
							<stop  offset="0.8839" style="stop-color:#FD8C8A"/>
							<stop  offset="1" style="stop-color:#FD7A7F"/>
						</linearGradient>
						<path id="XMLID_552_" class="st49" d="M1174,433.9c-1.6,0.7-3.3,1.3-4.4,2.7c-2.3,2.9-0.5,7.5,2.7,9.3
							c3.2,1.7,7.2,1.2,10.7,0.2c5.3-1.6,10.1-4.5,14-8.4c1.2-1.2,2.4-2.6,3.1-4.2c2-4.7-0.1-15.7-6.9-11.8
							c-3.1,1.8-5.6,4.9-8.6,6.9C1181.3,430.6,1177.7,432.4,1174,433.9z"/>
						<path id="XMLID_551_" class="st2" d="M1206.8,421.1c-0.1-0.6-0.1-1.3,0.1-1.9c0.1-0.4,0.7-0.5,1-0.2c0.4,0.5,0.6,1.1,0.8,1.8
							c0.1,0.5-0.3,1-0.7,1.1C1207.4,422,1206.9,421.6,1206.8,421.1z"/>
						<path id="XMLID_550_" class="st2" d="M1183.2,423.3c-0.1-0.5,0-1,0.1-1.5c0-0.3,0.3-0.6,0.6-0.6c0.3,0,0.6,0.2,0.7,0.5
							c0.1,0.6,0.2,1.1,0,1.7c-0.1,0.3-0.4,0.5-0.8,0.5C1183.6,423.9,1183.3,423.6,1183.2,423.3z"/>
						<path id="XMLID_397_" class="st39" d="M1213.6,442.4c1.6,5.3-1.8,11.2-6.7,13.9c-4.9,2.7-19.8,7.1-19.1-7.3
							C1195.6,448.6,1213.9,443.3,1213.6,442.4z"/>
						<path id="XMLID_422_" class="st2" d="M1214,446.2c0.1-1.3,0-2.6-0.3-3.8c0.3,0.9-14.7,5.3-23.4,6.4c0.3,1,0.5,2.1,0.1,3.1
							C1198.6,452.3,1206.8,450,1214,446.2z"/>
						<path id="XMLID_536_" class="st40" d="M1196.3,459.1c4,0,8.4-1.5,10.6-2.8c2.8-1.6,5.2-4.2,6.3-7.2
							C1206.5,450.4,1200.9,454.2,1196.3,459.1z"/>
					</g>
					<path id="XMLID_561_" class="st35" d="M1202.8,506.9l32.9,20.2l4.1,7.2l-10.2-3.4l-29.6-19.8c-1.2-0.8-1.5-2.4-0.7-3.5l0,0
						C1200.2,506.5,1201.7,506.2,1202.8,506.9z"/>
					<path id="XMLID_423_" class="st45" d="M1159.2,553.4c12.2-9.3,27.2-14.2,41.8-19c4.6-5.6,8.9-11.3,13.5-16.9
						c1.2-1.5,2.6-3.1,4.5-3.3c1.7-0.2,3.2,0.8,4.6,1.7c2.5,1.6,4.9,3.1,7.4,4.7c0.9,0.6,1.9,1.2,2.5,2.1c0.6,0.9,0.9,2.1,0.4,3.1
						c-0.5,1-2,1.4-2.7,0.6c0.6,1,0.9,2.2,1,3.3c0,0.3,0,0.6-0.1,0.8c-0.2,0.3-0.6,0.3-0.9,0.3c-0.9,0.1-1.7,0.1-2.6,0.2
						c1,1.1,1.1,3,0.2,4.2c-0.9,1.2-2.7,1.7-4.1,1.1c0.4,2.8-2.6,5.4-5.3,4.7c-0.8-0.2-1.6-0.7-2.4-0.7c-0.7-0.1-1.5,0.2-2.2,0.4
						c-3.3,1-6.6,2.1-9.9,3.1c-9,10.3-19.2,21.3-30.5,28.9c-5.8,3.9-13.2,7.1-19.6,4.1c-0.8-0.4-1.5-0.8-2.1-1.5
						c-0.6-0.8-0.9-1.7-1.2-2.7C1150,565.4,1153.2,558,1159.2,553.4z"/>
					<polygon id="XMLID_533_" class="st32" points="1291.5,543.8 1230.9,535.4 1227.9,608 1282.7,615.4 					"/>
					<path id="XMLID_554_" class="st50" d="M1246.8,543.7V536l11,1.1l1.1-4c0.5-1.7,2.3-2.9,4.4-2.9l0,0c2.5,0,4.5,1.7,4.5,3.8v4.4
						l9.8,0.9l-1.3,8.2L1246.8,543.7z"/>
					<path id="XMLID_530_" class="st45" d="M1296.1,573.9c-15.9,1.2-32,0-47.5-3.5c-2.1-6-4.9-12.7-7.1-18.9c-0.4-1.1-1.9-1.1-2.4,0
						c-0.9,2.2-1.1,4.6-0.7,6.9c0.1,0.8,0.3,1.8-0.3,2.3c-0.6,0.6-1.5,0.4-2.3,0.2c-3.1-0.7-6.1-1.4-9.2-2.2c-1,1.1-1,2.9-0.2,4.2
						s2,2.3,3.2,3.2c-2.3-1.1-5.4,0.7-5.5,3.2c-0.1,2.5,2.7,4.6,5.2,3.9c-1.8-0.4-3.8,1.1-3.9,2.9c-0.1,1.8,1.8,3.5,3.6,3.2
						c-1.7,0.4-3.9,1.5-3.6,3.2c0.2,1.1,1.5,1.7,2.6,2.1c4.1,1.3,8.6,1.4,12.8,0.4c2-0.5,4.1-1.3,6.2-0.8c1.4,0.3,2.5,1.1,3.7,1.9
						c6.6,4.6,13.2,9.2,20.5,12.5s15.4,5.4,23.5,4.4c3.9-0.5,8-1.8,10.3-4.9c1.1-1.4,1.7-3.1,2.1-4.8
						C1308.7,585.3,1304.5,573.3,1296.1,573.9z"/>
					<path id="XMLID_731_" class="st31" d="M1292.4,511c-6.4,7.1-13,14-19.8,20.7c2.5-4,4.7-8.4,8-11.8
						C1284,516.4,1289.3,514.5,1292.4,511z"/>
					<path id="XMLID_732_" class="st31" d="M1299.7,517c-7.8,4.5-15.5,9.1-23.3,13.6c3.3-2,5.6-6,9.2-8.1
						C1289.9,519.9,1294.7,518,1299.7,517z"/>
					<path id="XMLID_764_" class="st35" d="M1158.8,731.6c4.6,0.9,9.3,1.7,14,1.7c4.6,0,9.3-0.9,13.2-3.3
						C1177.1,731.1,1168,732.1,1158.8,731.6z"/>
					<path id="XMLID_767_" class="st26" d="M1150.4,740.2c5,4,12.1,4.7,18.3,3c4.4-1.2,11.9-4.3,14.2-8.4
						c-2.5-2.5-12.5,0.8-15.8,1.5C1164.8,736.7,1151.7,741.2,1150.4,740.2z"/>
					<path id="XMLID_770_" class="st26" d="M1242.2,740.4c2.1,0.3,3.9,1.6,5.7,2.7c4.2,2.5,8.9,4.2,13.7,4.8
						c-2.9,1.1-5.9,1.9-8.9,1.6c-2.7-0.3-5.3-1.5-7.8-2.5c-4.3-1.7-8.8-2.7-13.4-3.1c-0.2,0,3.2-2.4,3.8-2.6
						C1237.3,740.7,1240.2,740.1,1242.2,740.4z"/>
					<path id="XMLID_773_" class="st26" d="M1240.2,752.5c5.6,2.2,11.7,2.8,17.6,1.7c1.6-0.3,3.4-0.7,4.6-1.7
						c-2.2-1.9-7.2,0-9.9,0.3C1249,753.1,1243.5,753.9,1240.2,752.5z"/>
				</g>
				<g id="XMLID_595_">
					<path id="XMLID_594_" class="st31" d="M853.3,583.2c1.2,7.8,3.3,16.3,9.7,21c3.4,2.5,7.5,3.7,11.6,4.6
						c13.1,3,26.8,3.8,40.2,2.4c1.3-0.1,2.9-0.6,3.1-1.9c0.1-0.5-0.1-0.9-0.3-1.4c-9.8-24.8-23.2-48.2-39.7-69.1
						c-1.4-1.7-2.8-3.5-4.7-4.7C844.9,515.4,851.8,572.8,853.3,583.2z"/>
					<g id="XMLID_580_">
						<g id="XMLID_714_">
							
								<rect id="XMLID_718_" x="849.6" y="406.6" transform="matrix(0.9812 -0.1932 0.1932 0.9812 -68.5633 179.0772)" class="st21" width="68.5" height="68.8"/>
							
								<rect id="XMLID_715_" x="869.3" y="402.8" transform="matrix(0.9812 -0.1932 0.1932 0.9812 -67.4424 182.8109)" class="st22" width="68.5" height="68.8"/>
						</g>
						<g id="XMLID_707_">
							
								<rect id="XMLID_711_" x="834.2" y="331.5" transform="matrix(0.9812 -0.1932 0.1932 0.9812 -55.1634 175.6925)" class="st21" width="77.9" height="78.3"/>
							
								<rect id="XMLID_708_" x="856.6" y="327.1" transform="matrix(0.9812 -0.1932 0.1932 0.9812 -53.8879 179.9413)" class="st22" width="77.9" height="78.3"/>
						</g>
						<g id="XMLID_700_">
							<polygon id="XMLID_704_" class="st21" points="983.8,627 886.1,646.2 853.7,479 951.3,459.8 							"/>
							<polygon id="XMLID_701_" class="st22" points="1012.5,621.3 914.8,640.5 882.3,473.4 980,454.1 							"/>
						</g>
						<polygon id="XMLID_699_" class="st23" points="1012.5,621.3 888.7,647 888.2,644.4 						"/>
						<polygon id="XMLID_698_" class="st23" points="978.2,455.2 854.5,480.9 854,478.3 						"/>
						<path id="XMLID_586_" class="st23" d="M931,399.2c0,0-1.3,0.3-3.7,0.9c-2.4,0.5-5.7,1.3-9.8,2.2c-4.1,0.9-8.8,1.9-13.9,2.9
							c-2.5,0.5-5.2,1.1-7.8,1.6c-2.7,0.5-5.4,1.1-8.1,1.6c-2.7,0.5-5.4,1.1-8.1,1.6c-2.7,0.5-5.3,1-7.9,1.5c-5.1,1-9.9,1.8-14,2.5
							c-4.1,0.7-7.5,1.3-9.9,1.7c-2.4,0.4-3.8,0.6-3.8,0.6s1.3-0.3,3.7-0.9c2.4-0.5,5.7-1.3,9.8-2.2c4.1-0.9,8.8-1.9,13.9-2.9
							c2.5-0.5,5.2-1.1,7.8-1.6c2.7-0.5,5.4-1.1,8.1-1.6c2.7-0.5,5.4-1.1,8.1-1.6c2.7-0.5,5.3-1,7.9-1.5c5.1-1,9.9-1.8,14-2.5
							c4.1-0.7,7.5-1.3,9.9-1.7C929.6,399.4,931,399.2,931,399.2z"/>
					</g>
					<path id="XMLID_683_" class="st25" d="M928.2,843.4c5.8,0.1,11.5,0.5,17.2,1.2c3.5-3.1,9.6-1.9,11.7,2.3
						c0.3,0.5,0.5,1.2,0.4,1.8c-0.1,0.9-0.9,1.6-1.7,2.1c-11.4,8.2-25.3,12.7-39.3,12.7c-1,0-2.3-0.2-2.7-1.1
						c-0.2-0.5-0.1-1.1,0-1.6c0.6-2.9,1.1-5.9,1.7-8.8c0.2-1,0.4-2,0.9-2.9c0.5-0.7,1.1-1.3,1.8-1.8
						C920.9,845.4,925,844.2,928.2,843.4z"/>
					<path id="XMLID_680_" class="st25" d="M787.6,841.4c1.6,2.6,2.8,5.4,3.4,8.4c5.1,0.6,9.4,6.2,8.3,11.1h-15.5
						c-1.9-0.5-4.5-1.6-5.9-2.9c-5.7-5.2-12.9-7.8-19.3-11.9c3.8-3.5,9.5-8,14.5-9.3c1.5-0.4,3-0.6,4.5-0.6
						C781.3,836.4,785.6,838.2,787.6,841.4z"/>
					<path id="XMLID_677_" class="st26" d="M814.1,683.6c0.8,30.8-0.3,61.7-3.1,92.3c-15.4,12.4-29.2,28-40.9,43.9
						c-6,8.2-11.7,17.2-12.5,27.3c10.9-2.6,22.6-3.7,33.8-3.5c-0.2-3.1-0.5-6.9-0.7-9.9c16.4-9.8,31.7-20.7,46.1-33.3
						c2.4-2.1,4.8-4.3,6.6-7c1.3-2,2.3-4.2,3.1-6.4c5.8-15.3,7.9-31.7,9.9-47.9c0.6-4.7,1.2-9.5,0.6-14.3c-0.6-4.8-2.4-9.4-4.7-13.7
						c-7.2-13.3-19.9-23.3-34.3-28.1C816.6,682.6,814.1,682.1,814.1,683.6z"/>
					<linearGradient id="XMLID_106_" gradientUnits="userSpaceOnUse" x1="949.5166" y1="625.6833" x2="962.9323" y2="625.6833">
						<stop  offset="0" style="stop-color:#FD7A7F"/>
						<stop  offset="0.1161" style="stop-color:#FD8C8A"/>
						<stop  offset="0.3223" style="stop-color:#FEA699"/>
						<stop  offset="0.5351" style="stop-color:#FFB8A3"/>
						<stop  offset="0.7565" style="stop-color:#FFC3AA"/>
						<stop  offset="1" style="stop-color:#FFC7AC"/>
					</linearGradient>
					<path id="XMLID_592_" class="st51" d="M958.9,623.5c0.9-0.2,1.8-0.4,2.8-0.5c0.2,0,0.5,0,0.7,0.1c0.2,0.1,0.3,0.2,0.4,0.4
						c0.3,0.6,0.2,1.4-0.2,1.9c-0.4,0.6-1,0.9-1.5,1.3c-2.4,1.3-5.2,1.8-7.9,1.7c-0.2,0-0.4,0-0.6-0.1c-0.2-0.1-0.3-0.3-0.4-0.4
						c-0.9-1.2-1.7-2.5-2.5-3.8c-0.4-0.7,4-0.3,4.1-0.3C955.4,623.9,957.2,623.8,958.9,623.5z"/>
					<path id="XMLID_674_" class="st27" d="M913.5,866.7c4.5-2.3,8-6.1,10.7-10.4c2.7-4.2,5.3-9.3,7.2-14c-1.2-4.8-1.6-9.8-2.2-14.8
						c-2.3-20.1-6.4-40-12.1-59.5c-1.5-5-3-9.9-4.8-14.7c-11.7-31.3-33.4-59-39.9-91.8c-23.1-6.3-48.8-12.7-71.8-6.2
						c8.3,27.7,20.3,55,37.2,78.5c13.6,18.9,29.7,36,41.7,55.9c4.5,7.4,8.4,15.1,12.1,22.9C899.8,830.1,906.6,848.9,913.5,866.7z"/>
					<linearGradient id="XMLID_107_" gradientUnits="userSpaceOnUse" x1="924.5194" y1="635.2263" x2="960.4179" y2="635.2263">
						<stop  offset="0" style="stop-color:#FD7A7F"/>
						<stop  offset="0.1161" style="stop-color:#FD8C8A"/>
						<stop  offset="0.3223" style="stop-color:#FEA699"/>
						<stop  offset="0.5351" style="stop-color:#FFB8A3"/>
						<stop  offset="0.7565" style="stop-color:#FFC3AA"/>
						<stop  offset="1" style="stop-color:#FFC7AC"/>
					</linearGradient>
					<path id="XMLID_673_" class="st52" d="M940.1,627.9c2.2-0.8,4-2.4,6.2-3.4c2.3-1.1,5-1.3,7.5-0.8c0.9,0.2,4.6,6.1,6.3,8.7
						c0.3,0.5,0.5,1.1,0.4,1.7c-0.2,2-2.7,2.2-4.6,2c0.2,1,0.4,2,0,2.9c-0.3,0.9-1.5,1.6-2.3,1.2c0.6,1.6-1.1,3.6-2.8,3.1
						c0.6,1.7-1.1,3.5-2.9,3.6s-3.4-1.1-4.6-2.5c-1.2-1.4-2-3-3.3-4.2c-3.8-3.8-10-3.7-15.4-3.4c-0.3,0,1.9-8.8,4.1-9.5
						c1.2-0.4,3.5,0.7,4.7,0.9C935.6,628.6,937.9,628.7,940.1,627.9z"/>
					<path id="XMLID_667_" class="st26" d="M847.5,674.1c-9.5,1.2-19.4,0.2-28.1-3.9c-6-2.8-11.2-7.1-17.3-9.8
						c20,0.4,39.9,2.4,59.8,4.4c2.4,0.2,8.9-0.3,9.9,2.3c-2.8,2.4-8.3,3.4-11.9,4.4C856.1,672.6,851.6,674.1,847.5,674.1z"/>
					<path id="XMLID_664_" class="st30" d="M879.1,667.4c-27.8,2.5-57.3,1.1-84.6-4.5c-2.4-53.1,9.2-106.7,33.3-154.1
						c5.3-3.1,10.8-3.2,16.3-0.6c2.4,1.1,4.5,2.6,6.6,4.1c3.2,2.3,6.4,4.7,8.5,8c12.1,18.9,6.8,44.5,9.5,66.8
						C871.9,613.5,871.5,641.9,879.1,667.4z"/>
					<path id="XMLID_663_" class="st31" d="M860.1,520.1l-4.1-1.6l-1.6,1.6l-2.9,1.5c-5.9-0.6-11.7-2.6-16.8-5.7
						c-4.2-2.6-9.5-4-6.6,2.6c2.2,5.2,6.3,10.1,9.6,14.8c1.6,2.3,3.2,4.6,5.4,6.3c4.1-6.1,8.5-12,13.2-17.7l6.8,6.3L860.1,520.1z"/>
					<path id="XMLID_660_" class="st31" d="M836.6,617.9c-3.3-0.4-6.2-2.5-8.7-4.7c-5.4-4.6-10.3-9.7-14.7-15.3
						c9.1,16.8,27.8,28.1,46.9,28.2c-12.4-21.4-21.4-44.7-26.7-68.8c-0.7-3-1.4-6.2-3.5-8.3c-6.2-6.2-9.3,1.6-9.5,6.6
						c-0.4,7.4,0,14.8,1.1,22c1.1,7.3,3,14.4,5.6,21.3C828.1,601.6,833.6,617.6,836.6,617.9z"/>
					<path id="XMLID_659_" class="st31" d="M845.4,551.6c5.3,6.1,10.6,12.3,15.4,18.8c1.1,1.5,2.1,2.9,2.9,4.6
						c0.6,1.3,1.1,2.8,1.5,4.2c1.4,4.5,2.7,8.9,4.1,13.4c-4.3-6-8.7-11.9-12.6-18.2c-2.3-3.6-4.4-7.3-6.7-10.9
						c-2.7-4.2-5.7-8.2-8.4-12.5c-0.3-0.5-3-4.4-1.5-4.6C841.3,546,844.7,550.8,845.4,551.6z"/>
					<path id="XMLID_656_" class="st29" d="M846.5,500.1c-0.4-0.7-0.7-1.4-1.1-2c5,1.1,9.2,4.5,12,8.8c2.8,4.2,4.5,9.1,5.8,14.1
						c0.5,2,1,4.2,0.4,6.2c-2.5-2.8-5.4-5.2-8.6-7.2c-4,4.8-7.8,10.3-10.2,16.2c-8.8-6.6-16.1-15.3-20.8-25.3
						c0.7-3.9,1.7-8.8,2.7-12.7c0.1-0.4,0.2-0.7,0.5-1c0.3-0.3,0.8-0.4,1.3-0.4c3.9-0.2,7.7,0.1,11.5,0.7
						C842,497.7,845,499,846.5,500.1z"/>
					<path id="XMLID_609_" class="st29" d="M929.7,639.9c-14.7,0.3-29.4,0.1-44.1-0.5c-11.3-0.5-23.2-1.5-32.5-7.9
						c-7.1-4.8-12-12.2-16.1-19.8c-10.4-19.4-17.2-41.2-17.2-63.2c0-6.9,7.8-11.4,13.4-9.5c5.5,1.9,9,7.2,12,12.3
						c11.1,18.6,21.5,38.3,37.8,52.6c11.6,10.3,33.3,19.8,48.5,22.9C930.7,630.5,929.7,636,929.7,639.9z"/>
					<path id="XMLID_606_" class="st43" d="M819.8,548.4c0,0,0-0.2,0-0.4c0-0.3,0-0.7,0.1-1.3c0.2-1.1,0.7-2.8,2.1-4.4
						c0.7-0.8,1.6-1.6,2.7-2.3c1.1-0.7,2.4-1.3,3.9-1.5c1.5-0.3,3.2-0.3,4.8,0.3c0.4,0.2,0.8,0.3,1.2,0.5c0.2,0.1,0.4,0.2,0.6,0.3
						c0.2,0.1,0.4,0.2,0.6,0.3c0.8,0.4,1.5,1,2.2,1.6c2.9,2.4,5.1,5.7,7.3,9.3c2.2,3.6,4.4,7.4,6.8,11.3c4.7,7.8,9.7,16.1,15.5,23.9
						c2.9,3.9,5.9,7.7,9.2,11.1c0.8,0.9,1.6,1.7,2.5,2.6c0.4,0.4,0.8,0.8,1.2,1.2c0.4,0.4,0.9,0.8,1.3,1.2c0.4,0.4,0.9,0.8,1.3,1.2
						c0.4,0.4,0.9,0.7,1.3,1.1c0.4,0.4,0.9,0.8,1.3,1.1c0.5,0.3,0.9,0.7,1.4,1c3.6,2.7,7.4,5,11,7.1c3.6,2,7.2,3.8,10.5,5.3
						c3.3,1.5,6.4,2.7,9.2,3.8c2.8,1,5.2,1.8,7.3,2.4c2,0.6,3.6,1.1,4.8,1.3c1.1,0.3,1.7,0.4,1.7,0.4s-0.6-0.1-1.7-0.4
						c-1.1-0.2-2.7-0.6-4.8-1.2c-2.1-0.6-4.5-1.3-7.3-2.3c-2.8-0.9-5.9-2.1-9.3-3.6c-3.4-1.4-6.9-3.1-10.6-5.1
						c-3.7-2-7.5-4.2-11.2-7c-0.5-0.3-0.9-0.7-1.4-1c-0.5-0.4-0.9-0.7-1.3-1.1c-0.4-0.4-0.9-0.7-1.3-1.1c-0.4-0.4-0.9-0.8-1.3-1.2
						c-0.4-0.4-0.9-0.8-1.3-1.2c-0.4-0.4-0.8-0.8-1.3-1.3c-0.8-0.8-1.7-1.7-2.5-2.6c-3.3-3.5-6.4-7.3-9.3-11.2
						c-5.8-7.9-10.8-16.2-15.4-24.1c-2.3-3.9-4.5-7.7-6.6-11.4c-2.1-3.6-4.3-6.9-7-9.2c-0.7-0.6-1.4-1.1-2.1-1.5
						c-0.2-0.1-0.4-0.2-0.5-0.3c-0.2-0.1-0.4-0.2-0.6-0.3c-0.4-0.2-0.8-0.3-1.1-0.5c-1.5-0.6-3.1-0.7-4.5-0.4
						c-1.4,0.2-2.7,0.8-3.8,1.4c-1.1,0.6-2,1.4-2.7,2.2c-1.4,1.6-2,3.2-2.2,4.3c-0.2,0.5-0.1,1-0.2,1.3
						C819.8,548.3,819.8,548.4,819.8,548.4z"/>
					<path id="XMLID_583_" class="st31" d="M875.6,602.6c0,0-15.7,5.2-21,7.8C849.3,612.9,865.6,599.2,875.6,602.6z"/>
					<path id="XMLID_581_" class="st31" d="M872.3,599.7h-20.4C851.9,599.7,861.6,595.6,872.3,599.7z"/>
					<g id="XMLID_728_">
						
							<linearGradient id="XMLID_108_" gradientUnits="userSpaceOnUse" x1="-3416.2544" y1="563.1464" x2="-3416.6113" y2="584.2131" gradientTransform="matrix(-0.9386 0.3451 0.3451 0.9386 -2560.8 1139.2324)">
							<stop  offset="0" style="stop-color:#FD7A7F"/>
							<stop  offset="0.5081" style="stop-color:#FE9F95"/>
							<stop  offset="1" style="stop-color:#FFC7AC"/>
						</linearGradient>
						<path id="XMLID_652_" class="st53" d="M854.3,494.9c3.4,2.8,3.1,5.4,3,8.3c0,2.7-0.4,5.5-1,8.1c-0.3,1.5-0.5,2.9-0.5,4.5
							c-2.5-1.2-9.6-4.8-15.8-8c-5.7-3-9.9-8.2-11.5-14.4c-1.5-5.7-3.3-11.4-5.6-17C833.6,481.4,845,487.7,854.3,494.9z"/>
						<path id="XMLID_725_" class="st54" d="M874.2,489.2c0.2,1,0.3,2,0,2.9c-0.6,1.8-2.7,2.7-4.6,3.2c-6,1.7-12.2,2.9-18.4,2.6
							s-12.5-2.3-17.3-6.3c-3.9-3.3-6.6-7.8-9-12.4c-6-11.8-10-24.7-11.8-37.8c-0.5-4.1-0.9-8.4,0.3-12.5c2-6.9,8.4-12,15.4-13.9
							c7-1.9,14.4-1,21.4,1.1c4,1.2,8.1,2.9,11.1,5.9c3.5,3.6,3.4,8.5,4.2,13.2c1.8,11.5,3.7,23,5.5,34.5
							C872.1,476.2,873.2,482.7,874.2,489.2z"/>
						<path id="XMLID_612_" class="st55" d="M825.4,396.3c-3.9,3.5-6.6,8.2-9.1,12.8c-5.5-1.3-11.8,1.4-14.7,6.2
							c1.2-0.7,2.3-1.4,3.5-2c-3.3,3.4-3.1,8.9-2.3,13.6c1.5,8.6,4,17,7.6,25c3,6.6,6.6,12.8,10.3,19c1.8,3,3,5.1,4.8,8.1
							c-0.7-2.7-0.9-5.7-1-8.5c-0.2-4.2,0.3-7.9,0.4-12.1c3.5-3,4-8.1,3.3-12.6c-0.7-4.5-2.4-8.8-2.6-13.3c3.2-1,6-3.7,6.9-7
							L825.4,396.3C825.5,396.2,825.5,396.3,825.4,396.3z"/>
						<path id="XMLID_721_" class="st54" d="M810.7,455.9c-0.9-0.2-1.9-0.3-2.6,0.2c-0.4,0.4-0.7,0.9-0.8,1.5
							c-1.7,5.9,0.9,12.3,4.9,17c3.4,4.1,8.4,7.4,13.7,6.8c0.8-0.1,1.6-0.3,2-1c0.3-0.6,0.2-1.3,0.1-1.9
							C826.1,469.1,821,458.4,810.7,455.9z"/>
						<ellipse id="XMLID_717_" class="st55" cx="859.5" cy="447.3" rx="1.3" ry="3.5"/>
						<path id="XMLID_712_" class="st56" d="M852.2,471c-4.3,0.3-8.5-0.3-12.8-0.9c-0.6-0.1-1.3-0.2-1.7,0.3
							c-0.2,0.2-0.3,0.5-0.4,0.7c-1.2,3.7,0.3,7.9,3.2,10.5s6.9,3.7,10.7,3.6c3.9-0.1,7.7-1.2,11.3-2.6c0.4-0.1,0.7-0.3,1-0.6
							c0.3-0.4,0.3-0.9,0.2-1.4c-0.3-3.6-1.2-7.1-2.6-10.5c0,0,2.6-2.6,2.8-2.8C860.1,469.2,856.5,470.7,852.2,471z"/>
						<path id="XMLID_706_" class="st2" d="M858.3,472c-5.9,3.6-14.6,4.2-21.4,1c0.1-0.7,0.2-1.3,0.4-2c0.1-0.3,0.2-0.5,0.4-0.7
							c0.4-0.4,1.1-0.4,1.7-0.3c4.2,0.7,8.5,1.2,12.8,0.9c2.5-0.2,4.7-0.7,6.8-1.5C859,470.8,858.9,471.8,858.3,472z"/>
						<path id="XMLID_702_" class="st57" d="M854.1,485c-0.9,0.1-1.9,0.2-2.9,0.2c-3.9,0.1-7.9-1-10.7-3.6c-1.2-1.1-2.2-2.5-2.8-4.1
							C843.8,477.6,850.1,480.4,854.1,485z"/>
						
							<linearGradient id="XMLID_109_" gradientUnits="userSpaceOnUse" x1="-1033.6959" y1="455.8691" x2="-1010.1271" y2="455.8691" gradientTransform="matrix(-1 0 0 1 -161.5445 0)">
							<stop  offset="0" style="stop-color:#F2655C"/>
							<stop  offset="1" style="stop-color:#FFC4A0"/>
						</linearGradient>
						<path id="XMLID_697_" class="st58" d="M866.3,449.9c0.8-0.1,1.6-0.2,2.3,0c0.8,0.2,1.5,0.7,2,1.3c1.8,1.9,2,5,0.9,7.3
							c-1.1,2.4-3.3,4.1-5.8,5c-1.6,0.6-3.4,0.9-5.1,0.8c-3.3-0.1-6.5-1.4-9.6-2.9c-0.6-0.3-1.2-0.6-1.5-1.1
							c-0.4-0.5-0.5-1.1-0.6-1.7c-0.4-2.7-1.1-12.3,3.6-11.2c2,0.5,3.6,1.8,5.7,2.2C860.9,450.1,863.6,450.2,866.3,449.9z"/>
						<path id="XMLID_696_" class="st2" d="M852.5,447.5c0,0,0.1,0,0.4,0.1c0.2,0.1,0.6,0.2,1,0.4c0.4,0.2,0.9,0.5,1.5,0.7
							c0.6,0.3,1.3,0.6,2.1,0.8c0.8,0.2,1.7,0.3,2.6,0.4c0.9,0.1,1.9,0.2,2.9,0.2c1,0,2.1,0,3.1-0.1c0.5,0,1.1-0.1,1.6-0.1
							c0.5,0,1,0.1,1.5,0.3c0.9,0.5,1.6,1.3,2.1,2.2c0.5,0.9,0.7,2,0.7,2.9c0,1-0.2,1.9-0.6,2.8c-0.3,0.9-0.8,1.6-1.4,2.2
							c-1.1,1.2-2.2,2-3,2.4c-0.4,0.2-0.8,0.4-1,0.5c-0.2,0.1-0.4,0.2-0.4,0.2s0.1,0,0.4-0.1c0.2-0.1,0.6-0.2,1-0.4
							c0.8-0.4,2-1.1,3.2-2.3c0.5-0.6,1.1-1.4,1.5-2.2c0.4-0.9,0.6-1.9,0.6-2.9c0-1-0.2-2.1-0.7-3.1c-0.5-1-1.2-1.9-2.3-2.4
							c-0.5-0.3-1.1-0.4-1.7-0.4c-0.6,0-1.1,0.1-1.6,0.1c-1.1,0.1-2.1,0.2-3.1,0.2c-1,0-2,0-2.9-0.1c-0.9-0.1-1.8-0.2-2.6-0.4
							c-0.8-0.2-1.5-0.5-2.1-0.8c-0.6-0.3-1.1-0.5-1.6-0.7c-0.4-0.2-0.8-0.3-1-0.4C852.6,447.5,852.5,447.5,852.5,447.5z"/>
						<path id="XMLID_693_" class="st55" d="M856.2,438.7c0-0.7-0.2-1.7-0.2-2.4c3.6-0.4,7.3,1.1,9.7,3.8
							C862.9,438.7,859.3,438,856.2,438.7z"/>
						<path id="XMLID_690_" class="st55" d="M846.6,439.9c-0.1-1-0.2-2-0.3-3c-4.5,1.1-8.4,4.6-9.7,9.1c0.7-2,2.3-3.6,4.1-4.6
							C842.5,440.4,844.5,440,846.6,439.9z"/>
						<ellipse id="XMLID_687_" class="st55" cx="845.1" cy="450.2" rx="1.5" ry="3.6"/>
						<path id="XMLID_670_" class="st59" d="M813.4,462c-0.5-0.2-1-0.4-1.5-0.3c-0.8,0.1-1.4,0.8-1.7,1.5c-0.3,0.7-0.2,1.6-0.2,2.3
							c0.2-1,0.6-2.2,1.6-2.3c0.4,0,0.7,0.1,1,0.3c1.6,0.8,3,1.8,4.1,3.2c-1.1-0.3-2.4,0.5-2.9,1.5c-0.5,1.1-0.2,2.4,0.3,3.4
							c0.6,1,1.5,1.8,2.4,2.6c1.1,0.9,2.3,1.7,3.6,2s2.9,0.1,3.9-0.9c-1.6-0.6-3.1-1.4-4.4-2.5c-0.4-0.3-0.7-0.6-0.8-1.1
							c-0.1-0.6,0.3-1.2,0.7-1.7c0.7-0.7,1.5-1.2,2.4-1.6C819.7,465.9,816.9,463.4,813.4,462z"/>
						<path id="XMLID_587_" class="st60" d="M819.9,439.4c-0.5,1.1,0.3,2.5-0.3,3.6c-0.3,0.5-0.7,0.7-1,0.8
							c-0.9,0.3-1.7,0.6-2.6,0.8c-0.8,0.3-1.7,0.5-2.5,0.4c-0.8-0.2-1.5-0.9-1.7-2.1c-0.2,0.9-0.2,1.9,0.1,2.6
							c-0.7-0.7-1.3-1.5-2-2.2c0.8,3.1,2.2,5.7,4,7.5c-0.3-0.9-0.7-1.7-1.2-2.4c1.3,1,3,0.6,4.7,0c0.9-0.4,1.8-0.9,2.6-1.8
							c0.8-0.9,1.4-2.3,1.4-3.7c1.1,0.7,2.3,1.4,3.4,2.1c0.1,0.1,0.3,0.2,0.5,0.1c0.4-0.2,0.5-1.1,0.5-1.7c-0.1-2.3-0.5-4.8-1.4-6.5
							c-0.3,0.6-0.8,2.2-1.3,2.5C822.1,439.9,820.8,437.2,819.9,439.4z"/>
						<path id="XMLID_585_" class="st2" d="M858.4,445.7c0-0.1,0.3-0.1,0.3,0c0.1,0.4,0.3,0.7,0.2,1.1c-0.1,0.5-0.7,0.5-0.8,0
							C858.1,446.5,858.3,446.1,858.4,445.7z"/>
						<path id="XMLID_584_" class="st2" d="M843.6,448.3c0.1-0.2,0.3-0.2,0.5-0.1c0.3,0.4,0.3,1,0.4,1.4c0,0.2,0,0.4-0.3,0.5
							c0,0-0.1,0-0.1,0c-0.2,0-0.4-0.2-0.4-0.4C843.6,449.3,843.5,448.7,843.6,448.3z"/>
					</g>
					<g id="XMLID_591_">
						<path id="XMLID_639_" class="st35" d="M896.9,404.2c0,0,15.6,2.4,11,12.7c0,0-18.1-2.7-38.9,3.8
							C869,420.7,879,405.4,896.9,404.2z"/>
						<path id="XMLID_636_" class="st35" d="M809,448.4c-3.5-5.8-6.2-12.1-8-18.6c-1.9-6.9-2.6-14.7,1.2-20.7
							c2.5-3.9,6.6-6.4,10.5-8.8c7.6-4.6,15.3-9.3,24-11.3s18.6-0.6,24.9,5.7c5.3,5.2,7.2,12.8,9,20
							C848.2,423.7,828,433.7,809,448.4z"/>
						<path id="XMLID_632_" class="st36" d="M823.9,438c17.1-3.8,36.1-6.8,53.6-5.9c-0.1-5.9,1.3-11.8,3.9-17c1.5-3,3.5-5.8,6.1-7.9
							c2.6-2.1,6-3.3,9.4-3C883.3,403.3,843.7,423.8,823.9,438z"/>
					</g>
				</g>
			</g>
		</g>
	</g>
</g>
</svg>
