<?xml version="1.0" encoding="utf-8"?>
<!-- Generator: Adobe Illustrator 19.0.0, SVG Export Plug-In . SVG Version: 6.00 Build 0)  -->
<svg version="1.1" id="Layer_1" xmlns="http://www.w3.org/2000/svg" xmlns:xlink="http://www.w3.org/1999/xlink" x="0px" y="0px"
	 width="1400px" height="980px" viewBox="0 0 1400 980" style="enable-background:new 0 0 1400 980;" xml:space="preserve">
<style type="text/css">
	.st0{clip-path:url(#XMLID_80_);}
	.st1{fill:#DAEFF7;}
	.st2{fill:#702B0D;}
	.st3{fill:url(#XMLID_81_);}
	.st4{clip-path:url(#XMLID_82_);}
	.st5{fill:url(#XMLID_83_);}
	.st6{fill:url(#XMLID_84_);}
	.st7{fill:url(#XMLID_85_);}
	.st8{fill:url(#XMLID_97_);}
	.st9{fill:url(#XMLID_350_);}
	.st10{fill:url(#XMLID_353_);}
	.st11{fill:url(#XMLID_368_);}
	.st12{fill:url(#XMLID_369_);}
	.st13{fill:url(#XMLID_371_);}
	.st14{fill:url(#XMLID_372_);}
	.st15{fill:url(#XMLID_373_);}
	.st16{fill:url(#XMLID_374_);}
	.st17{fill:url(#XMLID_375_);}
	.st18{fill:url(#XMLID_376_);}
	.st19{fill:url(#XMLID_377_);}
	.st20{fill:url(#XMLID_378_);}
	.st21{fill:url(#XMLID_383_);}
	.st22{fill:url(#XMLID_384_);}
	.st23{fill:url(#XMLID_385_);}
	.st24{fill:url(#XMLID_398_);}
	.st25{fill:url(#XMLID_399_);}
	.st26{fill:url(#XMLID_400_);}
	.st27{fill:url(#XMLID_401_);}
	.st28{fill:url(#XMLID_402_);}
	.st29{fill:url(#XMLID_403_);}
	.st30{fill:url(#XMLID_404_);}
	.st31{fill:url(#XMLID_405_);}
	.st32{fill:url(#XMLID_406_);}
	.st33{fill:url(#XMLID_407_);}
	.st34{fill:url(#XMLID_408_);}
	.st35{fill:#BC5C29;}
	.st36{fill:url(#XMLID_409_);}
	.st37{fill:url(#XMLID_410_);}
	.st38{fill:url(#XMLID_411_);}
	.st39{fill:url(#XMLID_412_);}
	.st40{fill:url(#XMLID_413_);}
	.st41{fill:url(#XMLID_414_);}
	.st42{fill:url(#XMLID_415_);}
	.st43{fill:url(#XMLID_416_);}
	.st44{fill:#F7941E;}
	.st45{fill:#C17434;}
	.st46{fill:#FFFFFF;}
	.st47{fill:url(#XMLID_417_);}
	.st48{fill:url(#XMLID_418_);}
	.st49{fill:url(#XMLID_419_);}
	.st50{fill:url(#XMLID_420_);}
	.st51{fill:url(#XMLID_421_);}
	.st52{fill:url(#XMLID_422_);}
	.st53{fill:url(#XMLID_423_);}
	.st54{fill:url(#XMLID_424_);}
	.st55{fill:url(#XMLID_425_);}
	.st56{fill:url(#XMLID_426_);}
	.st57{fill:url(#XMLID_427_);}
	.st58{fill:#4D1C00;}
	.st59{fill:url(#XMLID_428_);}
	.st60{fill:url(#XMLID_429_);}
	.st61{fill:url(#XMLID_430_);}
	.st62{fill:url(#XMLID_431_);}
	.st63{fill:url(#XMLID_432_);}
	.st64{fill:url(#XMLID_433_);}
	.st65{fill:url(#XMLID_434_);}
	.st66{fill:url(#XMLID_435_);}
	.st67{fill:url(#XMLID_436_);}
	.st68{fill:url(#XMLID_437_);}
	.st69{fill:url(#XMLID_438_);}
	.st70{fill:#592122;}
	.st71{fill:url(#XMLID_439_);}
	.st72{fill:url(#XMLID_440_);}
	.st73{fill:url(#XMLID_441_);}
	.st74{fill:#351201;}
	.st75{fill:url(#XMLID_442_);}
	.st76{fill:url(#XMLID_443_);}
	.st77{fill:#8F92A3;}
	.st78{fill:url(#XMLID_444_);}
	.st79{fill:url(#XMLID_445_);}
	.st80{fill:url(#XMLID_446_);}
	.st81{fill:url(#XMLID_447_);}
	.st82{fill:url(#XMLID_448_);}
	.st83{fill:url(#XMLID_449_);}
	.st84{fill:url(#XMLID_450_);}
	.st85{fill:url(#XMLID_451_);}
	.st86{fill:url(#XMLID_452_);}
	.st87{fill:#B5B5C4;}
	.st88{fill:#CECEDD;}
	.st89{fill:#74787C;}
	.st90{fill:#2D4760;}
	.st91{fill:#409ADD;}
	.st92{fill:#065DAD;}
	.st93{fill:#8C7E72;}
	.st94{fill:#92D0F7;}
	.st95{fill:url(#XMLID_453_);}
	.st96{fill:#752F39;}
	.st97{fill:url(#XMLID_454_);}
	.st98{fill:url(#XMLID_455_);}
	.st99{fill:url(#XMLID_456_);}
	.st100{fill:url(#XMLID_457_);}
	.st101{fill:url(#XMLID_458_);}
	.st102{fill:#B80F3A;}
	.st103{fill:#FE4C62;}
	.st104{fill:url(#XMLID_459_);}
	.st105{fill:url(#XMLID_460_);}
	.st106{fill:#22303D;}
	.st107{fill:#2A776C;}
	.st108{fill:#48A095;}
	.st109{fill:#0D596D;}
	.st110{fill:#89D0CA;}
	.st111{fill:#B1F1F1;}
	.st112{fill:url(#XMLID_461_);}
	.st113{fill:url(#XMLID_462_);}
	.st114{fill:url(#XMLID_463_);}
	.st115{fill:url(#XMLID_464_);}
	.st116{fill:#802C2C;}
	.st117{fill:url(#XMLID_465_);}
	.st118{fill:url(#XMLID_466_);}
	.st119{fill:url(#XMLID_467_);}
	.st120{fill:url(#XMLID_468_);}
	.st121{fill:#9E5721;}
	.st122{fill:#678A86;}
	.st123{fill:#B5BCBB;}
	.st124{fill:#54261C;}
	.st125{fill:#C46A27;}
	.st126{fill:#F4A75B;}
	.st127{fill:#CE7E2E;}
	.st128{fill:#A7A9AC;}
	.st129{fill:#1A1A1A;}
	.st130{fill:#E6E6E6;}
	.st131{clip-path:url(#XMLID_469_);fill:#FFFFFF;}
</style>
<g id="XMLID_293_">
	<defs>
		<rect id="XMLID_489_" width="1400" height="980"/>
	</defs>
	<clipPath id="XMLID_80_">
		<use xlink:href="#XMLID_489_"  style="overflow:visible;"/>
	</clipPath>
	<g id="XMLID_295_" class="st0">
		<rect id="XMLID_996_" y="0" class="st1" width="1400" height="980"/>
		<g id="XMLID_1650_">
			<polygon id="XMLID_1813_" class="st2" points="-902.8,119.7 -796.7,166.2 122.9,166.2 254.9,120.2 -176.1,-185.8 -661.3,-84.2 
							"/>
			<linearGradient id="XMLID_81_" gradientUnits="userSpaceOnUse" x1="-329.7434" y1="591.0441" x2="-329.7434" y2="-247.3587">
				<stop  offset="0" style="stop-color:#DA4235"/>
				<stop  offset="0.4878" style="stop-color:#CD4137"/>
				<stop  offset="1" style="stop-color:#BB403B"/>
			</linearGradient>
			<polygon id="XMLID_1812_" class="st3" points="-347.4,-334.9 -785,-24.2 -785,585.4 125.5,585.4 125.5,-24.2 			"/>
			<g id="XMLID_1702_">
				<defs>
					<polygon id="XMLID_1703_" points="-347.4,-334.9 -785,-24.2 -785,585.4 125.5,585.4 125.5,-24.2 					"/>
				</defs>
				<clipPath id="XMLID_82_">
					<use xlink:href="#XMLID_1703_"  style="overflow:visible;"/>
				</clipPath>
				<g id="XMLID_1704_" class="st4">
					<g id="XMLID_903_">
						<g id="XMLID_948_">
							<linearGradient id="XMLID_83_" gradientUnits="userSpaceOnUse" x1="-348.0092" y1="-265.6219" x2="-348.0092" y2="571.7864">
								<stop  offset="0" style="stop-color:#6B1F29"/>
								<stop  offset="1" style="stop-color:#681F29;stop-opacity:0"/>
							</linearGradient>
							<rect id="XMLID_949_" x="-932.9" y="-288.6" class="st5" width="1169.7" height="17.2"/>
						</g>
						<g id="XMLID_946_">
							<linearGradient id="XMLID_84_" gradientUnits="userSpaceOnUse" x1="-348.0092" y1="-265.6219" x2="-348.0092" y2="571.7864">
								<stop  offset="0" style="stop-color:#6B1F29"/>
								<stop  offset="1" style="stop-color:#681F29;stop-opacity:0"/>
							</linearGradient>
							<rect id="XMLID_947_" x="-932.9" y="-246.8" class="st6" width="1169.7" height="17.2"/>
						</g>
						<g id="XMLID_944_">
							<linearGradient id="XMLID_85_" gradientUnits="userSpaceOnUse" x1="-348.0092" y1="-265.6219" x2="-348.0092" y2="571.7864">
								<stop  offset="0" style="stop-color:#6B1F29"/>
								<stop  offset="1" style="stop-color:#681F29;stop-opacity:0"/>
							</linearGradient>
							<rect id="XMLID_945_" x="-932.9" y="-204.9" class="st7" width="1169.7" height="17.2"/>
						</g>
						<g id="XMLID_942_">
							<linearGradient id="XMLID_97_" gradientUnits="userSpaceOnUse" x1="-348.0092" y1="-265.6219" x2="-348.0092" y2="571.7864">
								<stop  offset="0" style="stop-color:#6B1F29"/>
								<stop  offset="1" style="stop-color:#681F29;stop-opacity:0"/>
							</linearGradient>
							<rect id="XMLID_943_" x="-932.9" y="-163.1" class="st8" width="1169.7" height="17.2"/>
						</g>
						<g id="XMLID_940_">
							
								<linearGradient id="XMLID_350_" gradientUnits="userSpaceOnUse" x1="-348.0092" y1="-265.6219" x2="-348.0092" y2="571.7864">
								<stop  offset="0" style="stop-color:#6B1F29"/>
								<stop  offset="1" style="stop-color:#681F29;stop-opacity:0"/>
							</linearGradient>
							<rect id="XMLID_941_" x="-932.9" y="-121.2" class="st9" width="1169.7" height="17.2"/>
						</g>
						<g id="XMLID_938_">
							
								<linearGradient id="XMLID_353_" gradientUnits="userSpaceOnUse" x1="-348.0092" y1="-265.6219" x2="-348.0092" y2="571.7864">
								<stop  offset="0" style="stop-color:#6B1F29"/>
								<stop  offset="1" style="stop-color:#681F29;stop-opacity:0"/>
							</linearGradient>
							<rect id="XMLID_939_" x="-932.9" y="-79.4" class="st10" width="1169.7" height="17.2"/>
						</g>
						<g id="XMLID_934_">
							
								<linearGradient id="XMLID_368_" gradientUnits="userSpaceOnUse" x1="-348.0092" y1="-265.6219" x2="-348.0092" y2="571.7864">
								<stop  offset="0" style="stop-color:#6B1F29"/>
								<stop  offset="1" style="stop-color:#681F29;stop-opacity:0"/>
							</linearGradient>
							<rect id="XMLID_935_" x="-932.9" y="-37.6" class="st11" width="1169.7" height="17.2"/>
						</g>
						<g id="XMLID_932_">
							
								<linearGradient id="XMLID_369_" gradientUnits="userSpaceOnUse" x1="-348.0092" y1="-265.6219" x2="-348.0092" y2="571.7864">
								<stop  offset="0" style="stop-color:#6B1F29"/>
								<stop  offset="1" style="stop-color:#681F29;stop-opacity:0"/>
							</linearGradient>
							<rect id="XMLID_933_" x="-932.9" y="4.3" class="st12" width="1169.7" height="17.2"/>
						</g>
						<g id="XMLID_928_">
							
								<linearGradient id="XMLID_371_" gradientUnits="userSpaceOnUse" x1="-348.0092" y1="-265.6219" x2="-348.0092" y2="571.7864">
								<stop  offset="0" style="stop-color:#6B1F29"/>
								<stop  offset="1" style="stop-color:#681F29;stop-opacity:0"/>
							</linearGradient>
							<rect id="XMLID_931_" x="-932.9" y="46.1" class="st13" width="1169.7" height="17.2"/>
						</g>
						<g id="XMLID_926_">
							
								<linearGradient id="XMLID_372_" gradientUnits="userSpaceOnUse" x1="-348.0092" y1="-265.6219" x2="-348.0092" y2="571.7864">
								<stop  offset="0" style="stop-color:#6B1F29"/>
								<stop  offset="1" style="stop-color:#681F29;stop-opacity:0"/>
							</linearGradient>
							<rect id="XMLID_927_" x="-932.9" y="88" class="st14" width="1169.7" height="17.2"/>
						</g>
						<g id="XMLID_924_">
							<linearGradient id="XMLID_373_" gradientUnits="userSpaceOnUse" x1="-348.0092" y1="-265.6224" x2="-348.0092" y2="571.786">
								<stop  offset="0" style="stop-color:#6B1F29"/>
								<stop  offset="1" style="stop-color:#681F29;stop-opacity:0"/>
							</linearGradient>
							<rect id="XMLID_925_" x="-932.9" y="129.8" class="st15" width="1169.7" height="17.2"/>
						</g>
						<g id="XMLID_922_">
							
								<linearGradient id="XMLID_374_" gradientUnits="userSpaceOnUse" x1="-348.0092" y1="-265.6219" x2="-348.0092" y2="571.7864">
								<stop  offset="0" style="stop-color:#6B1F29"/>
								<stop  offset="1" style="stop-color:#681F29;stop-opacity:0"/>
							</linearGradient>
							<rect id="XMLID_923_" x="-932.9" y="171.7" class="st16" width="1169.7" height="17.2"/>
						</g>
						<g id="XMLID_920_">
							
								<linearGradient id="XMLID_375_" gradientUnits="userSpaceOnUse" x1="-348.0092" y1="-265.6219" x2="-348.0092" y2="571.7864">
								<stop  offset="0" style="stop-color:#6B1F29"/>
								<stop  offset="1" style="stop-color:#681F29;stop-opacity:0"/>
							</linearGradient>
							<rect id="XMLID_921_" x="-932.9" y="213.5" class="st17" width="1169.7" height="17.2"/>
						</g>
						<g id="XMLID_918_">
							
								<linearGradient id="XMLID_376_" gradientUnits="userSpaceOnUse" x1="-348.0092" y1="-265.6219" x2="-348.0092" y2="571.7864">
								<stop  offset="0" style="stop-color:#6B1F29"/>
								<stop  offset="1" style="stop-color:#681F29;stop-opacity:0"/>
							</linearGradient>
							<rect id="XMLID_919_" x="-932.9" y="255.4" class="st18" width="1169.7" height="17.2"/>
						</g>
						<g id="XMLID_916_">
							
								<linearGradient id="XMLID_377_" gradientUnits="userSpaceOnUse" x1="-348.0092" y1="-265.6219" x2="-348.0092" y2="571.7864">
								<stop  offset="0" style="stop-color:#6B1F29"/>
								<stop  offset="1" style="stop-color:#681F29;stop-opacity:0"/>
							</linearGradient>
							<rect id="XMLID_917_" x="-932.9" y="297.2" class="st19" width="1169.7" height="17.2"/>
						</g>
						<g id="XMLID_914_">
							
								<linearGradient id="XMLID_378_" gradientUnits="userSpaceOnUse" x1="-348.0092" y1="-265.6219" x2="-348.0092" y2="571.7864">
								<stop  offset="0" style="stop-color:#6B1F29"/>
								<stop  offset="1" style="stop-color:#681F29;stop-opacity:0"/>
							</linearGradient>
							<rect id="XMLID_915_" x="-932.9" y="339.1" class="st20" width="1169.7" height="17.2"/>
						</g>
						<g id="XMLID_912_">
							
								<linearGradient id="XMLID_383_" gradientUnits="userSpaceOnUse" x1="-348.0092" y1="-265.6219" x2="-348.0092" y2="571.7864">
								<stop  offset="0" style="stop-color:#6B1F29"/>
								<stop  offset="1" style="stop-color:#681F29;stop-opacity:0"/>
							</linearGradient>
							<rect id="XMLID_913_" x="-932.9" y="380.9" class="st21" width="1169.7" height="17.2"/>
						</g>
						<g id="XMLID_910_">
							
								<linearGradient id="XMLID_384_" gradientUnits="userSpaceOnUse" x1="-348.0092" y1="-265.6219" x2="-348.0092" y2="571.7864">
								<stop  offset="0" style="stop-color:#6B1F29"/>
								<stop  offset="1" style="stop-color:#681F29;stop-opacity:0"/>
							</linearGradient>
							<rect id="XMLID_911_" x="-932.9" y="422.7" class="st22" width="1169.7" height="17.2"/>
						</g>
						<g id="XMLID_908_">
							
								<linearGradient id="XMLID_385_" gradientUnits="userSpaceOnUse" x1="-348.0092" y1="-265.6219" x2="-348.0092" y2="571.7864">
								<stop  offset="0" style="stop-color:#6B1F29"/>
								<stop  offset="1" style="stop-color:#681F29;stop-opacity:0"/>
							</linearGradient>
							<rect id="XMLID_909_" x="-932.9" y="464.6" class="st23" width="1169.7" height="17.2"/>
						</g>
						<g id="XMLID_906_">
							
								<linearGradient id="XMLID_398_" gradientUnits="userSpaceOnUse" x1="-348.0092" y1="-265.6219" x2="-348.0092" y2="571.7864">
								<stop  offset="0" style="stop-color:#6B1F29"/>
								<stop  offset="1" style="stop-color:#681F29;stop-opacity:0"/>
							</linearGradient>
							<rect id="XMLID_907_" x="-932.9" y="506.4" class="st24" width="1169.7" height="17.2"/>
						</g>
						<g id="XMLID_904_">
							
								<linearGradient id="XMLID_399_" gradientUnits="userSpaceOnUse" x1="-348.0092" y1="-265.6219" x2="-348.0092" y2="571.7864">
								<stop  offset="0" style="stop-color:#6B1F29"/>
								<stop  offset="1" style="stop-color:#681F29;stop-opacity:0"/>
							</linearGradient>
							<rect id="XMLID_905_" x="-932.9" y="548.3" class="st25" width="1169.7" height="17.2"/>
						</g>
					</g>
				</g>
			</g>
			<linearGradient id="XMLID_400_" gradientUnits="userSpaceOnUse" x1="-328.6139" y1="-239.1898" x2="-328.6139" y2="-19.8893">
				<stop  offset="0" style="stop-color:#CF402F"/>
				<stop  offset="1" style="stop-color:#963E26"/>
			</linearGradient>
			<polygon id="XMLID_1701_" class="st26" points="-334.7,-229.6 -619.9,-20.4 -37.3,-20.4 			"/>
			<g id="XMLID_1694_">
				<linearGradient id="XMLID_401_" gradientUnits="userSpaceOnUse" x1="-548.2958" y1="101.4731" x2="-438.1209" y2="101.4731">
					<stop  offset="0" style="stop-color:#FFFFFF"/>
					<stop  offset="1" style="stop-color:#BCCEE6"/>
				</linearGradient>
				<rect id="XMLID_1698_" x="-548.3" y="13.4" class="st27" width="110.2" height="176.1"/>
				<linearGradient id="XMLID_402_" gradientUnits="userSpaceOnUse" x1="-493.2084" y1="28.6462" x2="-493.2084" y2="165.2432">
					<stop  offset="0" style="stop-color:#CF402F"/>
					<stop  offset="1" style="stop-color:#963E26"/>
				</linearGradient>
				<rect id="XMLID_1697_" x="-539.3" y="27.8" class="st28" width="92.2" height="147.3"/>
				<linearGradient id="XMLID_403_" gradientUnits="userSpaceOnUse" x1="-493.2084" y1="36.7887" x2="-493.2084" y2="166.1574">
					<stop  offset="0" style="stop-color:#F6DE7A"/>
					<stop  offset="1" style="stop-color:#FF8B5C"/>
				</linearGradient>
				<rect id="XMLID_1696_" x="-533.7" y="36.8" class="st29" width="80.9" height="129.4"/>
				<linearGradient id="XMLID_404_" gradientUnits="userSpaceOnUse" x1="-493.2084" y1="28.6462" x2="-493.2084" y2="165.2432">
					<stop  offset="0" style="stop-color:#CF402F"/>
					<stop  offset="1" style="stop-color:#963E26"/>
				</linearGradient>
				<rect id="XMLID_1695_" x="-533.7" y="96.8" class="st30" width="80.9" height="9.4"/>
			</g>
			<g id="XMLID_1687_">
				<linearGradient id="XMLID_405_" gradientUnits="userSpaceOnUse" x1="-257.6815" y1="101.4731" x2="-147.5066" y2="101.4731">
					<stop  offset="0" style="stop-color:#FFFFFF"/>
					<stop  offset="1" style="stop-color:#BCCEE6"/>
				</linearGradient>
				<rect id="XMLID_1691_" x="-257.7" y="13.4" class="st31" width="110.2" height="176.1"/>
				<linearGradient id="XMLID_406_" gradientUnits="userSpaceOnUse" x1="-202.594" y1="171.7049" x2="-202.594" y2="27.6933">
					<stop  offset="0" style="stop-color:#963E26"/>
					<stop  offset="1" style="stop-color:#CF402F"/>
				</linearGradient>
				<rect id="XMLID_1690_" x="-248.7" y="27.8" class="st32" width="92.2" height="147.3"/>
				<linearGradient id="XMLID_407_" gradientUnits="userSpaceOnUse" x1="-202.594" y1="36.7887" x2="-202.594" y2="166.1574">
					<stop  offset="0" style="stop-color:#F6DE7A"/>
					<stop  offset="1" style="stop-color:#FF8B5C"/>
				</linearGradient>
				<rect id="XMLID_1689_" x="-243.1" y="36.8" class="st33" width="80.9" height="129.4"/>
				<linearGradient id="XMLID_408_" gradientUnits="userSpaceOnUse" x1="-202.594" y1="171.7049" x2="-202.594" y2="27.6933">
					<stop  offset="0" style="stop-color:#963E26"/>
					<stop  offset="1" style="stop-color:#CF402F"/>
				</linearGradient>
				<rect id="XMLID_1688_" x="-243.1" y="96.8" class="st34" width="80.9" height="9.4"/>
			</g>
			<polygon id="XMLID_1684_" class="st35" points="-829.6,166.2 170.1,166.2 113.9,175.1 -773.4,175.1 			"/>
			<g id="XMLID_1649_">
				<g id="XMLID_873_">
					<g id="XMLID_886_">
						<linearGradient id="XMLID_409_" gradientUnits="userSpaceOnUse" x1="-800.4052" y1="161.0247" x2="-800.4052" y2="247.0286">
							<stop  offset="0" style="stop-color:#351201"/>
							<stop  offset="1" style="stop-color:#FF8B5C"/>
						</linearGradient>
						<rect id="XMLID_887_" x="-806.3" y="155.3" class="st36" width="11.8" height="108.9"/>
					</g>
					<linearGradient id="XMLID_410_" gradientUnits="userSpaceOnUse" x1="-696.0389" y1="161.0247" x2="-696.0389" y2="247.0286">
						<stop  offset="0" style="stop-color:#351201"/>
						<stop  offset="1" style="stop-color:#FF8B5C"/>
					</linearGradient>
					<rect id="XMLID_885_" x="-701.9" y="155.3" class="st37" width="11.8" height="108.9"/>
					<linearGradient id="XMLID_411_" gradientUnits="userSpaceOnUse" x1="-591.6725" y1="161.0247" x2="-591.6725" y2="247.0286">
						<stop  offset="0" style="stop-color:#351201"/>
						<stop  offset="1" style="stop-color:#FF8B5C"/>
					</linearGradient>
					<rect id="XMLID_884_" x="-597.6" y="155.3" class="st38" width="11.8" height="108.9"/>
					<linearGradient id="XMLID_412_" gradientUnits="userSpaceOnUse" x1="-487.3062" y1="161.0247" x2="-487.3062" y2="247.0286">
						<stop  offset="0" style="stop-color:#351201"/>
						<stop  offset="1" style="stop-color:#FF8B5C"/>
					</linearGradient>
					<rect id="XMLID_883_" x="-493.2" y="155.3" class="st39" width="11.8" height="108.9"/>
					<linearGradient id="XMLID_413_" gradientUnits="userSpaceOnUse" x1="-382.9398" y1="161.0247" x2="-382.9398" y2="247.0286">
						<stop  offset="0" style="stop-color:#351201"/>
						<stop  offset="1" style="stop-color:#FF8B5C"/>
					</linearGradient>
					<rect id="XMLID_882_" x="-388.8" y="155.3" class="st40" width="11.8" height="108.9"/>
					<linearGradient id="XMLID_414_" gradientUnits="userSpaceOnUse" x1="-278.5735" y1="161.0247" x2="-278.5735" y2="247.0286">
						<stop  offset="0" style="stop-color:#351201"/>
						<stop  offset="1" style="stop-color:#FF8B5C"/>
					</linearGradient>
					<rect id="XMLID_881_" x="-284.5" y="155.3" class="st41" width="11.8" height="108.9"/>
					<linearGradient id="XMLID_415_" gradientUnits="userSpaceOnUse" x1="-174.2071" y1="161.0247" x2="-174.2071" y2="247.0286">
						<stop  offset="0" style="stop-color:#351201"/>
						<stop  offset="1" style="stop-color:#FF8B5C"/>
					</linearGradient>
					<rect id="XMLID_880_" x="-180.1" y="155.3" class="st42" width="11.8" height="108.9"/>
					<g id="XMLID_878_">
						<linearGradient id="XMLID_416_" gradientUnits="userSpaceOnUse" x1="-69.8408" y1="161.0247" x2="-69.8408" y2="247.0286">
							<stop  offset="0" style="stop-color:#351201"/>
							<stop  offset="1" style="stop-color:#FF8B5C"/>
						</linearGradient>
						<rect id="XMLID_879_" x="-75.7" y="155.3" class="st43" width="11.8" height="108.9"/>
					</g>
					<g id="XMLID_876_">
						<rect id="XMLID_877_" x="28.6" y="155.3" class="st44" width="11.8" height="108.9"/>
					</g>
					<g id="XMLID_874_">
						<rect id="XMLID_875_" x="133" y="155.3" class="st44" width="11.8" height="108.9"/>
					</g>
				</g>
			</g>
			<rect id="XMLID_1646_" x="-829.6" y="249" class="st45" width="999.7" height="30.4"/>
			<rect id="XMLID_1643_" x="-829.6" y="140.1" class="st45" width="999.7" height="30.4"/>
			<path id="XMLID_1640_" class="st46" d="M-829.6,140.1c0,0,62.5-0.4,156.2-0.9c46.9-0.2,101.5-0.3,160.1-0.5
				c58.6-0.1,121.1-0.1,183.5-0.2c62.5,0.1,125,0.2,183.5,0.2c58.6,0.2,113.2,0.4,160.1,0.5c93.7,0.6,156.2,0.9,156.2,0.9
				s-62.5,0.4-156.2,0.9c-46.9,0.2-101.5,0.3-160.1,0.5c-58.6,0.1-121.1,0.1-183.5,0.2c-62.5-0.1-125-0.2-183.5-0.2
				c-58.6-0.2-113.2-0.4-160.1-0.5C-767.1,140.5-829.6,140.1-829.6,140.1z"/>
			<path id="XMLID_1637_" class="st46" d="M-829.6,249c0,0,62.5-0.4,156.2-0.9c46.9-0.2,101.5-0.3,160.1-0.5
				c58.6-0.1,121.1-0.1,183.5-0.2c62.5,0.1,125,0.2,183.5,0.2c58.6,0.2,113.2,0.4,160.1,0.5c93.7,0.6,156.2,0.9,156.2,0.9
				s-62.5,0.4-156.2,0.9c-46.9,0.2-101.5,0.3-160.1,0.5c-58.6,0.1-121.1,0.1-183.5,0.2c-62.5-0.1-125-0.2-183.5-0.2
				c-58.6-0.2-113.2-0.4-160.1-0.5C-767.1,249.4-829.6,249-829.6,249z"/>
			<g id="XMLID_1624_">
				<linearGradient id="XMLID_417_" gradientUnits="userSpaceOnUse" x1="-273.7946" y1="-195.3573" x2="-273.7946" y2="-33.2181">
					<stop  offset="0" style="stop-color:#F6DE7A"/>
					<stop  offset="1" style="stop-color:#FF8B5C"/>
				</linearGradient>
				<polygon id="XMLID_1634_" class="st47" points="-228.4,-125.8 -319.2,-186.8 -319.2,-35.9 -303.6,-35.9 				"/>
				<linearGradient id="XMLID_418_" gradientUnits="userSpaceOnUse" x1="-401.8324" y1="-195.3573" x2="-401.8324" y2="-33.2181">
					<stop  offset="0" style="stop-color:#F6DE7A"/>
					<stop  offset="1" style="stop-color:#FF8B5C"/>
				</linearGradient>
				<polygon id="XMLID_1631_" class="st48" points="-445.9,-121.9 -373.9,-35.9 -357.7,-35.9 -357.7,-185.8 				"/>
				<linearGradient id="XMLID_419_" gradientUnits="userSpaceOnUse" x1="-478.0814" y1="-195.3573" x2="-478.0814" y2="-33.2181">
					<stop  offset="0" style="stop-color:#F6DE7A"/>
					<stop  offset="1" style="stop-color:#FF8B5C"/>
				</linearGradient>
				<polygon id="XMLID_1628_" class="st49" points="-456.8,-114.1 -564.8,-35.9 -391.4,-35.9 				"/>
				<linearGradient id="XMLID_420_" gradientUnits="userSpaceOnUse" x1="-190.4496" y1="-195.3573" x2="-190.4496" y2="-33.2181">
					<stop  offset="0" style="stop-color:#F6DE7A"/>
					<stop  offset="1" style="stop-color:#FF8B5C"/>
				</linearGradient>
				<polygon id="XMLID_1625_" class="st50" points="-217.3,-118.3 -286.2,-35.9 -94.7,-35.9 				"/>
			</g>
			<g id="XMLID_1620_">
				<linearGradient id="XMLID_421_" gradientUnits="userSpaceOnUse" x1="-700.5582" y1="279.0692" x2="-700.5582" y2="296.3543">
					<stop  offset="0" style="stop-color:#C9A75E"/>
					<stop  offset="1" style="stop-color:#754C29"/>
				</linearGradient>
				<rect id="XMLID_1623_" x="-710.2" y="279.3" class="st51" width="19.3" height="19.3"/>
				<linearGradient id="XMLID_422_" gradientUnits="userSpaceOnUse" x1="-694.3003" y1="315.6648" x2="-669.4266" y2="315.6648">
					<stop  offset="0" style="stop-color:#754C29"/>
					<stop  offset="1" style="stop-color:#C9A75E"/>
				</linearGradient>
				<polygon id="XMLID_1622_" class="st52" points="-690.9,279.3 -690.9,298.6 -672.2,352 -672.2,279.3 				"/>
				<linearGradient id="XMLID_423_" gradientUnits="userSpaceOnUse" x1="-698.6791" y1="297.2483" x2="-682.2371" y2="349.9468">
					<stop  offset="0" style="stop-color:#C9A75E"/>
					<stop  offset="1" style="stop-color:#754C29"/>
				</linearGradient>
				<path id="XMLID_1621_" class="st53" d="M-690.9,298.6c0,0,13.5,15.2,18.8,53.4h-18c0,0-2.6-34.1-20-53.4H-690.9z"/>
			</g>
			<g id="XMLID_1616_">
				<rect id="XMLID_1619_" x="36.2" y="279.3" class="st44" width="19.3" height="19.3"/>
				<polygon id="XMLID_1618_" class="st2" points="36.2,279.3 36.2,298.6 17.4,352 17.4,279.3 				"/>
				<path id="XMLID_1617_" class="st45" d="M36.2,298.6c0,0-13.5,15.2-18.8,53.4h18c0,0,2.6-34.1,20-53.4H36.2z"/>
			</g>
			<linearGradient id="XMLID_424_" gradientUnits="userSpaceOnUse" x1="-325.108" y1="298.5916" x2="-325.108" y2="354.8033">
				<stop  offset="0" style="stop-color:#C9A75E"/>
				<stop  offset="1" style="stop-color:#754C29"/>
			</linearGradient>
			<rect id="XMLID_1615_" x="-331.8" y="298.6" class="st54" width="13.4" height="56.2"/>
			<linearGradient id="XMLID_425_" gradientUnits="userSpaceOnUse" x1="-334.7352" y1="288.9643" x2="-315.4807" y2="288.9643">
				<stop  offset="0" style="stop-color:#C9A75E"/>
				<stop  offset="1" style="stop-color:#754C29"/>
			</linearGradient>
			<rect id="XMLID_1614_" x="-334.7" y="279.3" class="st55" width="19.3" height="19.3"/>
			<linearGradient id="XMLID_426_" gradientUnits="userSpaceOnUse" x1="-806.3074" y1="595.512" x2="156.2079" y2="595.512">
				<stop  offset="0" style="stop-color:#351201"/>
				<stop  offset="1" style="stop-color:#FF8B5C"/>
			</linearGradient>
			<rect id="XMLID_1613_" x="-806.3" y="585.4" class="st56" width="962.5" height="20.2"/>
			<linearGradient id="XMLID_427_" gradientUnits="userSpaceOnUse" x1="-806.3074" y1="625.8647" x2="156.2079" y2="625.8647">
				<stop  offset="0" style="stop-color:#351201"/>
				<stop  offset="1" style="stop-color:#FF8B5C"/>
			</linearGradient>
			<rect id="XMLID_1612_" x="-806.3" y="615.7" class="st57" width="962.5" height="20.2"/>
			<rect id="XMLID_1609_" x="-806.3" y="615.7" class="st46" width="962.5" height="5.8"/>
			<rect id="XMLID_1606_" x="-775.6" y="605.6" class="st58" width="901.2" height="10.1"/>
			<linearGradient id="XMLID_428_" gradientUnits="userSpaceOnUse" x1="-806.3074" y1="656.2174" x2="156.2079" y2="656.2174">
				<stop  offset="0" style="stop-color:#351201"/>
				<stop  offset="1" style="stop-color:#FF8B5C"/>
			</linearGradient>
			<rect id="XMLID_1605_" x="-806.3" y="646.1" class="st59" width="962.5" height="20.2"/>
			<rect id="XMLID_1602_" x="-806.3" y="646.1" class="st46" width="962.5" height="5.8"/>
			<rect id="XMLID_1599_" x="-775.6" y="636" class="st58" width="901.2" height="10.1"/>
			<linearGradient id="XMLID_429_" gradientUnits="userSpaceOnUse" x1="-796.6696" y1="286.8865" x2="-773.4008" y2="286.8865">
				<stop  offset="0" style="stop-color:#FFFFFF"/>
				<stop  offset="1" style="stop-color:#BCCEE6"/>
			</linearGradient>
			<rect id="XMLID_1596_" x="-796.7" y="-10" class="st60" width="23.3" height="593.8"/>
			<linearGradient id="XMLID_430_" gradientUnits="userSpaceOnUse" x1="104.3649" y1="286.8865" x2="127.6337" y2="286.8865">
				<stop  offset="0" style="stop-color:#FFFFFF"/>
				<stop  offset="1" style="stop-color:#BCCEE6"/>
			</linearGradient>
			<rect id="XMLID_1593_" x="104.4" y="-10" class="st61" width="23.3" height="593.8"/>
			<g id="XMLID_1586_">
				<linearGradient id="XMLID_431_" gradientUnits="userSpaceOnUse" x1="-619.8961" y1="413.3347" x2="-509.7212" y2="413.3347">
					<stop  offset="0" style="stop-color:#FFFFFF"/>
					<stop  offset="1" style="stop-color:#BCCEE6"/>
				</linearGradient>
				<rect id="XMLID_1590_" x="-619.9" y="325.3" class="st62" width="110.2" height="176.1"/>
				<linearGradient id="XMLID_432_" gradientUnits="userSpaceOnUse" x1="-564.8086" y1="482.696" x2="-564.8086" y2="343.141">
					<stop  offset="0" style="stop-color:#963E26"/>
					<stop  offset="1" style="stop-color:#CF402F"/>
				</linearGradient>
				<rect id="XMLID_1589_" x="-610.9" y="339.7" class="st63" width="92.2" height="147.3"/>
				<linearGradient id="XMLID_433_" gradientUnits="userSpaceOnUse" x1="-564.8086" y1="348.6504" x2="-564.8086" y2="478.019">
					<stop  offset="0" style="stop-color:#F6DE7A"/>
					<stop  offset="1" style="stop-color:#FF8B5C"/>
				</linearGradient>
				<rect id="XMLID_1588_" x="-605.3" y="348.7" class="st64" width="80.9" height="129.4"/>
				<linearGradient id="XMLID_434_" gradientUnits="userSpaceOnUse" x1="-564.8086" y1="482.696" x2="-564.8086" y2="343.141">
					<stop  offset="0" style="stop-color:#963E26"/>
					<stop  offset="1" style="stop-color:#CF402F"/>
				</linearGradient>
				<rect id="XMLID_1587_" x="-605.3" y="408.6" class="st65" width="80.9" height="9.4"/>
			</g>
			<g id="XMLID_1579_">
				<linearGradient id="XMLID_435_" gradientUnits="userSpaceOnUse" x1="-493.2084" y1="413.3347" x2="-383.0335" y2="413.3347">
					<stop  offset="0" style="stop-color:#FFFFFF"/>
					<stop  offset="1" style="stop-color:#BCCEE6"/>
				</linearGradient>
				<rect id="XMLID_1583_" x="-493.2" y="325.3" class="st66" width="110.2" height="176.1"/>
				<linearGradient id="XMLID_436_" gradientUnits="userSpaceOnUse" x1="-438.1209" y1="478.9018" x2="-438.1209" y2="339.213">
					<stop  offset="0" style="stop-color:#963E26"/>
					<stop  offset="1" style="stop-color:#CF402F"/>
				</linearGradient>
				<rect id="XMLID_1582_" x="-484.2" y="339.7" class="st67" width="92.2" height="147.3"/>
				<linearGradient id="XMLID_437_" gradientUnits="userSpaceOnUse" x1="-438.1209" y1="348.6504" x2="-438.1209" y2="478.019">
					<stop  offset="0" style="stop-color:#F6DE7A"/>
					<stop  offset="1" style="stop-color:#FF8B5C"/>
				</linearGradient>
				<rect id="XMLID_1581_" x="-478.6" y="348.7" class="st68" width="80.9" height="129.4"/>
				<linearGradient id="XMLID_438_" gradientUnits="userSpaceOnUse" x1="-438.1209" y1="478.9018" x2="-438.1209" y2="339.213">
					<stop  offset="0" style="stop-color:#963E26"/>
					<stop  offset="1" style="stop-color:#CF402F"/>
				</linearGradient>
				<rect id="XMLID_1580_" x="-478.6" y="408.6" class="st69" width="80.9" height="9.4"/>
			</g>
			<g id="XMLID_1572_">
				<rect id="XMLID_1576_" x="-233.7" y="320.5" class="st70" width="130.7" height="264.8"/>
				<linearGradient id="XMLID_439_" gradientUnits="userSpaceOnUse" x1="-168.3049" y1="526.4006" x2="-168.3049" y2="340.6263">
					<stop  offset="0" style="stop-color:#963E26"/>
					<stop  offset="1" style="stop-color:#CF402F"/>
				</linearGradient>
				<rect id="XMLID_1575_" x="-221" y="337.3" class="st71" width="105.4" height="237.6"/>
				<linearGradient id="XMLID_440_" gradientUnits="userSpaceOnUse" x1="-168.3049" y1="355.0487" x2="-168.3049" y2="495.8589">
					<stop  offset="0" style="stop-color:#F6DE7A"/>
					<stop  offset="1" style="stop-color:#FF8B5C"/>
				</linearGradient>
				<rect id="XMLID_1574_" x="-200.8" y="355" class="st72" width="64.9" height="140.8"/>
				<linearGradient id="XMLID_441_" gradientUnits="userSpaceOnUse" x1="-168.3049" y1="526.4006" x2="-168.3049" y2="340.6263">
					<stop  offset="0" style="stop-color:#963E26"/>
					<stop  offset="1" style="stop-color:#CF402F"/>
				</linearGradient>
				<rect id="XMLID_1573_" x="-200.8" y="403.1" class="st73" width="64.9" height="7"/>
			</g>
			<polygon id="XMLID_1569_" class="st74" points="-672.2,352 -629.8,286.9 -11.5,286.9 17.4,352 17.4,279.3 -672.2,279.3 			"/>
			<rect id="XMLID_1566_" x="-806.3" y="585.4" class="st46" width="962.5" height="5.8"/>
			<g id="XMLID_1553_">
				<g id="XMLID_1562_">
					<polygon id="XMLID_1563_" class="st2" points="251.3,101.5 -346,-300 -899.7,100.9 -933.4,54.5 -347.2,-369.9 283.3,53.9 					
						"/>
				</g>
				<g id="XMLID_1554_">
					<polygon id="XMLID_1559_" class="st44" points="-347.2,-369.9 283.3,53.9 294.5,61.4 302,50.2 290.8,42.7 -339.6,-381.1 
						-347.5,-386.3 -355.1,-380.8 -941.3,43.5 -952.2,51.4 -944.3,62.4 -933.4,54.5 					"/>
					<polygon id="XMLID_1556_" class="st44" points="251.3,101.5 -346,-300 -899.7,100.9 -910.7,108.8 -902.8,119.7 -891.8,111.8 
						-345.7,-283.5 243.7,112.7 254.9,120.2 262.5,109 					"/>
					<linearGradient id="XMLID_442_" gradientUnits="userSpaceOnUse" x1="-902.7589" y1="-84.214" x2="254.9463" y2="-84.214">
						<stop  offset="0" style="stop-color:#DA4235"/>
						<stop  offset="0.4878" style="stop-color:#CD4137"/>
						<stop  offset="1" style="stop-color:#BB403B"/>
					</linearGradient>
					<path id="XMLID_1555_" class="st75" d="M-902.8,119.7l34.5-25.7l34.5-25.6l69.1-51.2l138.6-101.8l69.4-50.8l69.5-50.6
						l139.1-101l2.4-1.7l2.4,1.6l150.1,101.1l74.9,50.7c25,16.9,49.9,33.8,74.8,50.8L106,17.5l74.5,51.3l37.3,25.6l37.2,25.8
						L217,95.5l-37.8-24.8L103.6,21L-47.2-78.9c-25.2-16.6-50.2-33.4-75.3-50.1l-75.2-50.2L-348-280l4.8-0.1l-139.4,100.6
						l-69.8,50.2l-69.9,50l-140,99.9l-70.2,49.7L-867.6,95L-902.8,119.7z"/>
				</g>
			</g>
			<g id="XMLID_1501_">
				<linearGradient id="XMLID_443_" gradientUnits="userSpaceOnUse" x1="-860.0102" y1="622.9183" x2="-785.4698" y2="622.9183">
					<stop  offset="0" style="stop-color:#DEDEE7"/>
					<stop  offset="1" style="stop-color:#939598"/>
				</linearGradient>
				<polygon id="XMLID_1552_" class="st76" points="-785.5,570.8 -860,663 -860,675.1 -785.5,582.8 				"/>
				<polygon id="XMLID_1549_" class="st77" points="-785.5,570.8 -796.1,571.3 -873.3,663.7 -860,663 				"/>
				<g id="XMLID_1544_">
					<linearGradient id="XMLID_444_" gradientUnits="userSpaceOnUse" x1="-798.9004" y1="522.7891" x2="-795.586" y2="522.7891">
						<stop  offset="0" style="stop-color:#DEDEE7"/>
						<stop  offset="1" style="stop-color:#939598"/>
					</linearGradient>
					<polygon id="XMLID_1548_" class="st78" points="-798.9,581.5 -795.6,577.5 -795.6,464.1 -798.9,464.3 					"/>
					<polygon id="XMLID_1545_" class="st77" points="-803.1,581.7 -798.9,581.5 -798.9,464.3 -803.1,464.5 					"/>
				</g>
				<g id="XMLID_1539_">
					<linearGradient id="XMLID_445_" gradientUnits="userSpaceOnUse" x1="-808.4135" y1="534.9406" x2="-805.0991" y2="534.9406">
						<stop  offset="0" style="stop-color:#DEDEE7"/>
						<stop  offset="1" style="stop-color:#939598"/>
					</linearGradient>
					<polygon id="XMLID_1543_" class="st79" points="-808.4,593.6 -805.1,589.7 -805.1,476.2 -808.4,476.4 					"/>
					<polygon id="XMLID_1540_" class="st77" points="-812.6,593.9 -808.4,593.6 -808.4,476.4 -812.6,476.6 					"/>
				</g>
				<g id="XMLID_1534_">
					<linearGradient id="XMLID_446_" gradientUnits="userSpaceOnUse" x1="-817.9266" y1="547.0922" x2="-814.6121" y2="547.0922">
						<stop  offset="0" style="stop-color:#DEDEE7"/>
						<stop  offset="1" style="stop-color:#939598"/>
					</linearGradient>
					<polygon id="XMLID_1538_" class="st80" points="-817.9,605.8 -814.6,601.8 -814.6,488.4 -817.9,488.6 					"/>
					<polygon id="XMLID_1535_" class="st77" points="-822.1,606 -817.9,605.8 -817.9,488.6 -822.1,488.8 					"/>
				</g>
				<g id="XMLID_1529_">
					<linearGradient id="XMLID_447_" gradientUnits="userSpaceOnUse" x1="-827.4396" y1="559.2438" x2="-824.1252" y2="559.2438">
						<stop  offset="0" style="stop-color:#DEDEE7"/>
						<stop  offset="1" style="stop-color:#939598"/>
					</linearGradient>
					<polygon id="XMLID_1533_" class="st81" points="-827.4,617.9 -824.1,614 -824.1,500.5 -827.4,500.7 					"/>
					<polygon id="XMLID_1530_" class="st77" points="-831.6,618.2 -827.4,617.9 -827.4,500.7 -831.6,500.9 					"/>
				</g>
				<g id="XMLID_1524_">
					<linearGradient id="XMLID_448_" gradientUnits="userSpaceOnUse" x1="-836.9527" y1="571.3953" x2="-833.6383" y2="571.3953">
						<stop  offset="0" style="stop-color:#DEDEE7"/>
						<stop  offset="1" style="stop-color:#939598"/>
					</linearGradient>
					<polygon id="XMLID_1528_" class="st82" points="-837,630.1 -833.6,626.1 -833.6,512.7 -837,512.9 					"/>
					<polygon id="XMLID_1525_" class="st77" points="-841.2,630.3 -837,630.1 -837,512.9 -841.2,513.1 					"/>
				</g>
				<g id="XMLID_1519_">
					<linearGradient id="XMLID_449_" gradientUnits="userSpaceOnUse" x1="-846.4658" y1="583.5469" x2="-843.1514" y2="583.5469">
						<stop  offset="0" style="stop-color:#DEDEE7"/>
						<stop  offset="1" style="stop-color:#939598"/>
					</linearGradient>
					<polygon id="XMLID_1523_" class="st83" points="-846.5,642.2 -843.2,638.3 -843.2,524.8 -846.5,525 					"/>
					<polygon id="XMLID_1520_" class="st77" points="-850.7,642.5 -846.5,642.2 -846.5,525 -850.7,525.2 					"/>
				</g>
				<g id="XMLID_1514_">
					<linearGradient id="XMLID_450_" gradientUnits="userSpaceOnUse" x1="-855.9789" y1="595.6984" x2="-852.6644" y2="595.6984">
						<stop  offset="0" style="stop-color:#DEDEE7"/>
						<stop  offset="1" style="stop-color:#939598"/>
					</linearGradient>
					<polygon id="XMLID_1518_" class="st84" points="-856,654.4 -852.7,650.4 -852.7,537 -856,537.2 					"/>
					<polygon id="XMLID_1515_" class="st77" points="-860.2,654.6 -856,654.4 -856,537.2 -860.2,537.4 					"/>
				</g>
				<linearGradient id="XMLID_451_" gradientUnits="userSpaceOnUse" x1="-860.0102" y1="497.6494" x2="-785.4698" y2="497.6494">
					<stop  offset="0" style="stop-color:#DEDEE7"/>
					<stop  offset="1" style="stop-color:#939598"/>
				</linearGradient>
				<polygon id="XMLID_1511_" class="st85" points="-785.5,445.5 -860,537.8 -860,549.8 -785.5,457.5 				"/>
				<polygon id="XMLID_1508_" class="st77" points="-785.5,445.5 -796.1,446.1 -873.3,538.5 -860,537.8 				"/>
				<linearGradient id="XMLID_452_" gradientUnits="userSpaceOnUse" x1="-864.8021" y1="535.5238" x2="-864.8021" y2="671.3071">
					<stop  offset="0" style="stop-color:#DEDEE7"/>
					<stop  offset="1" style="stop-color:#939598"/>
				</linearGradient>
				<polygon id="XMLID_1505_" class="st86" points="-869.6,675.6 -860,675.1 -860,537.8 -869.6,538.3 				"/>
				<polygon id="XMLID_1502_" class="st77" points="-885.2,675.3 -869.6,675.6 -869.6,538.3 -885.2,538 				"/>
			</g>
			<g id="XMLID_752_">
				<polygon id="XMLID_1498_" class="st45" points="116,570.8 190.5,663 190.5,675.1 116,582.8 				"/>
				<polygon id="XMLID_1495_" class="st44" points="116,570.8 126.6,571.3 203.9,663.7 190.5,663 				"/>
				<g id="XMLID_1488_">
					<polygon id="XMLID_1492_" class="st44" points="129.4,581.5 126.1,577.5 126.1,464.1 129.4,464.3 					"/>
					<polygon id="XMLID_1489_" class="st45" points="133.6,581.7 129.4,581.5 129.4,464.3 133.6,464.5 					"/>
				</g>
				<g id="XMLID_1481_">
					<polygon id="XMLID_1485_" class="st44" points="138.9,593.6 135.6,589.7 135.6,476.2 138.9,476.4 					"/>
					<polygon id="XMLID_1482_" class="st45" points="143.2,593.9 138.9,593.6 138.9,476.4 143.2,476.6 					"/>
				</g>
				<g id="XMLID_1474_">
					<polygon id="XMLID_1478_" class="st44" points="148.5,605.8 145.1,601.8 145.1,488.4 148.5,488.6 					"/>
					<polygon id="XMLID_1475_" class="st45" points="152.7,606 148.5,605.8 148.5,488.6 152.7,488.8 					"/>
				</g>
				<g id="XMLID_1467_">
					<polygon id="XMLID_1471_" class="st44" points="158,617.9 154.7,614 154.7,500.5 158,500.7 					"/>
					<polygon id="XMLID_1468_" class="st45" points="162.2,618.2 158,617.9 158,500.7 162.2,500.9 					"/>
				</g>
				<g id="XMLID_1460_">
					<polygon id="XMLID_1464_" class="st44" points="167.5,630.1 164.2,626.1 164.2,512.7 167.5,512.9 					"/>
					<polygon id="XMLID_1461_" class="st45" points="171.7,630.3 167.5,630.1 167.5,512.9 171.7,513.1 					"/>
				</g>
				<g id="XMLID_1425_">
					<polygon id="XMLID_1432_" class="st44" points="177,642.2 173.7,638.3 173.7,524.8 177,525 					"/>
					<polygon id="XMLID_1426_" class="st45" points="181.2,642.5 177,642.2 177,525 181.2,525.2 					"/>
				</g>
				<g id="XMLID_1413_">
					<polygon id="XMLID_1421_" class="st44" points="186.5,654.4 183.2,650.4 183.2,537 186.5,537.2 					"/>
					<polygon id="XMLID_1414_" class="st45" points="190.7,654.6 186.5,654.4 186.5,537.2 190.7,537.4 					"/>
				</g>
				<polygon id="XMLID_1410_" class="st45" points="116,445.5 190.5,537.8 190.5,549.8 116,457.5 				"/>
				<polygon id="XMLID_759_" class="st44" points="116,445.5 126.6,446.1 203.9,538.5 190.5,537.8 				"/>
				<polygon id="XMLID_756_" class="st45" points="200.1,675.6 190.5,675.1 190.5,537.8 200.1,538.3 				"/>
				<polygon id="XMLID_753_" class="st44" points="215.7,675.3 200.1,675.6 200.1,538.3 215.7,538 				"/>
			</g>
		</g>
		<g id="XMLID_736_">
			<rect id="XMLID_749_" y="664.9" class="st87" width="1400" height="312.6"/>
			<rect id="XMLID_746_" y="679.1" class="st88" width="1400" height="312.6"/>
			<rect id="XMLID_743_" y="733" class="st89" width="1400" height="244.5"/>
			<rect id="XMLID_740_" y="744.9" class="st87" width="1400" height="271.6"/>
			<rect id="XMLID_737_" y="997.3" class="st89" width="1400" height="64"/>
		</g>
		<g id="XMLID_243_">
			<g id="XMLID_123_">
				<path id="XMLID_27_" class="st90" d="M903,802.6c-2.4,6.4-8.5,10.6-14.7,13.3s-12.9,4.4-18.8,7.7c-1.8,1-3.5,2.2-4.7,3.9
					s-1.6,4-0.6,5.8h48.5c1.1-2.6,2-5.1,3.1-7.8c0.6,2.1,1.4,4.8,2.1,6.9c2.5-0.9,5.2-1.1,7.8-0.8c-0.7-8.2-2.4-16.2-5.7-23.7
					c-2-4.4-4.5-8.8-8.5-11.5c-0.4-0.3-0.8-0.5-1.3-0.6c-0.8-0.1-1.5,0.4-2.1,0.9C906.1,798.1,903.8,800.4,903,802.6z"/>
				<path id="XMLID_25_" class="st90" d="M1095,814.2c-2.4,6.4-8.5,10.6-14.7,13.3c-6.2,2.7-12.9,4.4-18.8,7.7
					c-1.8,1-3.5,2.2-4.7,3.9c-1.1,1.7-1.6,4-0.6,5.8h48.5c1.1-2.6,2-5.1,3.1-7.8c0.6,2.1,1.4,4.8,2.1,6.9c2.5-0.9,5.2-1.1,7.8-0.8
					c-0.7-8.2-2.4-16.2-5.7-23.7c-2-4.4-4.5-8.8-8.5-11.5c-0.4-0.3-0.8-0.5-1.3-0.6c-0.8-0.1-1.5,0.4-2.1,0.9
					C1098.1,809.7,1095.8,812,1095,814.2z"/>
				<path id="XMLID_58_" class="st91" d="M929.9,461.9c12.4,2,25.2,1.6,37.4-1.2c3.9-0.9,8-2.2,10.5-5.3c1.8-2.3,2.5-5.3,3.2-8.2
					c2.3-10.1,22.7-70.1-5.1-58.7C956.5,396.5,936.8,444.4,929.9,461.9z"/>
				<path id="XMLID_23_" class="st91" d="M1025.2,643.7c-38.2,53.3-72.9,108.6-103.3,166.8c-9.1,1.1-18.6,0.1-27.2-2.9
					c17.2-68.2,13.8-133.5,43.1-208.8c-8.3-22.9-8.9-48.5-1.6-71.8c4-12.9,10.4-25,14.4-38c10-31.8,7.4-70.2,31.2-93.6
					c13-12.8,35.9-20.5,52.3-12.5c13.8,6.8,19.8,23,24,37.8c13,45.7,21.8,92.6,26,139.9c1.7,19.3,2.5,39.8-7,56.7
					C1067.8,634.1,1044.1,641.5,1025.2,643.7z"/>
				<path id="XMLID_6_" class="st46" d="M989.9,695c0,0-4.4,7.1-11,17.8c-3.3,5.4-7.1,11.6-11.2,18.3c-4.1,6.7-8.4,13.9-12.6,21.1
					c-4.3,7.2-8.5,14.4-12.4,21.2c-1.9,3.4-3.8,6.7-5.6,9.8c-1.8,3.1-3.5,6.1-5,8.8c-6.2,11-10.3,18.3-10.3,18.3s0.9-1.9,2.5-5.2
					c1.6-3.3,4-8,6.9-13.5c2.9-5.6,6.4-12,10.2-18.9c3.8-6.9,8-14.1,12.2-21.4c4.3-7.2,8.7-14.4,12.8-21c4.2-6.7,8.2-12.8,11.6-18.1
					c3.4-5.3,6.4-9.6,8.5-12.6C988.7,696.7,989.9,695,989.9,695z"/>
				<g id="XMLID_180_">
					<g id="XMLID_387_">
						<g id="XMLID_388_">
							<path id="XMLID_389_" class="st92" d="M939.6,650.8c-2.7-0.7-5.4-1.4-8.1-2.2c14.9,2.3,30.8-2.5,41.9-12.7
								c8.4-7.7,20.5-11.1,28.4-19.3c9.1-9.5,17.8-19.3,26.3-29.3l-92.2,6.1c0.5,1.8,1.1,3.6,1.8,5.4
								c-29.2,75.3-25.9,140.6-43.1,208.8c8,2.8,16.7,3.9,25.1,3.1c-3.7-5.4-8.3-9.7-14.7-11.1c3.3-4.8,8.5-8.2,14.3-9.2
								c-2.8-2.4-5.5-4.9-8.3-7.3c8.4,1.9,14.2-8.2,16.9-16.4c3.7-11,7.4-22.1,11-33.1c2.6-7.7,5.6-16,12.7-20.1
								c-6.6-0.8-12.9-3.2-18.4-6.8c10.8-1,21.4-3.5,31.5-7.5c-4-2.7-8.6-4.5-13.4-5.4c-2.2-11.2-4.5-22.5-6.7-33.7
								c6.7,0.6,13.6-1.2,19.2-5.1C955.7,654.1,947.6,652.7,939.6,650.8"/>
						</g>
					</g>
				</g>
				<path id="XMLID_98_" class="st92" d="M1031.1,537.3c1.9-2.3,4-4.8,4.3-7.8c0.2-2.3-0.8-4.4-1.5-6.6c-3.4-9.3-4.2-19.6-2.3-29.3
					c1.1,10,4.1,19.7,8.8,28.6c4.2-14.1,8.5-29.2,4.1-43.2c-4.2-13.4-16.1-25-14.3-38.9c2.4,13.7,9.7,26.5,20.3,35.6
					c-2.6-8.1-8.8-15-10.4-23.4c-1.7-9,2.6-18.8,10.3-23.6c9.7,19,19.6,39.4,16.9,60.5c-1,7.9-3.7,15.4-6.5,22.9
					c-4.7,13-9.5,26-16.4,38c-3.9,6.7-22.9,37.2-31.7,31.7C1001.8,575,1026.4,543,1031.1,537.3z"/>
				<path id="XMLID_30_" class="st93" d="M985.6,466.7c0,0.7,0.1,1.5,0.5,2.1c1.5,2.2,5.1-0.2,7.6,0.6c-3.9-19.3-1.1-39.8,7.8-57.4
					C975,406.7,984.8,454.7,985.6,466.7z"/>
				<path id="XMLID_26_" class="st94" d="M988.6,387.1c0.2-1.4,0.4-2.9,0.5-4.3c-8.1,5.1-13.3,14-15.6,23.3c-2.3,9.3-2,19.1-1,28.6
					c0.4,3.9,0.9,8,3.2,11.2c2.6-6.6,6.1-12.8,10.4-18.3c10.3,5.9,20.6,13.2,28.6,22c11.4-17.4,18.4-37.6,20.4-58.3
					c-3.8-6.5-8.7-14.5-13.1-20.6c-0.4-0.6-0.8-1.2-1.5-1.4c-0.8-0.3-1.7-0.1-2.5,0.2c-6.9,2.2-13.7,5.1-20,8.7
					C995,379.9,990.4,384.1,988.6,387.1z"/>
				<path id="XMLID_24_" class="st91" d="M1116.5,817.1c-10.9-37.9-26.6-73.4-47.9-106.5c1-16.5,1.9-33,2.9-49.5
					c1.4-23.7,1.3-49.7-5.7-72.3c-30.5,8-61.6,16-93,14.3c-3.5-0.2-9.5,2-12.7,0.7c10.3,57,38.1,110.6,78.6,151.9
					c18.6,18.9,39.7,37.9,52.1,61.4C1090.7,817.1,1109.4,816.2,1116.5,817.1z"/>
				<path id="XMLID_197_" class="st46" d="M1116.5,817.1l-2.2-7l-2.3-6.9c-1.6-4.6-3.3-9.2-5-13.8l-2.6-6.8l-2.8-6.8l-2.9-6.7
					l-3-6.7l-3.1-6.6l-3.2-6.6l-3.3-6.5l-3.4-6.5l-3.5-6.4l-3.6-6.3l-3.8-6.3l-3.9-6.2l-0.1-0.2l0-0.2l1.7-24.7l0.9-12.4l1-12.4
					l-0.5,12.4l-0.5,12.4l-1.2,24.8l-0.1-0.4l3.9,6.2l3.8,6.3l3.7,6.3l3.6,6.4l3.4,6.5l3.3,6.6l3.2,6.6l3,6.7l2.9,6.7l2.8,6.8
					l2.6,6.9l2.5,6.9l2.4,6.9l2.2,7l2.1,7L1116.5,817.1z"/>
				<g id="XMLID_178_">
					<g id="XMLID_386_">
						<g id="XMLID_390_">
							<path id="XMLID_391_" class="st92" d="M1099.6,806.8c-3.5-6.1-8.5-13-15.5-12.2c0.6-9.6-4.5-18.6-9.4-26.9
								c-7-11.9-13.9-23.8-20.9-35.7c-1.3-2.2-2.6-4.4-4.7-5.8c-2.8-1.9-6.4-2-9.5-3.3c-3.1-1.2-6.1-4.7-4.6-7.7
								c8.1-0.8,16-3.7,22.7-8.4c-5.5,3.8-13.4,3.5-18.6-0.6c7,1.1,10.5-9,7.9-15.6c-2.6-6.6-8.3-11.7-9.9-18.6
								c-0.5-2.1-0.6-4.4-2-6c-2.1-2.3-5.7-1.9-8.8-1.6c-13.8,1.4-28.1-2.2-39.5-10.2c12.3-3.6,23.3-11.1,31.1-21.3
								c-7.5-8.7-13.1-19.4-16.4-30.8c-9.6,1-19.2,1.4-28.8,0.9c-3.5-0.2-9.5,2-12.7,0.7c10.3,57,38.1,110.6,78.6,151.9
								c18.6,18.9,39.7,37.9,52.1,61.4c0,0,7.3-0.4,14.5-0.4c-0.6-1.1-1.2-2.1-1.8-3.2C1102.2,811.3,1100.9,809.1,1099.6,806.8z"/>
						</g>
					</g>
				</g>
				<path id="XMLID_157_" class="st92" d="M1057.3,615.6c-14.4,5.6-30,6.7-45.4,7.8c14.6,3.3,29.6,4.6,44.5,3.7c-29,2-58,3.9-87,5.9
					c-3.3,0.2-6.7,0.4-9.9-0.5c-5.8-1.7-9.9-6.9-13.6-11.7c10.3,8.8,26.8,9.3,37.6,1.1c-14.3-2-28.1-6.8-40.5-14.2
					c-1.1-0.7-2.3-1.4-3-2.5c-3-4.8,4.5-11.8,0.9-16.2c7,8.3,37.6,9,47.7,9.7c16.6,1.2,33.4,0.1,49.7-3.1c9.3-1.8,34.5-14.9,41.9-7
					C1090.5,599.8,1065.1,612.5,1057.3,615.6z"/>
				<linearGradient id="XMLID_453_" gradientUnits="userSpaceOnUse" x1="966.9241" y1="601.1228" x2="1018.7504" y2="601.1228">
					<stop  offset="0" style="stop-color:#FD7A7F"/>
					<stop  offset="0.1161" style="stop-color:#FD8C8A"/>
					<stop  offset="0.3223" style="stop-color:#FEA699"/>
					<stop  offset="0.5351" style="stop-color:#FFB8A3"/>
					<stop  offset="0.7565" style="stop-color:#FFC3AA"/>
					<stop  offset="1" style="stop-color:#FFC7AC"/>
				</linearGradient>
				<path id="XMLID_29_" class="st95" d="M984.9,611.1c-6.5-2.4-12.2-6.4-17.9-10.3c17.5-2.8,34.8-6.8,51.8-11.8
					c-1.9,7.2-2.4,15.1-8.5,19.9C1003.1,614.5,992.9,614.1,984.9,611.1z"/>
				<path id="XMLID_13_" class="st96" d="M1025.4,317.8c4,12.8,4.9,26.5,2.5,39.7c-4.4,0.9-9.7,1.8-14.1,2.7
					C1012.3,345.1,1016.2,329.7,1025.4,317.8z"/>
				<linearGradient id="XMLID_454_" gradientUnits="userSpaceOnUse" x1="998.3427" y1="367.2203" x2="997.6461" y2="408.3203">
					<stop  offset="0" style="stop-color:#FD7A7F"/>
					<stop  offset="0.5081" style="stop-color:#FE9F95"/>
					<stop  offset="1" style="stop-color:#FFC7AC"/>
				</linearGradient>
				<path id="XMLID_22_" class="st97" d="M976.1,388.2c-4.3,7.3-2,12,0,17.2c1.9,5,4.3,9.8,7.2,14.2c1.6,2.4,2.9,5,4,8
					c3.9-3.9,14.4-15.2,23.5-25.2c8.4-9.3,12.5-21.7,11.4-34.2c-1-11.6-1.6-23-1.1-34.9C1004.9,349.4,988.2,368.7,976.1,388.2z"/>
				<linearGradient id="XMLID_455_" gradientUnits="userSpaceOnUse" x1="965.2028" y1="275.8871" x2="966.5959" y2="384.5583">
					<stop  offset="0" style="stop-color:#FD7A7F"/>
					<stop  offset="0.1161" style="stop-color:#FD8C8A"/>
					<stop  offset="0.3223" style="stop-color:#FEA699"/>
					<stop  offset="0.5351" style="stop-color:#FFB8A3"/>
					<stop  offset="0.7565" style="stop-color:#FFC3AA"/>
					<stop  offset="1" style="stop-color:#FFC7AC"/>
				</linearGradient>
				<path id="XMLID_9_" class="st98" d="M1019.4,332.7c0.7,11.1,1.3,22.7-2.9,33c-6.4,15.8-22.6,25.6-39.2,29.7
					c-8,2-16.5,2.4-24.7,1.2c-8.3-1.2-16.5-4.2-22.7-9.8c-7.8-7-11.8-17.6-13.3-28s-1-21-1.3-31.6c-0.4-10.5-1.7-21.3-6.8-30.6
					c19.2-11.1,40.3-23.7,62.4-23.3c11.2,0.2,22.1,3.4,32.8,6.8c7.3,2.4,15.5,5.7,18.2,13c1.2,3.2,0.1,7.1,0.1,10.5
					C1022.2,313.3,1018.8,323.2,1019.4,332.7z"/>
				<path id="XMLID_14_" class="st96" d="M915.5,311.2c5.4-1.7,11.1-2.3,16.7-1.8c-0.1-2.8,0.1-6-0.1-8.8c-3,0.5-7-0.3-10.1-0.2
					c-0.9,0-1.9,0.1-2.8,0.4c-0.7,0.3-1.4,0.7-2,1.1c-1.9,1.3-3.9,2.6-5.8,4C913.3,307.3,914.4,309.1,915.5,311.2z"/>
				<path id="XMLID_15_" class="st96" d="M990.7,306c0.7-3.8,1.4-7.2,1.2-11.2c-12-6.9-25.8-6.9-38.3-5c-1.4,2.5-2.4,5.3-1.6,8.3
					c-1.4-2.8-2.7-5.3-3.3-8.2c-0.4,5.4,0.5,11.1,2.7,16.4C962.7,302.4,978,304.1,990.7,306z"/>
				<path id="XMLID_12_" class="st96" d="M989.4,283.2c5.4,2.3,9,7.7,10.6,13.4c1.6,5.7,1.4,11.7,1.3,17.6
					c-0.2,6.8-0.4,13.5-0.6,20.3c5.1,0.7,9.6,1.4,14.7,1.4c0.3-15.5,3-31.3,8.1-45.9c0.2-0.5,0.4-1.1,0.2-1.6
					c-0.2-0.7-0.8-1.1-1.4-1.5C1013,280.9,1000.1,279.8,989.4,283.2z"/>
				<path id="XMLID_10_" class="st92" d="M866.3,277.8c0,0-22.5,12.4-9.6,25.6c0,0,26.1-14.3,61.7-16
					C918.3,287.4,894.4,269.6,866.3,277.8z"/>
				<path id="XMLID_8_" class="st91" d="M1025.7,296c2.2-10.8,2.8-22,1.8-33c-1-11.6-4.3-24-13.6-31c-6-4.5-13.7-6.1-21.1-7.6
					c-14.2-2.8-28.7-5.7-43-3.7c-14.3,1.9-28.7,9.6-34.9,22.7c-5.1,10.9-3.9,23.6-2.5,35.6C951.8,280.2,988.3,284.2,1025.7,296z"/>
				<path id="XMLID_94_" class="st46" d="M1027.5,263.1c0,0-0.2-1.6-0.6-4.3c-0.2-1.4-0.5-3-1-4.9c-0.4-1.9-1.1-3.9-1.8-6.1
					c-1.6-4.4-4.2-9.3-8.4-13.3c-1.1-1-2.2-1.9-3.4-2.7c-1.2-0.8-2.6-1.5-3.9-2.1c-2.8-1.3-5.7-2.2-8.8-2.9c-3-0.8-6.1-1.4-9.1-2
					c-3-0.6-6-1.2-8.9-1.7c-5.8-1.1-11.2-1.9-15.9-2.3c-2.3-0.2-4.5-0.3-6.4-0.3c-1.9,0-3.6,0-5,0c-1.4,0.1-2.5,0.1-3.2,0.2
					c-0.7,0.1-1.1,0.1-1.1,0.1s0.4-0.1,1.1-0.2c0.7-0.1,1.8-0.3,3.2-0.4c1.4-0.2,3-0.3,5-0.3c1.9-0.1,4.1-0.1,6.5,0
					c4.7,0.2,10.3,0.8,16.1,1.8c2.9,0.5,5.9,1.1,9,1.6c3,0.6,6.1,1.2,9.2,1.9c3.1,0.8,6.2,1.7,9,3.1c1.4,0.7,2.8,1.4,4.1,2.3
					c1.2,0.9,2.5,1.9,3.6,2.9c2.2,2.1,3.9,4.5,5.2,6.9c1.3,2.4,2.3,4.8,3,7.1c1.4,4.6,2,8.5,2.3,11.2c0.1,1.4,0.2,2.5,0.3,3.2
					C1027.5,262.7,1027.5,263.1,1027.5,263.1z"/>
				<path id="XMLID_7_" class="st94" d="M988.3,285.7c0.7,0.7,1.3,1.5,2,2.2c-26.9,4-53.6,11-78.6,21.7c-3.2-9-8.5-17.3-15.5-23.9
					c-4-3.8-8.6-7-13.8-8.7c-5.2-1.7-11.1-1.7-16,0.8C885.6,269.3,949.1,276,988.3,285.7z"/>
				<linearGradient id="XMLID_456_" gradientUnits="userSpaceOnUse" x1="1029.0291" y1="286.1353" x2="1022.7595" y2="346.0438">
					<stop  offset="0" style="stop-color:#FD7A7F"/>
					<stop  offset="0.1161" style="stop-color:#FD8C8A"/>
					<stop  offset="0.3223" style="stop-color:#FEA699"/>
					<stop  offset="0.5351" style="stop-color:#FFB8A3"/>
					<stop  offset="0.7565" style="stop-color:#FFC3AA"/>
					<stop  offset="1" style="stop-color:#FFC7AC"/>
				</linearGradient>
				<path id="XMLID_11_" class="st99" d="M1017.7,299c1.9-2.8,4.1-5.6,7.1-7.2c3-1.7,6.8-2.2,9.8-0.5c4,2.2,5.4,7.2,6,11.8
					c1.2,9.1,0.7,18.9-4,26.8c-4.7,7.9-14.5,13.3-23.3,10.6c-1-0.3-2-0.7-2.6-1.6c-0.5-0.7-0.5-1.6-0.5-2.5
					C1009.7,322.6,1009.9,310.8,1017.7,299z"/>
				<linearGradient id="XMLID_457_" gradientUnits="userSpaceOnUse" x1="967.0634" y1="311.1772" x2="967.0634" y2="331.6412">
					<stop  offset="0" style="stop-color:#19375B"/>
					<stop  offset="0.3482" style="stop-color:#174160"/>
					<stop  offset="0.9392" style="stop-color:#135C6C"/>
					<stop  offset="1" style="stop-color:#135F6D"/>
				</linearGradient>
				<ellipse id="XMLID_16_" class="st100" cx="967.1" cy="321.4" rx="5.6" ry="10.2"/>
				<linearGradient id="XMLID_458_" gradientUnits="userSpaceOnUse" x1="927.876" y1="313.181" x2="927.876" y2="331.6412">
					<stop  offset="0" style="stop-color:#19375B"/>
					<stop  offset="0.3482" style="stop-color:#174160"/>
					<stop  offset="0.9392" style="stop-color:#135C6C"/>
					<stop  offset="1" style="stop-color:#135F6D"/>
				</linearGradient>
				<ellipse id="XMLID_17_" class="st101" cx="927.9" cy="322.4" rx="4.4" ry="9.2"/>
				<path id="XMLID_19_" class="st102" d="M987.7,347c1.7-0.4,3.6-0.8,5.2-0.1c2,0.9,3,3.2,2.9,5.4c-0.1,2.2-1.2,4.1-2.4,5.9
					c-7.3,10.6-20.3,16-33,17.6c-6.3,0.8-13,0.7-18.7-2.1c-3.8-1.9-10.6-7.6-8.6-12.6c1.9-4.9,11.4-2.7,15.5-3.2
					C962.1,356.2,974.6,350.4,987.7,347z"/>
				<g id="XMLID_72_">
					<path id="XMLID_75_" class="st46" d="M942.7,363.3c2.3,0.4,4.6,0.1,6.9-0.3c5.6-0.9,11.1-2.2,16.1-5c3.1-1.7,5.9-4,8-6.8
						c-8.3,2.7-16.5,5.5-25.2,6.5c-2.9,0.4-8.5-0.6-12.2,0.5c0.2,0.5,0.4,1,0.7,1.4C938.2,361.7,940.4,362.9,942.7,363.3z"/>
					<path id="XMLID_76_" class="st103" d="M944.6,374.8c5,1.6,10.5,1.6,15.7,0.9c12.8-1.6,25.8-7,33-17.6c0.8-1.2,1.6-2.5,2-3.8
						C976.8,355.4,958.7,362.8,944.6,374.8z"/>
				</g>
				<linearGradient id="XMLID_459_" gradientUnits="userSpaceOnUse" x1="922.4258" y1="335.6571" x2="955.7332" y2="335.6571">
					<stop  offset="0" style="stop-color:#FD7A7F"/>
					<stop  offset="1" style="stop-color:#FD7B80;stop-opacity:0"/>
				</linearGradient>
				<path id="XMLID_33_" class="st104" d="M931.1,336.4c-2.5,2-5.4,3.7-7.2,6.4c-1.8,2.7-2.1,6.8,0.5,8.8c1.5,1.2,3.6,1.2,5.5,1.1
					c5.7-0.4,11.2-2.3,15.9-5.5c5-3.3,9.2-8.4,9.9-14.4c0.7-5.6-4.8-17-12.3-13.7c-2.7,1.2-3,4.6-4.2,7
					C937.2,330.1,934.5,333.6,931.1,336.4z"/>
				<linearGradient id="XMLID_460_" gradientUnits="userSpaceOnUse" x1="1016.9103" y1="318.6392" x2="1035.8549" y2="318.6392">
					<stop  offset="0" style="stop-color:#F3676A"/>
					<stop  offset="0.4434" style="stop-color:#F56A6E"/>
					<stop  offset="0.8459" style="stop-color:#FA7479"/>
					<stop  offset="1" style="stop-color:#FD7A7F"/>
				</linearGradient>
				<path id="XMLID_41_" class="st105" d="M1018.1,322.1c0.7-3.2,1.6-6.4,2.8-9.4c1.2-2.9,2.8-6,5.7-7.2c3.8-1.6,8.8,1.3,9.2,5.4
					c-1.5-2.7-5.6-3.4-8-1.4c3.8,2.7,5.5,7.7,4.7,12.3s-4.3,8.5-8.7,9.8c2.5-2,1.9-6.8-1.1-8c-0.6,2-1.2,4.1-1.9,6.1
					c-0.3,0.8-0.5,1.7-1.2,2.2s-1.8,0.7-2.3,0c-0.2-0.3-0.3-0.6-0.4-0.9C1016.5,328.4,1017.6,324.6,1018.1,322.1z"/>
				<path id="XMLID_28_" class="st91" d="M1092.6,588.8c15-15.8,22.5-35.9,23.9-57.7c1.2-18.5-10.8-44.8-19-61.4
					c-8.2-16.6-19.4-31.5-30.6-46.2c-8.7-11.3-17.5-22.5-26.5-33.6c-3,17-1.9,35.8,4.3,51.9c6.7,17.4,7.5,36.3,7.6,55
					c0.1,10.6-0.7,21.3-4,31.3c-7.6,23.4-27.5,40.2-46.4,55.8c0.8,11.5,5.3,21.8,5.1,33.3C1013.5,616.8,1077.6,604.6,1092.6,588.8z"
					/>
				<path id="XMLID_95_" class="st46" d="M1092.6,588.8c0,0,0.5-0.5,1.4-1.6c0.9-1,2.1-2.6,3.7-4.5c0.7-1,1.5-2.1,2.4-3.4
					c0.8-1.3,1.8-2.6,2.6-4.1c1.8-3,3.6-6.5,5.3-10.4c3.5-7.9,6.1-17.6,7.2-28.3c0.2-1.3,0.3-2.7,0.4-4c0.1-1.4,0.1-2.7,0.1-4.1
					c0-1.4-0.1-2.7-0.2-4.1c-0.1-1.4-0.3-2.8-0.5-4.1c-0.9-5.5-2.4-11.1-4.2-16.5c-3.5-10.9-8.2-21.4-12.9-31.1
					c-2.3-4.8-4.7-9.5-7.2-13.7c-2.5-4.3-5-8.2-7.3-11.8c-4.8-7.2-9-13-12-17.1c-3-4.1-4.7-6.4-4.7-6.4s1.8,2.3,4.9,6.2
					c3.1,4,7.6,9.6,12.5,16.7c4.9,7.1,10.4,15.7,15.1,25.4c4.8,9.7,9.5,20.2,13.2,31.2c1.8,5.5,3.2,11.1,4.1,16.8
					c0.2,1.4,0.4,2.8,0.5,4.3c0.1,1.4,0.2,2.9,0.2,4.3c0,1.4,0,2.8-0.2,4.2c-0.1,1.4-0.2,2.7-0.4,4.1c-1.2,10.8-4.2,20.6-7.8,28.5
					c-1.8,3.9-3.7,7.4-5.7,10.4c-0.9,1.5-1.9,2.8-2.8,4.1c-0.9,1.2-1.8,2.3-2.6,3.3c-1.6,1.9-2.9,3.4-3.9,4.4
					C1093.1,588.3,1092.6,588.8,1092.6,588.8z"/>
				<path id="XMLID_101_" class="st92" d="M1055.2,533.7c3.7-0.8,7.7-1.3,11.2,0.1c6.4,2.5,9.7,10.7,16.4,12.1
					c-2.1-4-4.2-7.9-6.3-11.9c-0.9-1.6-1.8-3.4-3.3-4.4c-2.4-1.6-5.6-1.2-8.4-0.5c-8.4,1.9-16.8,4.8-24.4,8.9
					C1045.2,536.4,1050.2,534.8,1055.2,533.7z"/>
				<path id="XMLID_108_" class="st92" d="M1075.8,512c3.8-4,6-10.1,4-15.2c-3.4,3.6-6.9,7.3-10.3,10.9c-0.8,0.8-1.6,1.7-2.4,2.5
					c-6,6.3-12.3,12.5-18,19.1C1057.5,526.4,1069.5,518.7,1075.8,512z"/>
			</g>
			<g id="XMLID_1_">
				<path id="XMLID_267_" class="st106" d="M413,632.1v-11c0-6.5-4-11.8-8.8-11.8c-4.9,0-8.8,5.3-8.8,11.8v11h-5.7v6.4h29.1v-6.4
					H413z"/>
				<path id="XMLID_264_" class="st106" d="M961.8,632.1v-11c0-6.5,4-11.8,8.8-11.8c4.9,0,8.8,5.3,8.8,11.8v11h5.7v6.4h-29.1v-6.4
					H961.8z"/>
				<rect id="XMLID_261_" x="651.8" y="346.7" class="st107" width="72.6" height="216.2"/>
				<path id="XMLID_258_" class="st108" d="M746.3,332.5c-31.4,0-56.9,31.1-56.9,69.4v127.6c0,7,4.2,12.7,9.5,12.7h215
					c5.2,0,9.5-5.7,9.5-12.7V401.9c0-38.3-25.5-69.4-56.9-69.4H746.3z"/>
				<rect id="XMLID_257_" x="404.2" y="526.8" class="st109" width="568.5" height="74.6"/>
				<path id="XMLID_253_" class="st108" d="M510.3,332.5c-31.4,0-56.9,31.1-56.9,69.4v127.6c0,7,4.2,12.7,9.5,12.7h215.1
					c5.2,0,9.5-5.7,9.5-12.7V401.9c0-38.3-25.5-69.4-56.9-69.4H510.3z"/>
				<path id="XMLID_250_" class="st110" d="M379.2,446.4c0,0,1.7-16.6,23.2-25.2c16.5-6.5,44.8-12.6,53.1-7.1
					c8.3,5.6,7.7,31.6,4,59.7c0,0-20.4,74.2-41.2,55.4C397.5,510.4,379.2,446.4,379.2,446.4z"/>
				<path id="XMLID_244_" class="st110" d="M997.7,446.4c0,0-1.7-16.6-23.2-25.2c-16.5-6.5-44.8-12.6-53.1-7.1
					c-8.3,5.6-7.7,31.6-4,59.7c0,0,20.4,74.2,41.2,55.4C979.3,510.4,997.7,446.4,997.7,446.4z"/>
				<path id="XMLID_235_" class="st111" d="M947.8,494.8l-31-24.1l-204.3,0.7c-17.9,0.1-30.3,23.8-24.2,46.3c0,0.2,0.1,0.2,0.1,0.2
					S936.5,560.1,947.8,494.8z"/>
				<path id="XMLID_229_" class="st108" d="M985.8,432.1h-19.1c-6.1,0-11.1,6.2-11.7,14.2c0,0.5-0.1,1.1-0.1,1.6v25.6v90.8H688.4
					H421.9v-90.8v-25.6c0-0.5,0-1.1-0.1-1.6c-0.6-8-5.6-14.2-11.7-14.2h-19.1l0,0c-6.5,0-11.9,7.1-11.8,15.9l0,41.3v87.7v28.8v3.1
					c0,7,4.3,12.7,9.5,12.7h2.3h19.1h278.3h278.3h19.1h2.3c5.3,0,9.5-5.7,9.5-12.7v-3.1v-28.8v-87.7l-0.1-41.6
					C997.5,439,992.3,432.1,985.8,432.1L985.8,432.1z"/>
				<path id="XMLID_69_" class="st108" d="M947.8,494.8c6.2,5.5,12.2,55.9,0,64.4s-242.2,0-242.2,0s-17.2,4.8-17.2-36.4
					c0-41.2,12.7-23.5,95.5-23.5S938.8,486.8,947.8,494.8z"/>
				<path id="XMLID_44_" class="st111" d="M429,494.8l31-24.1l204.3,0.7c17.9,0.1,30.3,23.8,24.2,46.3c0,0.2-0.1,0.2-0.1,0.2
					S440.3,560.1,429,494.8z"/>
				<path id="XMLID_3_" class="st108" d="M429,494.8c-6.2,5.5-12.2,55.9,0,64.4s242.2,0,242.2,0s17.2,4.8,17.2-36.4
					c0-41.2-12.7-23.5-95.5-23.5S438,486.8,429,494.8z"/>
			</g>
			<path id="XMLID_53_" class="st90" d="M385.9,821.4c4.2,1.7,8.9,2.1,13.4,2.4c4.7,0.3,9.5,0.7,14.2,1c4,0.3,8.1,0.6,11.6,2.6
				c3.5,1.9,6.2,6,5.2,9.8c-12.4,0.2-24.8,0.4-37.3,0.6c-7.9,0.1-16.9-0.2-22.1-6.1c-0.2,2.4-0.3,4.9-0.5,7.3
				c-3.8-0.8-7.8-1.1-11.7-1.1c0.2-7.1,0.4-14.2,1.9-21.2c0.7-3.2,1.7-6.5,3.8-9c2.1-2.6,5.4-4.3,8.7-3.7c5.5,1,4.3,5,4.7,8.8
				C378.2,817,382.2,819.9,385.9,821.4z"/>
			<path id="XMLID_50_" class="st92" d="M370.7,621.4c13,17.5,26.1,35.1,35.8,54.6c6.4,12.9,11.3,27.1,9.8,41.4
				c-0.8,7.9-3.6,15.5-6.3,23c-9.1,24.8-18.1,49.7-27.2,74.5c-5.8-3.3-12-5.8-18.4-7.6c4-20.4-1.2-41.3-4.7-61.8
				c-1.1-6.1-2.2-12.4-5.6-17.6c-5.7-8.7-17.2-13.2-20.8-23c-1.2-3.4-1.4-7.1-1.3-10.7C332.7,667,348.2,637.1,370.7,621.4z"/>
			<g id="XMLID_172_">
				<g id="XMLID_392_">
					<g id="XMLID_393_">
						<path id="XMLID_394_" class="st91" d="M375.4,803.6c-5.9-10.1-2.1-24.8,8.1-30.6c-4.5,0.3-8.8,2.2-11.9,5.4
							c-1.1-6.6,0.7-13.6,4.8-18.9c3.3-4.3,8-7.5,11.4-11.8c3.4-4.3,5.1-10.8,1.8-15.1c-5.2-6.9-17.5-2.6-24-8.4
							c3.7-3.1,8.3-5.1,13-5.8c-5.5-1.2-11-2.5-16.5-3.7c1.3-7.2,9.3-12,9.8-19.3c0.6-7.6-6.9-12.9-11.7-18.9
							c-8.2-10-9.1-23.5-8.3-36.8c-11.9,15.8-19.4,35.8-19.9,54.6c-0.1,3.6,0,7.3,1.3,10.7c3.6,9.8,15,14.3,20.8,23
							c3.4,5.2,4.5,11.5,5.6,17.6c3.5,20.5,8.7,41.4,4.7,61.8c5.7,1.6,11.3,3.8,16.6,6.5c-3.6-2.5-7-5.2-10.5-7.9
							C372.1,805.2,373.7,804.4,375.4,803.6z"/>
					</g>
				</g>
			</g>
			<linearGradient id="XMLID_461_" gradientUnits="userSpaceOnUse" x1="431.3679" y1="628.0224" x2="478.3642" y2="628.0224">
				<stop  offset="0" style="stop-color:#FD7A7F"/>
				<stop  offset="0.1161" style="stop-color:#FD8C8A"/>
				<stop  offset="0.3223" style="stop-color:#FEA699"/>
				<stop  offset="0.5351" style="stop-color:#FFB8A3"/>
				<stop  offset="0.7565" style="stop-color:#FFC3AA"/>
				<stop  offset="1" style="stop-color:#FFC7AC"/>
			</linearGradient>
			<path id="XMLID_55_" class="st112" d="M451.3,636.8c12.7-0.1,24.6-3,27.1-15.4c-11.6,0.2-23.7-3.5-35.5-1.7
				c-2.7,0.4-5.5,0.8-7.8,2.4c-3.8,2.6-5.3,9.5-1.6,12.7C436.2,637.2,448.1,636.8,451.3,636.8z"/>
			<path id="XMLID_51_" class="st90" d="M275.6,839.2c4.2,1.7,8.9,2.1,13.4,2.4c4.7,0.3,9.5,0.7,14.2,1c4,0.3,8.1,0.6,11.6,2.6
				c3.5,1.9,6.2,6,5.2,9.8c-12.4,0.2-24.8,0.4-37.3,0.6c-7.9,0.1-16.9-0.2-22.1-6.1c-0.2,2.4-0.3,4.9-0.5,7.3
				c-3.8-0.8-7.8-1.1-11.7-1.1c0.2-7.1,0.4-14.2,1.9-21.2c0.7-3.2,1.7-6.5,3.8-9c2.1-2.6,5.4-4.3,8.7-3.7c5.5,1,4.3,5,4.7,8.8
				C267.8,834.9,271.9,837.7,275.6,839.2z"/>
			<linearGradient id="XMLID_462_" gradientUnits="userSpaceOnUse" x1="316.1823" y1="415.2361" x2="379.8115" y2="415.2361">
				<stop  offset="0" style="stop-color:#FD7A7F"/>
				<stop  offset="0.1161" style="stop-color:#FD8C8A"/>
				<stop  offset="0.3223" style="stop-color:#FEA699"/>
				<stop  offset="0.5351" style="stop-color:#FFB8A3"/>
				<stop  offset="0.7565" style="stop-color:#FFC3AA"/>
				<stop  offset="1" style="stop-color:#FFC7AC"/>
			</linearGradient>
			<path id="XMLID_37_" class="st113" d="M318,416.2c0.1,1.2,0.3,2.5,1,3.5c0.6,0.8,1.5,1.4,2.4,1.9c9.7,5.7,19.8,10.9,30.1,15.4
				c9.4-9.3,18.9-18.6,28.3-27.9c-13.9-8-29.5-13.1-45.4-15c-4.8-0.6-12.9-2.2-16.5,2.3C314.2,401,317.4,411,318,416.2z"/>
			<linearGradient id="XMLID_463_" gradientUnits="userSpaceOnUse" x1="300.3472" y1="346.6214" x2="312.4459" y2="346.6214">
				<stop  offset="0" style="stop-color:#FD7A7F"/>
				<stop  offset="0.1541" style="stop-color:#FA7479"/>
				<stop  offset="0.5566" style="stop-color:#F56A6E"/>
				<stop  offset="1" style="stop-color:#F3676A"/>
			</linearGradient>
			<path id="XMLID_34_" class="st114" d="M300.4,349.9c0.3,3.7,1,7.5,3,10.7c2,3.2,5.4,5.6,9.1,5.7c-0.2,0-0.8-34.3-2.6-37.3
				C304,319.6,300.1,345.8,300.4,349.9z"/>
			<linearGradient id="XMLID_464_" gradientUnits="userSpaceOnUse" x1="414.2752" y1="335.1607" x2="429.7737" y2="335.1607">
				<stop  offset="0" style="stop-color:#FD7A7F"/>
				<stop  offset="0.1541" style="stop-color:#FA7479"/>
				<stop  offset="0.5566" style="stop-color:#F56A6E"/>
				<stop  offset="1" style="stop-color:#F3676A"/>
			</linearGradient>
			<path id="XMLID_35_" class="st115" d="M424.6,322.5c1.2,2.8,2.2,5.7,3,8.6c1.3,4.6,2.5,9.3,2.1,14c-0.5,4.7-2.8,9.5-7,11.7
				c-2.4-11.1-4.8-22.2-7.3-33.2c-0.6-2.7-3-9.5,2-10.1C420.7,313.1,423.6,320.1,424.6,322.5z"/>
			<path id="XMLID_46_" class="st116" d="M301.9,323.2c-0.2,5.4,1.1,10.7,2.4,15.9c2.3,8.8,4.8,17.8,10.3,25
				c0.7-14.9,1.4-29.9,2.1-44.8c0.1-3.2,0.3-6.6-1-9.6C310.4,297.3,302.1,318.2,301.9,323.2z"/>
			<path id="XMLID_47_" class="st116" d="M417.6,358.8c5.1-10.7,4.9-23,4.6-34.8c-0.2-8-0.4-16.1-2.1-24c-0.7-3-5.5-18.5-10.4-16.1
				c-3.1,1.5,0.5,13.9,1,16.3c2.1,9.7,3.9,19.5,5,29.4c0.6,5,1,10.1,1.3,15.1C417.3,348.1,419,355.8,417.6,358.8z"/>
			<linearGradient id="XMLID_465_" gradientUnits="userSpaceOnUse" x1="358.5762" y1="284.1996" x2="372.2178" y2="390.8958">
				<stop  offset="0" style="stop-color:#FD7A7F"/>
				<stop  offset="0.1161" style="stop-color:#FD8C8A"/>
				<stop  offset="0.3223" style="stop-color:#FEA699"/>
				<stop  offset="0.5351" style="stop-color:#FFB8A3"/>
				<stop  offset="0.7565" style="stop-color:#FFC3AA"/>
				<stop  offset="1" style="stop-color:#FFC7AC"/>
			</linearGradient>
			<path id="XMLID_32_" class="st117" d="M309.2,351.2c0.1,9.1-0.5,18.1,0.4,27.1s3.4,18.1,8.9,25.3c9.7,12.6,26.8,16.8,42.7,17.4
				c14.7,0.6,29.8-1.2,42.8-8c13-6.8,23.7-19.1,26-33.6c3.3-20.2-9.4-39.4-12.2-59.7c-0.9-6.6-0.7-13.2-1.6-19.8
				c-0.9-6.6-3-13.3-7.7-18c-8.5-8.6-22.5-8.1-34.5-6.5c-13,1.7-26,4-38.1,9c-10.3,4.2-25.9,12.7-30.2,23.9
				c-2.1,5.4,0.6,12,1.4,17.4C308.4,334.1,309.1,342.6,309.2,351.2z"/>
			<path id="XMLID_92_" class="st46" d="M361.2,421c0,0,2.3,0.1,6.4-0.1c4.1-0.1,9.9-0.5,16.7-1.9c6.8-1.4,14.6-3.8,22.1-8.3
				c3.7-2.2,7.2-5,10.4-8.2c3.1-3.2,6-6.9,8.1-11c2.1-4,3.7-8.4,4.3-12.8c0.1-1.1,0.3-2.3,0.4-3.4c0-1.1,0.1-2.2,0.1-3.3
				c-0.1-1.1-0.1-2.2-0.2-3.3c-0.1-1.1-0.2-2.2-0.4-3.2c-1.2-8.6-3.8-16.3-5.9-23c-1.1-3.3-2-6.4-2.7-9.2c-0.8-2.7-1.3-5.2-1.7-7.2
				c-0.4-2-0.6-3.6-0.8-4.7c-0.1-1.1-0.2-1.7-0.2-1.7s0.1,0.6,0.3,1.6c0.2,1.1,0.5,2.6,1,4.6c0.5,2,1.2,4.4,2,7.1
				c0.9,2.7,1.9,5.7,3.1,9c1.1,3.3,2.4,6.9,3.6,10.7c1.2,3.9,2.3,8,2.9,12.4c0.1,1.1,0.3,2.2,0.4,3.3c0.1,1.1,0.1,2.3,0.2,3.4
				c0,1.2-0.1,2.3-0.1,3.5c-0.1,1.1-0.2,2.3-0.4,3.4c-0.6,4.7-2.2,9.2-4.4,13.5c-2.3,4.2-5.2,8-8.5,11.3c-3.3,3.3-7,6.1-10.8,8.4
				c-3.8,2.3-7.8,3.9-11.6,5.2c-3.8,1.3-7.6,2.2-11,2.8c-6.9,1.2-12.8,1.3-16.9,1.3c-2,0-3.7-0.1-4.7-0.2
				C361.8,421.1,361.2,421,361.2,421z"/>
			<path id="XMLID_36_" class="st91" d="M301.6,280c-0.2-4.2-0.3-8.4,0.9-12.4c1.3-4.2,4-7.7,6.8-11c10.9-12.6,25.2-22.5,41.4-26.5
				s34.2-1.6,47.7,8.1c15.7,11.2,23.9,32,20.1,51c-19.6-8.4-41.6-11.8-62.5-7.9c-22.4,4.2-36.5,16.3-52,31.9
				c-2.6-2.5-1.5-11.6-1.7-15.4C302.1,291.7,301.9,285.8,301.6,280z"/>
			<path id="XMLID_93_" class="st46" d="M350.7,230c0,0,0.4-0.1,1.2-0.3c0.8-0.2,1.9-0.5,3.3-0.8c1.4-0.3,3.2-0.6,5.3-0.8
				c2-0.2,4.4-0.4,6.9-0.4c2.5,0,5.3,0.2,8.2,0.6c2.9,0.4,5.9,1,9,2c3,1,6.1,2.3,9.1,3.8c3,1.6,5.8,3.6,8.4,5.7c2.6,2.3,5,4.8,7,7.4
				c2,2.7,3.8,5.5,5.2,8.4c1.5,2.8,2.5,5.8,3.4,8.6c0.8,2.8,1.4,5.5,1.7,8.1c0.4,2.5,0.4,4.9,0.4,6.9c0,1-0.1,2-0.1,2.9
				c-0.1,0.9-0.2,1.7-0.3,2.4c-0.1,1.5-0.5,2.6-0.6,3.4c-0.2,0.8-0.2,1.2-0.2,1.2s0.1-0.4,0.1-1.2c0.1-0.8,0.3-1.9,0.3-3.4
				c0-0.7,0.1-1.5,0.1-2.4c0-0.9,0-1.8-0.1-2.9c-0.1-2-0.3-4.3-0.7-6.8c-0.4-2.5-1.1-5.1-1.9-7.8c-0.9-2.7-2.1-5.5-3.5-8.2
				c-1.4-2.8-3.2-5.5-5.2-8c-2-2.6-4.3-4.9-6.8-7.1c-2.6-2.2-5.2-4.1-8.1-5.6c-2.9-1.6-5.8-2.8-8.8-3.8c-3-1-5.9-1.7-8.7-2.2
				c-2.8-0.4-5.5-0.8-8-0.9c-5-0.2-9.2,0.1-12.1,0.6c-1.5,0.2-2.6,0.4-3.4,0.5C351.1,229.9,350.7,230,350.7,230z"/>
			<path id="XMLID_31_" class="st92" d="M300.2,319.6c0,0,9.6-23.9,54.9-29.4c45.3-5.5,60-6.3,72.4,8.7c0,0-2.7-12.3-18.3-24.7
				c-15.6-12.4-40.2-18.3-57-10.6c-16.8,7.7-40.6,22.4-48.6,44.7C303.6,308.2,300.1,313.7,300.2,319.6z"/>
			<path id="XMLID_38_" class="st96" d="M347.9,312.7c-0.5-2.6-1.1-5.3-1.6-7.9c-0.1-0.3-0.1-0.7-0.4-0.9c-0.2-0.2-0.6-0.2-0.9-0.2
				c-9.9,0.5-19.7,1.7-29.3,3.7c0.3,3.9,1,7.7,2.2,11.4c8.7-2.1,17.5-3.4,26.4-4.1c2.4-0.2,5-0.2,6.8,1.4c-0.5-3.6-0.3-8.8-2.3-11.8
				C347.5,306.2,347.4,310.4,347.9,312.7z"/>
			<path id="XMLID_39_" class="st96" d="M375.6,315.8c-1.3-4.7-2.5-9.4-3.4-14.1c1.1,2.2,2.4,3.4,3.6,5.7c0.5-2.1,1-4.3,1.5-6.4
				c8-2.1,16.4-3,24.7-2.4c0.4,0,0.9,0.1,1.2,0.4c0.3,0.3,0.3,0.9,0.2,1.3c-0.4,4-0.8,8-1.2,12.1
				C393.3,310.3,384.1,312.3,375.6,315.8z"/>
			<linearGradient id="XMLID_466_" gradientUnits="userSpaceOnUse" x1="341.3474" y1="343.0797" x2="341.3474" y2="318.8397">
				<stop  offset="0" style="stop-color:#135F6D"/>
				<stop  offset="6.084794e-002" style="stop-color:#135C6C"/>
				<stop  offset="0.6518" style="stop-color:#174160"/>
				<stop  offset="1" style="stop-color:#19375B"/>
			</linearGradient>
			<ellipse id="XMLID_40_" class="st118" cx="341.3" cy="331" rx="4.6" ry="12.1"/>
			<linearGradient id="XMLID_467_" gradientUnits="userSpaceOnUse" x1="390.1945" y1="339.0695" x2="390.1945" y2="314.8569">
				<stop  offset="0" style="stop-color:#135F6D"/>
				<stop  offset="6.084794e-002" style="stop-color:#135C6C"/>
				<stop  offset="0.6518" style="stop-color:#174160"/>
				<stop  offset="1" style="stop-color:#19375B"/>
			</linearGradient>
			<path id="XMLID_42_" class="st119" d="M394.8,326.7c0.3,6.7-1.4,12.2-4,12.3c-2.6,0.1-4.9-5.2-5.2-11.9s1.4-12.2,4-12.3
				S394.5,320,394.8,326.7z"/>
			<path id="XMLID_43_" class="st102" d="M358.8,367.1c-8-1.8-15.7-5.8-23.9-5.8c-0.8,0-1.6,0-2.2,0.4c-0.7,0.4-1.2,1.1-1.6,1.9
				c-2.9,5.5-1.4,12.2,1.3,17.8c4.9,9.8,13.9,17.6,24.4,20.9c9.1,2.9,19.1,2.5,28.2-0.6c6.9-2.4,13.4-6.4,17.8-12.2
				c4.9-6.5,10.4-25.5-2.5-26.2c-5.9-0.3-12.5,3-18.4,4C374.2,368.5,366.4,368.8,358.8,367.1z"/>
			<g id="XMLID_65_">
				<path id="XMLID_66_" class="st46" d="M349.8,370c3.8,2.7,8.6,3.5,13.2,4.2c7,1.1,14.3,2.1,21.1-0.1c5.1-1.6,9.8-5.6,11.5-10.6
					c-4.6,0.9-9.4,2.9-13.8,3.7c-7.6,1.3-15.4,1.5-23-0.2c-4.7-1.1-9.3-2.9-14-4.2C345.5,365.7,347.4,368.3,349.8,370z"/>
				<path id="XMLID_67_" class="st103" d="M359.3,379.9c-8.9-0.3-18.1-0.3-26.8,1.7c4.9,9.7,13.8,17.3,24.2,20.6
					c9.1,2.9,19.1,2.5,28.2-0.6c5.8-2,11.4-5.2,15.6-9.6c-4.6-4.3-10.5-7.3-16.6-9C375.9,380.6,367.6,380.2,359.3,379.9z"/>
			</g>
			<path id="XMLID_48_" class="st91" d="M311.3,421.8c-0.5-6.4-0.9-12.9-1.2-19.4c22.3,10.9,44.2,20.9,67.3,29.8
				c-0.5,9.3-1.6,19.4-4.6,28.2c-18-11-36.6-21.1-55.6-30.4C314.4,428.5,311.6,425,311.3,421.8z"/>
			<path id="XMLID_90_" class="st46" d="M310.1,402.4l33.7,14.9c5.6,2.5,11.3,4.8,16.9,7.2c5.6,2.4,11.3,4.7,17,6.9l0.5,0.2l0,0.5
				c-0.3,4.8-0.8,9.6-1.6,14.3c-0.4,2.4-0.9,4.7-1.5,7c-0.6,2.3-1.3,4.6-2.2,6.8c0.7-2.3,1.2-4.6,1.7-7c0.5-2.3,0.8-4.7,1.1-7.1
				c0.6-4.7,0.9-9.5,1.1-14.2l0.5,0.7c-5.8-2.2-11.5-4.4-17.2-6.7c-5.7-2.3-11.3-4.8-16.9-7.4c-2.8-1.3-5.6-2.5-8.4-3.9l-8.3-4
				C321,408.2,315.5,405.3,310.1,402.4z"/>
			<path id="XMLID_49_" class="st91" d="M372.1,637.2c10.1-8.4,16.3-20.8,19.4-33.6c3.1-12.8,3.3-26.1,3-39.2
				c-0.5-20.9-2.1-41.7-4.9-62.4c-2-15-4.8-30.2-11.9-43.5c-11.3-21.3-35.3-32.1-59-36.5c-8.8-1.6-16.3,6.1-21.5,13.3
				c-30.8,42.6-46.9,93.9-57.9,145.3c-3.1,14.5-5.5,30.7,2.6,43.1c2.6,4,6.2,7.2,9.3,10.9c0.5,34.7,5.3,70.1,17.2,102.7
				c-9.2,32.6-15.8,65.4-20.9,98.9c9.1-1.7,18.1-1.4,27.4-1.6c15.4-24.4,30.1-47.7,44.8-72.4c10.7-17.9,21.2-36.1,27.6-56
				C354.4,684.7,354.9,651.5,372.1,637.2z"/>
			<path id="XMLID_21_" class="st92" d="M308.8,526.2c-3.2-10.8-4.6-22.1-4.3-33.4c-7.8,29.1-3.5,61.3,11.7,87.3
				c-6.6-4.5-13.1-9-19.7-13.5c7.8,11.5,15.6,23.1,23.4,34.6c-11.3,9.2-26.3,13.8-40.8,12.6c-12.7-1-24.9-6.3-37.6-5.9
				c3.1,6.7,9.8,11.1,16.8,13.3c7,2.2,14.5,2.4,21.8,2.7c-8.7,0.9-17.1,3.3-24.9,7.3c11.6,1.4,23.3-2,34.9-0.8
				c5.7,0.6,11.3,2.3,16.9,3.6c26.5,6,55.2,2.2,79.2-10.6c-16.3-15.9-32.5-33-40.6-54.3c-9.7-25.7-6.3-54.2-2.8-81.4
				c0.9-6.7,5.9-23.2-2.7-27.3c-7.2-3.4-14.1,8.8-17.2,14c-4.7,7.7-7.8,16.4-10,25.1C311.4,506.3,306.8,519.5,308.8,526.2z"/>
			<path id="XMLID_52_" class="st91" d="M328.9,463.6c8.8-15.6,31.1-15.8,40.4-0.6c14.8,24.3,22,53.9,26.1,82.5
				c1.6,11.3,3,22.9,7.9,33.1c5.1,10.6,13.8,19.1,22.7,26.8c6.5,5.7,13.2,11.1,20.2,16.3c-1.9,5.4-4.2,10.8-5.8,16.3
				c-21.4-2.4-45.1-3.5-66.5-5.9c-13.2-1.5-27.3-3.3-37.5-11.9c-11.2-9.4-15.1-24.8-17.8-39.2c-4.6-25.1-7.3-50.9-3.8-76.2
				C316.8,490.4,321.7,476.4,328.9,463.6z"/>
			<path id="XMLID_63_" class="st94" d="M386.4,259.4c-19.8-5-41.7,0.4-57.9,12.9c-15,11.6-25.2,28.8-29.4,47.4
				c-0.1,0.4,0.1,0.8,0.5,1l0,0c0.5,0.2,1.1,0,1.2-0.5c4.9-16.1,14.4-30.8,27.7-41c16.2-12.5,38-17.8,57.9-12.9
				c16.8,4.2,33.1,17.5,40.9,33.4c0.2,0.4,0.7,0.5,1,0.2l0,0c0.2-0.2,0.3-0.4,0.2-0.7C423,279.7,406,264.3,386.4,259.4z"/>
			<path id="XMLID_61_" class="st46" d="M341.6,324.4c-0.2-1.2-1.9-1.8-2.9-1.2c-1.1,0.7-1.7,1.9-2,3.2c-0.3,1.3-0.6,2.9,0.3,4
				c1,1.3,3,1.6,3.9,0c0.6-1.1,0.4-2.1,0.5-3.2C341.6,326.3,341.8,325.4,341.6,324.4z"/>
			<path id="XMLID_62_" class="st46" d="M388.7,323.6c0-0.6,0.1-1.3,0-1.9c-0.2-1.2-1.4-2.3-2.6-1.5c-1.1,0.7-1.5,1.7-1.7,3
				c-0.2,1.3,0.1,2.8,1.4,3.4c0.9,0.4,1.9,0.3,2.5-0.6C388.8,325.2,388.8,324.5,388.7,323.6z"/>
			<linearGradient id="XMLID_468_" gradientUnits="userSpaceOnUse" x1="394.408" y1="364.4925" x2="364.4454" y2="330.1451">
				<stop  offset="0" style="stop-color:#FD7A7F"/>
				<stop  offset="1" style="stop-color:#FD7B80;stop-opacity:0"/>
			</linearGradient>
			<path id="XMLID_18_" class="st120" d="M390.6,342.8c2.4,1,5,1.9,6.5,4c2.4,3.3,0.6,8.3-2.7,10.7s-7.6,2.8-11.7,2.8
				c-3.8,0-7.8-0.4-11.1-2.3c-2.5-1.4-4.4-3.6-6-6c-3.5-5.1-11.4-30,0.6-31.2c4.6-0.5,7.5,8.1,9.9,11.1
				C380,336.6,385,340.4,390.6,342.8z"/>
			<path id="XMLID_20_" class="st92" d="M313.8,424.2c8.3,1.3,16.6,2.5,24.9,3.8c4.3,0.6,8.6,1.3,12.6,2.9
				c6.1,2.4,25.1,19.6,23.5,22.8c0,0-21.3-14.7-30.6-18.6C334.9,431.2,323.7,425.7,313.8,424.2z"/>
			<path id="XMLID_45_" class="st92" d="M289.5,589.3c-4.5-2.9-8.9-5.9-12.3-10c-3.4-4.1-5.6-9.4-5-14.7c-0.3,2.9,13.8,14.4,16,16.4
				c5.3,5.1,12.6,9.8,16.9,15.6C299.6,596,294.1,592.3,289.5,589.3z"/>
			<path id="XMLID_60_" class="st92" d="M365.2,571c3.3-4.6,8-9.8,13.6-8.8c1.5,0.3,2.8,0.9,4.1,1.6c6.5,3.3,12.9,6.6,19.4,9.9
				C395.6,579.3,373,560.1,365.2,571z"/>
			<path id="XMLID_64_" class="st92" d="M374.4,536.5c-1.1-1.8-2.2-4.1-0.9-5.8c7.7,9,15.2,19.1,20.4,29.8
				C386.1,559.1,378.4,542.9,374.4,536.5z"/>
			<path id="XMLID_78_" class="st92" d="M356.4,590.8c14.4-5.7,28.4-12.1,42.5-18.5c-7.7,1.3-15.2,3.5-22.4,6.6
				C369.4,581.9,363.3,588,356.4,590.8z"/>
			<path id="XMLID_91_" class="st92" d="M333.1,668.2c-8.2,5.7-16.4,12.4-20.2,21.7c5.7-5.3,11.5-10.6,18.3-14.2
				c2-1.1,4.2-2,6.1-3.3c2.2-1.5,4-3.4,5.7-5.4c5.3-5.9,10.1-12.3,14.1-19C349.1,654.3,341.8,662.1,333.1,668.2z"/>
			<g id="XMLID_164_">
				<g id="XMLID_395_">
					<g id="XMLID_396_">
						<path id="XMLID_397_" class="st92" d="M318.4,703.9c-2.3,0.7-4.8,1.3-6.2,3.2c-1.4,1.8-1.2,4.3-1.2,6.6
							c0,5.8-1.1,11.5-3.4,16.8c6.3-1.8,12.4-4,18.4-6.6c-5.9,6.3-12.1,12.7-20,16.3c-7.9,3.6-18,3.7-24.4-2.1
							c7.9,8.1,18.5,13.6,29.7,15.5c-7.9,12-15.8,24-23.7,36c-1.8,2.7-3.6,5.4-4.4,8.6c-0.6,2.2-0.6,4.6-1.4,6.8
							c-2.6,7.1-11.7,8.7-19.3,9.3c2.5,5.1,7.2,9,12.6,10.5c-6.6,1.9-13.1,3.8-19.7,5.7c6.5-2,12.7,0.6,18.9,4.1c0.2,0,0.5,0,0.7,0
							c15.4-24.4,30.1-47.7,44.8-72.4c10.7-17.9,21.2-36.1,27.6-56c4.5-13.8,6.2-32.6,11.6-48c-3.3,5.3-6.6,10.5-10,15.8
							C341.4,686.3,332.4,699.6,318.4,703.9z"/>
					</g>
				</g>
			</g>
			<path id="XMLID_89_" class="st46" d="M446.2,621.9c-7.6-5.5-15-11.3-22.1-17.4c-7.1-6.1-13.9-12.8-18.9-20.9
				c-1.2-2-2.4-4.1-3.3-6.3c-1-2.2-1.8-4.4-2.5-6.7c-1.4-4.5-2.3-9.2-3.1-13.8c-0.4-2.3-0.7-4.6-1.1-7c-0.3-2.3-0.7-4.6-1.1-6.9
				l-2.3-13.9l0,0l0,0l-2-17.9l-1-8.9c-0.4-3-0.8-5.9-1.3-8.9c-1.9-11.8-4.7-23.5-10.2-34.1c-0.7-1.3-1.5-2.6-2.2-3.9
				c-0.8-1.2-1.7-2.4-2.5-3.7c-0.9-1.2-1.9-2.3-2.8-3.5l-3.1-3.2l-3.3-3l-3.5-2.8l-3.7-2.6l-3.8-2.3l-3.9-2.1l-4-2l-4.1-1.8
				l-4.2-1.6l-4.3-1.4l-4.3-1.3l-4.4-1.1l-4.4-1l4.4,0.8l4.4,1l4.4,1.1l4.3,1.3l4.3,1.5l4.2,1.7l4.1,1.9c1.4,0.7,2.7,1.4,4,2.1
				l3.9,2.3l3.8,2.5l3.6,2.8l3.4,3l3.2,3.3c1,1.2,2,2.3,2.9,3.5c0.9,1.2,1.8,2.5,2.6,3.7c0.8,1.3,1.5,2.5,2.3,3.9
				c5.7,10.8,8.6,22.7,10.6,34.5c0.5,3,0.9,6,1.3,8.9l1,9l1.9,17.9l0-0.1l2.3,13.9c0.4,2.3,0.7,4.7,1,7c0.3,2.3,0.7,4.6,1,6.9
				c0.7,4.6,1.7,9.2,3,13.6c0.7,2.2,1.4,4.4,2.3,6.5c0.9,2.2,2,4.2,3.2,6.2c4.8,8,11.5,14.7,18.4,21
				C431.6,610.1,438.8,616.1,446.2,621.9z"/>
			<path id="XMLID_88_" class="st46" d="M319.9,762c0,0,0.4-0.9,1.2-2.4c0.8-1.5,1.9-3.7,3.3-6.3c1.4-2.6,3-5.6,4.7-8.8
				c1.7-3.2,3.6-6.7,5.3-10.1c1.8-3.5,3.5-7,5.1-10.2c0.8-1.7,1.5-3.3,2.2-4.8c0.7-1.5,1.4-3,1.9-4.3c1.1-2.7,2.1-4.9,2.7-6.5
				c0.6-1.6,1-2.5,1-2.5s-0.3,0.9-0.7,2.6c-0.2,0.8-0.5,1.8-0.9,3c-0.3,1.1-0.7,2.4-1.3,3.8c-1,2.8-2.2,6-3.7,9.4
				c-0.8,1.7-1.5,3.4-2.4,5.2c-0.8,1.7-1.7,3.5-2.6,5.3c-1.8,3.5-3.7,6.9-5.6,10.1c-1.8,3.2-3.7,6.1-5.2,8.6
				c-1.5,2.5-2.9,4.5-3.9,5.9C320.5,761.2,319.9,762,319.9,762z"/>
			<g id="XMLID_57_">
				<g id="XMLID_59_">
					<path id="XMLID_326_" class="st2" d="M628.6,279.9v115.6c0,5.5-4.5,10-10,10H493.1c-5.5,0-10-4.5-10-10V279.9H628.6z"/>
					<rect id="XMLID_323_" x="468.8" y="268.3" class="st121" width="174.1" height="15.1"/>
					<polygon id="XMLID_320_" class="st45" points="490.3,256.9 621.4,256.9 642.9,268.3 468.8,268.3 					"/>
					<g id="XMLID_297_">
						<rect id="XMLID_317_" x="489.2" y="291.3" class="st121" width="133.3" height="52"/>
						<rect id="XMLID_314_" x="492.1" y="294.2" class="st45" width="127.5" height="46.3"/>
						<rect id="XMLID_310_" x="494.9" y="297" class="st2" width="121.8" height="40.5"/>
						<g id="XMLID_298_">
							<g id="XMLID_303_">
								<circle id="XMLID_307_" class="st122" cx="578.1" cy="317.3" r="5"/>
								<circle id="XMLID_304_" class="st122" cx="533.6" cy="317.3" r="5"/>
							</g>
							<path id="XMLID_299_" class="st123" d="M533.6,317.3c0,2.9,2.3,5.2,5.2,5.2h34.1c2.9,0,5.2-2.3,5.2-5.2l0,0
								c0-2.9-2.3-5.2-5.2-5.2h-34.1C535.9,312.1,533.6,314.4,533.6,317.3L533.6,317.3z"/>
						</g>
					</g>
					<g id="XMLID_287_">
						<rect id="XMLID_294_" x="489.2" y="343.3" class="st121" width="133.3" height="52"/>
						<rect id="XMLID_291_" x="492.1" y="346.2" class="st45" width="127.5" height="46.3"/>
						<rect id="XMLID_288_" x="494.9" y="349" class="st2" width="121.8" height="40.5"/>
					</g>
					<g id="XMLID_68_">
						<g id="XMLID_272_">
							<circle id="XMLID_284_" class="st122" cx="578.1" cy="370.6" r="5"/>
							<circle id="XMLID_274_" class="st122" cx="533.6" cy="370.6" r="5"/>
						</g>
						<path id="XMLID_70_" class="st123" d="M533.6,370.6c0,2.9,2.3,5.2,5.2,5.2h34.1c2.9,0,5.2-2.3,5.2-5.2l0,0
							c0-2.9-2.3-5.2-5.2-5.2h-34.1C535.9,365.4,533.6,367.7,533.6,370.6L533.6,370.6z"/>
					</g>
				</g>
			</g>
			<g id="XMLID_334_">
				<g id="XMLID_338_">
					<g id="XMLID_342_">
						<rect id="XMLID_285_" x="778.2" y="277" class="st124" width="5" height="113.7"/>
					</g>
					<polygon id="XMLID_339_" class="st44" points="750.6,189.8 778.2,189.8 783.2,189.8 810.8,189.8 848.9,283.2 780.7,283.2 
						712.5,283.2 					"/>
				</g>
				<g id="XMLID_335_">
					<rect id="XMLID_337_" x="755.3" y="283.2" class="st124" width="1.2" height="78"/>
					<path id="XMLID_336_" class="st124" d="M753.3,363.9c0,1.4,1.2,2.6,2.6,2.6l0,0c1.4,0,2.6-1.2,2.6-2.6v-1.5
						c0-1.4-1.2-2.6-2.6-2.6l0,0c-1.4,0-2.6,1.2-2.6,2.6V363.9z"/>
				</g>
			</g>
			<g id="XMLID_331_">
				<rect id="XMLID_79_" x="761.7" y="359.7" class="st125" width="123" height="123.7"/>
				<rect id="XMLID_73_" x="660.4" y="306.3" class="st125" width="77.2" height="177"/>
				<rect id="XMLID_74_" x="621.8" y="306.3" class="st126" width="77.2" height="177"/>
				<rect id="XMLID_77_" x="725.6" y="359.7" class="st126" width="123" height="123.7"/>
				<rect id="XMLID_311_" x="521.6" y="359.7" class="st125" width="123" height="123.7"/>
				<rect id="XMLID_302_" x="485.5" y="359.7" class="st126" width="123" height="123.7"/>
				<rect id="XMLID_86_" x="653" y="416.8" class="st125" width="158.9" height="66.5"/>
				<rect id="XMLID_87_" x="621.8" y="416.8" class="st126" width="158.9" height="66.5"/>
				<polygon id="XMLID_96_" class="st125" points="456.2,329.2 579.2,329.2 608.6,359.7 485.5,359.7 				"/>
				<polygon id="XMLID_328_" class="st127" points="662.7,329.2 626.6,329.2 608.6,359.7 644.6,359.7 				"/>
			</g>
			<g id="XMLID_4_">
				<rect id="XMLID_56_" x="682.3" y="366.5" class="st128" width="7.3" height="6.1"/>
				<rect id="XMLID_54_" x="658.6" y="413.6" class="st128" width="34.7" height="3.8"/>
				<path id="XMLID_362_" class="st124" d="M699.1,409.4c0,3.5-2.8,6.3-6.3,6.3h-33.6c-3.5,0-6.3-2.8-6.3-6.3v-33.6
					c0-3.5,2.8-6.3,6.3-6.3h33.6c3.5,0,6.3,2.8,6.3,6.3V409.4z"/>
				<path id="XMLID_360_" class="st46" d="M695.1,406.4c0,2.9-2.3,5.2-5.2,5.2H662c-2.9,0-5.2-2.3-5.2-5.2v-27.9
					c0-2.9,2.3-5.2,5.2-5.2h27.9c2.9,0,5.2,2.3,5.2,5.2V406.4z"/>
				<rect id="XMLID_359_" x="675.4" y="374.8" class="st124" width="1.2" height="5"/>
				<rect id="XMLID_357_" x="675.4" y="404.6" class="st124" width="1.2" height="5"/>
				<rect id="XMLID_356_" x="658.6" y="392" class="st124" width="5" height="1.2"/>
				<rect id="XMLID_354_" x="688.4" y="392" class="st124" width="5" height="1.2"/>
				<g id="XMLID_5_">
					<polygon id="XMLID_329_" class="st124" points="680.2,385.4 675.1,392.7 676.5,393.5 					"/>
					<polygon id="XMLID_330_" class="st124" points="676,380.8 675.4,392.6 676.6,392.6 					"/>
					<circle id="XMLID_332_" class="st124" cx="676" cy="392.6" r="1"/>
				</g>
			</g>
			<g id="XMLID_2_">
				<path id="XMLID_370_" class="st106" d="M682.8,482.5c5.8-2.6,16.8-4.4,29.5-4.4c12.7,0,23.8,1.8,29.5,4.4h4.2v4.1
					c0,4.7-15.1,8.5-33.7,8.5c-18.6,0-33.7-3.8-33.7-8.5v-4.1H682.8z"/>
				<ellipse id="XMLID_367_" class="st122" cx="712.3" cy="482.5" rx="33.7" ry="8.5"/>
				<g id="XMLID_363_">
					<path id="XMLID_364_" class="st106" d="M712.3,484.9c-1.5,0-2.6-1.2-2.6-2.6c0-52,10.9-102.7,19.7-143.5
						c7.7-35.9,13.9-64.2,8.8-76.8c-6-14.8-16.9-19.6-25-19.2c-8.8,0.4-16,6.6-18.8,16c-0.4,1.4-1.9,2.2-3.3,1.8
						c-1.4-0.4-2.2-1.9-1.8-3.3c3.5-11.7,12.5-19.3,23.6-19.8c10-0.5,23.1,5.2,30.1,22.5c5.7,14.1-0.2,41.7-8.5,79.9
						c-8.7,40.5-19.6,90.9-19.6,142.4C715,483.7,713.8,484.9,712.3,484.9z"/>
				</g>
				<path id="XMLID_355_" class="st122" d="M678.8,270.8c-0.8,2.3,0.5,4.9,2.8,5.7l6.6,2.3c2.3,0.8,4.9-0.5,5.7-2.8l5.8-16.9
					c0.8-2.3-0.5-4.9-2.8-5.7l-6.6-2.3c-2.3-0.8-4.9,0.5-5.7,2.8L678.8,270.8z"/>
				<g id="XMLID_290_">
					<path id="XMLID_292_" class="st106" d="M665,273.3c11.8-10.3,22.7-4.7,22.7-4.7s12.1,2.2,15.1,17.6c2.5,12.7-1.5,22-1.5,22
						l-24.4-8l-24.2-8.6C652.8,291.6,655.3,281.8,665,273.3z"/>
				</g>
				
					<ellipse id="XMLID_289_" transform="matrix(-0.9468 -0.3219 0.3219 -0.9468 1221.6558 801.6924)" class="st129" cx="677.1" cy="299.8" rx="26.5" ry="3.6"/>
				
					<ellipse id="XMLID_286_" transform="matrix(-0.9468 -0.322 0.322 -0.9468 1221.3523 802.2532)" class="st130" cx="677" cy="300.1" rx="24.5" ry="2.8"/>
				<g id="XMLID_271_">
					<defs>
						
							<ellipse id="XMLID_275_" transform="matrix(-0.9468 -0.322 0.322 -0.9468 1221.3523 802.2532)" cx="677" cy="300.1" rx="24.5" ry="2.8"/>
					</defs>
					<clipPath id="XMLID_469_">
						<use xlink:href="#XMLID_275_"  style="overflow:visible;"/>
					</clipPath>
					<path id="XMLID_276_" class="st131" d="M684.7,299c-1.7,2.8-5.1,4.2-8.3,3.1c-3.2-1.1-5.1-4.3-4.7-7.5L684.7,299z"/>
				</g>
			</g>
		</g>
	</g>
</g>
</svg>
