<svg xmlns="http://www.w3.org/2000/svg" viewBox="0 0 551.51 240.66"><style>.st5{fill:#fff}.st80{fill:#53af4b}.st84{fill:#1d2141}.st85{fill:#fde215}.st91{fill:#2f435a}.st93{fill:#328b36}</style><g id="Layer_28"><path d="M320.08 0h15.78c2.32 0 4.2 1.67 4.21 3.73l.1 96.19c0 8.89.01 63.2-2.4 63.2h-32.4L320.08 0" fill="#a2a5b8"/><path fill="#191f43" d="M23.75 163.13h336.96v33.19H23.75z"/><path d="M327.83 163.12H11.5c-6.33 0-11.46-5.13-11.46-11.46V11.46C.03 5.13 5.16 0 11.5 0h304.87c6.33 0 11.46 5.13 11.46 11.46v151.66z" fill="#cacbd6"/><path class="st5" d="M97.18 71.96a7.19 7.19 0 00-.81-.05c-1.26 0-2.45.49-3.31 1.47v-1.25h-3.43v14.91h3.42v-4.07h.01V81.8c.83.92 1.99 1.38 3.32 1.38.18 0 .36-.01.54-.02 2.82-.21 4.92-2.05 4.92-5.6-.01-3.45-2.03-5.29-4.66-5.6m-1.44 8.23c-1.63 0-2.69-.82-2.69-2.64 0-1.81 1.05-2.62 2.69-2.62 1.61 0 2.66.82 2.66 2.62 0 1.82-1.05 2.64-2.66 2.64zm37.67-8.27c-3.41 0-6.12 1.85-6.12 5.62 0 3.8 2.7 5.64 6.12 5.64 3.39 0 6.09-1.85 6.09-5.64.01-3.78-2.7-5.62-6.09-5.62m0 8.26c-1.63 0-2.68-.82-2.68-2.64 0-1.8 1.05-2.62 2.68-2.62 1.61 0 2.66.82 2.66 2.62 0 1.82-1.05 2.64-2.66 2.64m25.12.01v-8.06h-3.44v10.86h5.69l3.59-8.17v8.17h3.44V72.13h-5.75zm-6.84-2.76c.67-.5 1.02-1.26 1.02-2.19 0-1.8-1.28-3.1-3.69-3.1h-7.86v10.85h8.3c2.41 0 3.69-1.3 3.69-3.1-.01-1.12-.53-1.96-1.46-2.46m-7.11-2.69h3.84c.59 0 .95.24.95.78 0 .52-.37.74-.95.74h-3.84v-1.52zm4.19 5.55h-4.19v-1.56h4.19c.56 0 .95.24.95.76 0 .54-.39.8-.95.8m42.7-8.16l-2.83 3.81h-1.45v-3.81h-3.44v10.85h3.44v-4.06h1.95l2.32 4.06h3.72l-3.49-6.14 3.49-4.71zm10.15-.21c-3.42 0-6.13 1.85-6.13 5.63 0 3.8 2.71 5.65 6.13 5.65 3.4 0 6.1-1.85 6.1-5.65 0-3.79-2.71-5.63-6.1-5.63m0 8.27c-1.63 0-2.69-.82-2.69-2.64 0-1.81 1.05-2.62 2.69-2.62 1.61 0 2.67.82 2.67 2.62-.01 1.82-1.06 2.64-2.67 2.64m16.83-8.21V70.1h-3.01v1.88c-3.87.39-6.34 2.26-6.34 5.55 0 3.35 2.47 5.22 6.34 5.61v1.9h3.01v-1.9c3.85-.39 6.64-2.26 6.64-5.61 0-3.29-2.79-5.16-6.64-5.55m-3.01 8.12c-1.83-.24-2.9-.97-2.9-2.58 0-1.57 1.08-2.28 2.9-2.51v5.09zm3.01 0v-5.09c1.81.24 2.88.95 2.88 2.51 0 1.62-1.07 2.35-2.88 2.58m-40.62-4.4c0 1.76-4.51 1.74-4.51 0v-3.56h-3.44v4.41c0 4.62 7.67 3.57 7.95 2.77v3.67h3.44V72.14h-3.44v3.56zm-98.74-3.53h9.16v3h-5.73v7.81h-3.43zm36.19 0l-6.18 12.7a4.356 4.356 0 01-3.92 2.45h-1.98v-3l1.65.03c1.13.02 1.95-1.1 1.95-2.22l-4.84-9.96h3.85l2.8 6.45 2.78-6.45h3.89zm3.12 6.66c0 1.39.79 1.59 2.29 1.59 1.13 0 2.16-.19 2.16-.89 0-.76-.9-.91-1.84-.91h-1.31v-2.35h1.31c.94 0 1.63-.2 1.63-.89 0-.61-.75-.86-1.9-.86-1.48 0-2.12.21-2.12 1.14h-3.21c0-2.4 1.93-3.7 5.33-3.7 3.21 0 5.12 1.22 5.12 2.95 0 1.61-.85 2.47-2.27 2.47 1.45 0 2.7.75 2.7 2.71s-2.38 3.1-5.59 3.1c-3.4 0-5.5-1.33-5.5-4.37h3.2z"/><path d="M130.03 52.93v6.41c0 1.13 1.08 1.94 2.17 1.63l26.93-7.81c1.69-.49 3.52-.11 4.87 1.03l7.68 6.44c1.14.96 2.88.15 2.88-1.35v-6.34c0-.76-.25-1.5-.72-2.1l-9.37-12.18a5.17 5.17 0 00-6.47-1.44l-26.8 13.8c-.72.36-1.17 1.1-1.17 1.91z" fill="#fd0"/><linearGradient id="SVGID_1_" gradientUnits="userSpaceOnUse" x1="163.7" y1="20.016" x2="163.7" y2="215.443"><stop offset="0" stop-color="#53af4b"/><stop offset="1" stop-color="#2a9b52"/></linearGradient><path d="M319.47 134.48V14.63c0-5.61-3.06-8.3-6.84-8.3H14.78c-3.78 0-6.84 2.69-6.84 6.01v119.84l311.53 2.3z" fill="url(#SVGID_1_)"/><linearGradient id="SVGID_2_" gradientUnits="userSpaceOnUse" x1="163.7" y1="121.907" x2="163.7" y2="243.518"><stop offset="0" stop-color="#f9f9fa"/><stop offset="1" stop-color="#9396ab"/></linearGradient><path d="M13.83 155.91h299.74c3.26 0 5.9-2.31 5.9-5.17v-32.13L7.93 101.89v48.85c0 2.86 2.64 5.17 5.9 5.17z" fill="url(#SVGID_2_)"/><path class="st85" d="M7.93 108.87s149.54 1.09 311.53 9.75v-14.48S175.68 99.97 7.93 96.1v12.77z"/><path class="st5" d="M96.91 65.93c-.33-.04-.66-.06-1-.06-1.56 0-3.02.6-4.08 1.81v-1.55H87.6v18.38h4.22V79.5h.01v-1.44c1.03 1.14 2.46 1.71 4.09 1.71.23 0 .45-.01.67-.02 3.47-.26 6.06-2.53 6.06-6.9 0-4.27-2.5-6.54-5.74-6.92m-1.78 10.14c-2.01 0-3.31-1.01-3.31-3.26 0-2.22 1.3-3.23 3.31-3.23 1.99 0 3.28 1.01 3.28 3.23.01 2.25-1.29 3.26-3.28 3.26zm46.43-10.19c-4.21 0-7.54 2.27-7.54 6.93 0 4.68 3.33 6.96 7.54 6.96 4.18 0 7.51-2.27 7.51-6.96 0-4.66-3.33-6.93-7.51-6.93m0 10.18c-2.01 0-3.31-1.01-3.31-3.25 0-2.22 1.3-3.23 3.31-3.23 1.98 0 3.28 1.01 3.28 3.23 0 2.24-1.29 3.25-3.28 3.25m30.95.01v-9.93h-4.24v13.38h7.02l4.43-10.07v10.07h4.24V66.14h-7.09zm-8.42-3.4c.83-.62 1.26-1.55 1.26-2.7 0-2.22-1.58-3.83-4.55-3.83h-9.69v13.38h10.23c2.97 0 4.55-1.61 4.55-3.83-.01-1.36-.65-2.41-1.8-3.02m-8.77-3.32h4.73c.72 0 1.18.29 1.18.96 0 .64-.45.91-1.18.91h-4.73v-1.87zm5.16 6.85h-5.16v-1.93h5.16c.7 0 1.18.29 1.18.94 0 .67-.48.99-1.18.99m52.63-10.06l-3.48 4.69h-1.79v-4.69h-4.24v13.37h4.24v-5h2.41l2.86 5h4.58l-4.3-7.56 4.3-5.81zm12.51-.27c-4.21 0-7.55 2.28-7.55 6.94 0 4.69 3.34 6.97 7.55 6.97 4.18 0 7.52-2.28 7.52-6.97 0-4.66-3.34-6.94-7.52-6.94m0 10.2c-2.01 0-3.31-1.01-3.31-3.26 0-2.22 1.3-3.23 3.31-3.23 1.99 0 3.28 1.01 3.28 3.23 0 2.25-1.3 3.26-3.28 3.26m20.74-10.12v-2.32h-3.71v2.32c-4.77.48-7.81 2.78-7.81 6.83 0 4.13 3.05 6.44 7.81 6.91v2.35h3.71V79.7c4.74-.48 8.18-2.78 8.18-6.91.01-4.06-3.44-6.36-8.18-6.84m-3.71 10.02c-2.25-.29-3.58-1.19-3.58-3.18 0-1.93 1.33-2.81 3.58-3.1v6.28zm3.71 0v-6.28c2.23.29 3.55 1.17 3.55 3.1 0 1.98-1.32 2.88-3.55 3.18m-50.05-5.44c0 2.16-5.56 2.15-5.56 0v-4.39h-4.24v5.43c0 5.7 9.45 4.4 9.8 3.41v4.53h4.24V66.13h-4.24v4.4zM74.62 66.19h11.29v3.69h-7.07v9.63h-4.22zm44.59 0l-7.61 15.66a5.363 5.363 0 01-4.83 3.02h-2.44v-3.69l2.03.03c1.39.02 2.41-1.35 2.41-2.74l-5.97-12.28h4.75l3.46 7.95 3.43-7.95h4.77zm3.85 8.2c0 1.72.98 1.96 2.82 1.96 1.4 0 2.66-.23 2.66-1.1 0-.93-1.11-1.12-2.27-1.12h-1.61v-2.9h1.61c1.16 0 2-.25 2-1.09 0-.76-.92-1.06-2.35-1.06-1.82 0-2.61.26-2.61 1.41h-3.96c0-2.95 2.37-4.56 6.57-4.56 3.96 0 6.3 1.5 6.3 3.64 0 1.99-1.05 3.05-2.8 3.05 1.78 0 3.33.93 3.33 3.34 0 2.42-2.93 3.83-6.89 3.83-4.19 0-6.78-1.64-6.78-5.38h3.98z"/><path d="M137.39 42.47v7.9c0 1.39 1.34 2.4 2.67 2.01l33.19-9.63a6.51 6.51 0 016.01 1.27l9.46 7.93c1.41 1.18 3.55.18 3.55-1.66v-7.81c0-.94-.31-1.85-.88-2.59l-11.55-15a6.388 6.388 0 00-7.98-1.78l-33.03 17.01c-.88.45-1.44 1.36-1.44 2.35z" fill="#ffdc04"/></g><g id="Layer_26"><path class="st84" d="M96.19 206.56c0-23.98 20.05-43.43 44.79-43.43s44.79 19.44 44.79 43.43M84.53 178.75h4.86v46.39h-4.86z"/><path class="st91" d="M176.67 206.67c0 19.32-15.66 34.98-34.98 34.98s-34.98-15.66-34.98-34.98 15.66-35.2 34.98-35.2 34.98 15.88 34.98 35.2z"/><linearGradient id="SVGID_3_" gradientUnits="userSpaceOnUse" x1="141.69" y1="189.143" x2="141.69" y2="209.525"><stop offset="0" stop-color="#62b240"/><stop offset="1" stop-color="#2c9c51"/></linearGradient><circle cx="141.69" cy="205.74" r="19.87" fill="url(#SVGID_3_)"/><path class="st93" d="M141.69 188.79c10.48 0 19.06 8.12 19.81 18.41.03-.48.06-.97.06-1.46 0-10.97-8.89-19.87-19.87-19.87-10.97 0-19.87 8.89-19.87 19.87 0 .49.02.98.06 1.46.75-10.3 9.33-18.41 19.81-18.41z"/></g><g id="Layer_40"><path class="st80" d="M414.36 68.18l8.86 1.68a54.97 54.97 0 00-8.86-1.68zm-.03 0c.01 0 .02.01.03.01l-.03-.01z"/><linearGradient id="SVGID_4_" gradientUnits="userSpaceOnUse" x1="443.872" y1="43.214" x2="443.872" y2="151.907"><stop offset="0" stop-color="#53af4b"/><stop offset="1" stop-color="#2a9b52"/></linearGradient><path d="M336.38 140.99c99.69 2.46 172.5 43.67 172.5 43.67l42.62-2.3-2-34.31c-1.26-16.31-2.56-20.74-26.81-36.66-10.39-6.82-29.54-15.85-41.08-28.01-16.7-17.61-31.61-33.75-34.26-36.43-2.43-2.46-12.9-11.95-29.8-11.95h-73.9c-4.1 0-7.41 3.32-7.41 7.42l.02 10.82" fill="url(#SVGID_4_)"/><linearGradient id="SVGID_5_" gradientUnits="userSpaceOnUse" x1="443.917" y1="128.22" x2="443.917" y2="241.014"><stop offset="0" stop-color="#f9f9fa"/><stop offset="1" stop-color="#9396ab"/></linearGradient><path d="M336.38 182.63c0 13.15 9.62 23.81 21.47 23.81l175.62-.04c8.66 0 9.76-15.52 18.03-24.04l-46.68 2.3-26.72-28.39-16.67-15.28v-.09l-125.1-30.59.05 72.32z" fill="url(#SVGID_5_)"/><linearGradient id="SVGID_6_" gradientUnits="userSpaceOnUse" x1="443.947" y1="261.959" x2="443.947" y2="169.789"><stop offset="0" stop-color="#888ba1"/><stop offset="1" stop-color="#b4b7ce"/></linearGradient><path d="M336.38 181.5c0 16.8 9.73 24.94 21.79 24.94h169.76c24.81 0 23.57 2.16 23.57-24.94H336.38z" fill="url(#SVGID_6_)"/><linearGradient id="SVGID_7_" gradientUnits="userSpaceOnUse" x1="447.411" y1="206.02" x2="447.411" y2="199.391"><stop offset="0" stop-color="#808fa9"/><stop offset="1" stop-color="#b4b7ce" stop-opacity="0"/></linearGradient><path d="M550.36 201.88H344.47s5.06 4.57 11.73 4.57h187.83c2.73 0 5.21-1.79 6.33-4.57z" fill="url(#SVGID_7_)"/><path fill="#f2f2f5" d="M550.05 202.61H345.4l-1.87-1.46h207.14z" opacity=".33"/><path class="st84" d="M548.36 140.99H520.3c-2.33 0-3.92 2.37-3.02 4.53l3.17 7.66c1.56 3.76 5.22 6.2 9.29 6.2h20.64s-.27-12.73-2.02-18.39z"/><linearGradient id="SVGID_8_" gradientUnits="userSpaceOnUse" x1="444.172" y1="109.805" x2="384.825" y2="50.458"><stop offset="0" stop-color="#1e735c"/><stop offset="1" stop-color="#1d2141"/></linearGradient><path d="M361.96 48.71l87.05-.01 57.69 53.2-133.51-.04c-9.91 0-17.95-8.04-17.95-17.96V55.42c.01-3.7 3.02-6.71 6.72-6.71z" fill="url(#SVGID_8_)"/><path class="st84" d="M451.42 112.26a3.34 3.34 0 003.34-3.34v-6.91H444.5v3.33c0 3.82 3.1 6.92 6.92 6.92z"/><path transform="rotate(-180 449.627 99.454)" class="st80" d="M444.5 96.89h10.26v5.12H444.5z"/><path d="M444.5 96.89h10.26v-1.97a3.15 3.15 0 00-3.15-3.15h-3.95a3.15 3.15 0 00-3.15 3.15v1.97z" fill="#7fbb57"/><path class="st84" d="M461.43 105.8c0 4.68-3.8 8.48-8.48 8.48-4.68 0-8.48-3.8-8.48-8.48"/><path class="st85" d="M336.33 104.36s159.91 11.28 185.92 77.14h-17.4s-13.97-47.59-168.52-62.44v-14.7z"/><linearGradient id="SVGID_9_" gradientUnits="userSpaceOnUse" x1="463.273" y1="152.063" x2="463.273" y2="226.398"><stop offset="0" stop-color="#f9f9fa"/><stop offset="1" stop-color="#9396ab"/></linearGradient><path d="M503.2 177.79c-6.63-17.3-21.98-26.74-39.61-26.74-16.04 0-34.02 8.71-40.63 25.11-4.52 11.22-3.27 24.8 3.36 24.8 14.93 0 72.2.3 72.2.3s13.68 0 4.68-23.47z" fill="url(#SVGID_9_)"/><path d="M355.25 108.3v69c0 4.07 2.98 7.38 6.65 7.38h43.22c3.21 0 5.96-2.54 6.54-6.04l27.14-33.19c.64-3.84 2.59-7.26 5.46-9.53v0c3.57-2.84 19.01-7.4 19.01-12.27v-8.87" opacity=".62" fill="none" stroke="#f2f2f5" stroke-width="3" stroke-linecap="round" stroke-miterlimit="10"/><path class="st84" d="M417.42 206.88c0-24.55 20.53-44.46 45.85-44.46s45.85 19.9 45.85 44.46"/><path class="st91" d="M498.83 205.8c0 19.25-15.6 34.85-34.85 34.85s-34.85-15.6-34.85-34.85 15.6-35.07 34.85-35.07 34.85 15.82 34.85 35.07z"/><linearGradient id="SVGID_10_" gradientUnits="userSpaceOnUse" x1="463.977" y1="188.339" x2="463.977" y2="208.649"><stop offset="0" stop-color="#62b240"/><stop offset="1" stop-color="#2c9c51"/></linearGradient><circle cx="463.98" cy="204.87" r="19.8" fill="url(#SVGID_10_)"/><path class="st93" d="M463.98 187.98c10.44 0 18.99 8.09 19.74 18.34.03-.48.06-.96.06-1.45 0-10.93-8.86-19.8-19.8-19.8-10.93 0-19.8 8.86-19.8 19.8 0 .49.02.97.06 1.45.74-10.25 9.29-18.34 19.74-18.34z"/></g></svg>