<svg version="1.1" id="Layer_1" xmlns="http://www.w3.org/2000/svg" x="0" y="0" viewBox="0 0 1183.62 443.16" xml:space="preserve"><style>.st1{fill:#ffe419}.st3{fill:#191f43}.st12{fill:#fec210}.st189{fill:#4cb848}.st194{fill:#2e435a}.st196{fill:#318b34}</style><linearGradient id="SVGID_1_" gradientUnits="userSpaceOnUse" x1="598.727" y1="15.338" x2="598.727" y2="218.606"><stop offset="0" stop-color="#4cb848"/><stop offset="1" stop-color="#299c52"/></linearGradient><path d="M1129.31 224.31l-125.44-63.26-130.31-116.1A263.564 263.564 0 00806.4 1.41l-1.46-.66C800.16.26 795.35 0 790.51 0H84.07c-26.6 0-45.38 8.13-51.56 46.59s-11.39 76.42-14.76 145.38c0 31.91 1060.22 36.82 1060.22 36.82l101.73 51.07c-7.45-18.45-27.49-37.97-50.39-55.55z" fill="url(#SVGID_1_)"/><path class="st1" d="M1024.83 224.8l-61.21-34.81c-7.53-2.48-22.99-5.06-38.56-5.08l-906.92-.37.1 40.74 937.2 2.08 69.39-2.56z"/><path d="M.2 333.77c0 14.06 30.08 51.77 58.32 63.73h1069.87c24.69 0 31.36-39.44 54.94-61.34l-3.62-55.81-2.78-5.89-98.95-45.18-44.93-.23-1014.82-3.77c0 5.5-12.43 39.85-16.61 52.95-.95 2.97-1.46 6.04-1.53 9.15-.25 10.66.11 36.37.11 46.39z" fill="#dadbe2"/><linearGradient id="SVGID_2_" gradientUnits="userSpaceOnUse" x1="-413.292" y1="366.585" x2="783.097" y2="366.585"><stop offset="0" stop-color="#898ca2"/><stop offset="1" stop-color="#b5b9d0"/></linearGradient><path d="M57.08 397.6h1055.49c70.75 0 70.75 5.38 70.75-62.13H0l3.08 27.7 54 34.43z" fill="url(#SVGID_2_)"/><path d="M8.69 202.81l9.45-18.27 33.31-.12-12.49 48.47a16.969 16.969 0 01-16.44 12.74H11.35l-2.66-15.16v-27.66z" fill="#c72127"/><path class="st12" d="M1033.04 229.04l-993.58-.4 1.84-6.96h975.31z"/><path class="st12" d="M1033.04 229.04l-993.31-.24 1.84-6.96h978.05z"/><linearGradient id="SVGID_3_" gradientUnits="userSpaceOnUse" x1="760.238" y1="158.5" x2="641.628" y2="39.89"><stop offset="0" stop-color="#1c725c"/><stop offset="1" stop-color="#191f43"/></linearGradient><path d="M849.78 161.53H614.5c-18.44 0-33.4-13.05-33.4-29.14V56.41c0-15.87 14.8-28.7 32.99-28.64 31.76.11 135.86 1.62 159.68 8.91 32.84 10.05 74.03 44.9 104.83 76.26 6.52 6.64 9.01 15.59 6.7 24.09-3.91 14.37-18.61 24.5-35.52 24.5z" fill="url(#SVGID_3_)"/><path d="M885.11 119.26a625.893 625.893 0 00-16.27-16.44c2.37 2.41 4.7 4.8 6.97 7.18 6.5 6.82 8.98 16 6.68 24.73-3.9 14.74-18.55 25.14-35.41 25.14H612.55c-14.14 0-22.3-4.9-28.28-15.09l-14.67.09c1.5 15.93 16.5 27.51 35.09 27.51h249.82c17.96 0 33.57-11.08 37.72-26.78 2.45-9.3-.19-19.08-7.12-26.34z" fill="#66b465"/><linearGradient id="SVGID_4_" gradientUnits="userSpaceOnUse" x1="608.887" y1="396.504" x2="608.887" y2="379.457"><stop offset="0" stop-color="#8090aa"/><stop offset="1" stop-color="#b5b9d0" stop-opacity="0"/></linearGradient><path d="M1179.12 385.85H38.65l18.43 11.75h1103.96c7.82 0 14.9-4.6 18.08-11.75z" fill="url(#SVGID_4_)"/><path fill="#cacbd6" d="M5.92 265.37h1150.59l20.41 9.09 2.78 5.89 3.63 55.12H0v-51.29z"/><path class="st189" d="M804.99 1.24l22.78 4.32c-7.42-2.06-15.04-3.51-22.78-4.32zm-.08-.01l.02.01c.02 0 .04 0 .06.01l-.08-.02z"/><path class="st189" d="M873.56 45.43l130.31 116.1 125.44 63.26-94.93-58.59L888.83 41.19a139.186 139.186 0 00-61.06-35.63l-22.78-4.32c-.02 0-.04 0-.06-.01l1.46.66a263.445 263.445 0 0167.17 43.54z"/><path class="st189" d="M854.46 40.53c39.95 42.61 128.67 121 128.67 121l128.94 67.74h23.31l-99.72-63.07L890.11 41.19c-17.09-17.08-37.91-30.3-61.06-35.63C801.14-.86 788.06.48 788.04.47c0 .01 48.06 20.48 66.42 40.06z"/><linearGradient id="SVGID_5_" gradientUnits="userSpaceOnUse" x1="995.1" y1="147.768" x2="889.146" y2="26.531"><stop offset="0" stop-color="#1c725c"/><stop offset="1" stop-color="#191f43"/></linearGradient><path d="M858.98 18.5s128.53 129.99 150.24 136.64c2.62.8 21.21 6.58 21.21 6.58l-112.4-95.45-19.24-17.87a240.149 240.149 0 00-39.81-29.9z" fill="url(#SVGID_5_)"/><path fill="#f4f4f6" d="M1178.16 387.73H41.64l-5.93-3.75h1144.21z" opacity=".33"/><linearGradient id="SVGID_6_" gradientUnits="userSpaceOnUse" x1="272.291" y1="234.381" x2="272.291" y2="437.559"><stop offset="0" stop-color="#f9f9fa"/><stop offset="1" stop-color="#9497ac"/></linearGradient><path d="M381.42 304.69c-18.13-47.28-60.07-73.08-108.26-73.08-43.84 0-93 23.8-111.05 68.62-12.36 30.66-8.95 67.8 9.18 67.8 40.82 0 197.35.82 197.35.82s37.39 0 12.78-64.16z" fill="url(#SVGID_6_)"/><path class="st3" d="M177.51 397.18c-4.42-11.93-6.84-24.89-6.84-38.44 0-58.91 45.78-106.66 102.26-106.66s102.26 47.75 102.26 106.66c0 13.55-2.42 26.52-6.84 38.44"/><ellipse class="st194" cx="273.16" cy="359.77" rx="79.86" ry="83.29"/><linearGradient id="SVGID_7_" gradientUnits="userSpaceOnUse" x1="273.16" y1="320.257" x2="273.16" y2="368.793"><stop offset="0" stop-color="#62b340"/><stop offset="1" stop-color="#2b9d51"/></linearGradient><ellipse cx="273.16" cy="359.77" rx="45.36" ry="47.31" fill="url(#SVGID_7_)"/><path class="st196" d="M273.16 319.41c23.93 0 43.51 19.33 45.22 43.83.08-1.15.13-2.3.13-3.47 0-26.13-20.31-47.31-45.36-47.31s-45.36 21.18-45.36 47.31c0 1.17.06 2.32.13 3.47 1.73-24.5 21.31-43.83 45.24-43.83z"/><linearGradient id="SVGID_8_" gradientUnits="userSpaceOnUse" x1="990.184" y1="234.082" x2="990.184" y2="437.26"><stop offset="0" stop-color="#f9f9fa"/><stop offset="1" stop-color="#9497ac"/></linearGradient><path d="M1099.31 304.39c-18.13-47.28-60.07-73.08-108.26-73.08-43.84 0-93 23.8-111.05 68.62-12.36 30.66-8.95 67.8 9.18 67.8 40.82 0 197.35.82 197.35.82s37.39 0 12.78-64.16z" fill="url(#SVGID_8_)"/><path class="st3" d="M890.66 397.6c-4.61-11.93-7.14-24.89-7.14-38.44 0-58.91 47.75-106.66 106.66-106.66s106.66 47.75 106.66 106.66c0 13.55-2.53 26.52-7.14 38.44"/><circle class="st194" cx="990.18" cy="359.87" r="83.29"/><linearGradient id="SVGID_9_" gradientUnits="userSpaceOnUse" x1="990.184" y1="321.889" x2="990.184" y2="370.425"><stop offset="0" stop-color="#62b340"/><stop offset="1" stop-color="#2b9d51"/></linearGradient><circle cx="990.18" cy="361.4" r="47.31" fill="url(#SVGID_9_)"/><path class="st196" d="M990.18 321.04c24.96 0 45.39 19.33 47.17 43.83.08-1.15.14-2.3.14-3.47 0-26.13-21.18-47.31-47.31-47.31-26.13 0-47.31 21.18-47.31 47.31 0 1.17.06 2.32.14 3.47 1.79-24.5 22.22-43.83 47.17-43.83z"/><path d="M1179.92 383.98c5.17-11.46 3.41-48.51 3.41-48.51-7.43 0-13.99 4.87-16.15 11.98l-11.07 36.53h23.81z" fill="#8c8fad"/><linearGradient id="SVGID_10_" gradientUnits="userSpaceOnUse" x1="18.305" y1="15.818" x2="18.305" y2="219.086"><stop offset="0" stop-color="#4cb848"/><stop offset="1" stop-color="#299c52"/></linearGradient><path d="M18.1 192.45c0 .36.14.72.41 1.07l-.02-8.66c-.13 2.5-.26 5.02-.39 7.59z" fill="url(#SVGID_10_)"/><path class="st1" d="M18.49 184.54v.33c.01-.11.01-.22.02-.33h-.02z"/><path class="st3" d="M1177.28 274.48l-.01-.02c-8.11-15.11-23.79-30.7-41.89-45.18h-57.41l.49 1.19.22.53 12.27 29.62c4 9.66 13.43 15.95 23.88 15.95h63.43c.01 0-.61-1.39-.98-2.09zM856.36 173.15h4.88a6.31 6.31 0 006.31-6.31v-17.93h-24.26v11.16c-.01 7.22 5.85 13.08 13.07 13.08z"/><path transform="rotate(-180 855.414 142.854)" class="st189" d="M843.28 136.8h24.26v12.12h-24.26z"/><path d="M843.28 136.8h24.26v-8.97a3.15 3.15 0 00-3.15-3.15h-17.96a3.15 3.15 0 00-3.15 3.15v8.97z" fill="#7cc355"/><path class="st3" d="M883.33 157.86c0 11.08-8.98 20.06-20.06 20.06s-20.06-8.98-20.06-20.06"/><path d="M569.59 172.39v177.43c0 10.48 8.49 18.97 18.97 18.97h252.87c9.15 0 16.99-6.53 18.65-15.53l15.74-85.36c1.82-9.88 7.4-18.66 15.56-24.52v0a38.826 38.826 0 0016.2-31.56v-43.26" opacity=".62" fill="none" stroke="#f4f4f6" stroke-width="3" stroke-linecap="round" stroke-miterlimit="10"/><path d="M237 128.41c-.48-.06-.97-.09-1.47-.09-2.3 0-4.47.89-6.04 2.68v-2.28h-6.25v27.16h6.24v-7.42h.02v-2.13c1.52 1.68 3.63 2.52 6.04 2.52.33 0 .66-.01.99-.03 5.14-.38 8.96-3.74 8.96-10.21-.01-6.3-3.7-9.65-8.49-10.2m-2.62 14.98c-2.97 0-4.89-1.49-4.89-4.82 0-3.29 1.92-4.78 4.89-4.78 2.94 0 4.85 1.49 4.85 4.78 0 3.33-1.91 4.82-4.85 4.82zM303 128.32c-6.22 0-11.14 3.36-11.14 10.24 0 6.92 4.93 10.28 11.14 10.28 6.18 0 11.1-3.36 11.1-10.28 0-6.88-4.92-10.24-11.1-10.24m0 15.05c-2.97 0-4.89-1.49-4.89-4.81 0-3.28 1.92-4.77 4.89-4.77 2.93 0 4.85 1.49 4.85 4.77 0 3.33-1.92 4.81-4.85 4.81m45.75.02v-14.68h-6.27v19.77h10.38l6.54-14.87v14.87h6.26v-19.77h-10.47zm-12.46-5.03c1.23-.91 1.86-2.29 1.86-3.99 0-3.28-2.33-5.65-6.72-5.65h-14.32v19.77h15.11c4.39 0 6.72-2.37 6.72-5.65 0-2.03-.94-3.57-2.65-4.48m-12.95-4.9h7c1.07 0 1.74.43 1.74 1.42 0 .95-.67 1.34-1.74 1.34h-7v-2.76zm7.63 10.12h-7.63v-2.85h7.63c1.03 0 1.74.44 1.74 1.38 0 .99-.71 1.47-1.74 1.47m77.78-14.87l-5.15 6.93h-2.64v-6.93h-6.26v19.77h6.26v-7.4h3.56l4.23 7.4h6.77l-6.36-11.19 6.36-8.58zm18.49-.39c-6.23 0-11.16 3.37-11.16 10.26 0 6.93 4.93 10.3 11.16 10.3 6.19 0 11.12-3.37 11.12-10.3 0-6.89-4.94-10.26-11.12-10.26m0 15.07c-2.97 0-4.9-1.49-4.9-4.82 0-3.29 1.92-4.78 4.9-4.78 2.94 0 4.85 1.49 4.85 4.78 0 3.33-1.92 4.82-4.85 4.82m30.66-14.95v-3.43h-5.48v3.43c-7.05.7-11.55 4.11-11.55 10.1 0 6.11 4.5 9.51 11.55 10.22v3.47h5.48v-3.47c7.01-.7 12.1-4.11 12.1-10.22 0-5.99-5.09-9.4-12.1-10.1m-5.48 14.79c-3.33-.43-5.29-1.76-5.29-4.7 0-2.86 1.96-4.15 5.29-4.58v9.28zm5.48 0v-9.28c3.29.43 5.25 1.72 5.25 4.58 0 2.94-1.96 4.27-5.25 4.7m-73.98-8.03c0 3.2-8.22 3.17-8.22 0v-6.49h-6.26v8.03c0 8.42 13.97 6.51 14.48 5.05v6.69h6.26v-19.77h-6.26v6.49zm-179.86-6.42h16.69v5.46H210.3v14.23h-6.24zm65.91 0l-11.25 23.14a7.934 7.934 0 01-7.13 4.46h-3.6v-5.46l3 .05c2.06.04 3.56-1.99 3.56-4.05l-8.82-18.15h7.02l5.11 11.75 5.07-11.75h7.04zm5.68 12.12c0 2.54 1.44 2.89 4.17 2.89 2.07 0 3.94-.35 3.94-1.62 0-1.38-1.64-1.66-3.35-1.66h-2.38v-4.29h2.38c1.72 0 2.96-.37 2.96-1.61 0-1.12-1.36-1.56-3.47-1.56-2.69 0-3.86.38-3.86 2.08h-5.85c0-4.37 3.51-6.75 9.71-6.75 5.85 0 9.32 2.22 9.32 5.38 0 2.94-1.55 4.5-4.13 4.5 2.63 0 4.92 1.37 4.92 4.93 0 3.58-4.33 5.65-10.18 5.65-6.2 0-10.02-2.42-10.02-7.95h5.84z" fill="#fff"/><path d="M277.43 76.84v17.29c0 3.05 2.92 5.24 5.85 4.39l72.61-21.07c4.57-1.33 9.49-.29 13.14 2.77l20.7 17.35c3.08 2.58 7.77.39 7.77-3.63V76.86c0-2.05-.68-4.04-1.93-5.67l-25.28-32.83a13.955 13.955 0 00-17.45-3.89l-72.27 37.21a5.83 5.83 0 00-3.14 5.16z" fill="#ffdc04"/></svg>