<svg version="1.1" id="Layer_1" xmlns="http://www.w3.org/2000/svg" x="0" y="0" viewBox="0 0 1127.32 451.4" xml:space="preserve"><style>.st3{fill:#191f43}.st194{fill:#2e435a}.st196{fill:#318b34}</style><linearGradient id="SVGID_1_" gradientUnits="userSpaceOnUse" x1="559.778" y1="14.957" x2="559.778" y2="213.167"><stop offset="0" stop-color="#4cb848"/><stop offset="1" stop-color="#299c52"/></linearGradient><path d="M1.76 204.82c225.34 5.06 1045.95 68.08 1045.95 68.08l70.09-5.79c0-5.7-2.86-14.8-4.99-21.79-.97-3.18-3.86-5.99-3.86-5.99-21.47-19.89-42.09-42.3-71.81-50.93l-101.5-19.22a202.94 202.94 0 01-68.41-26.44C816.85 111.83 714.01 51.48 629.8 19.88 602.51 9.64 511.54 0 106.09 0 63.02 0 34.6 3.06 19.39 67.63 2.25 140.43 1.76 204.82 1.76 204.82z" fill="url(#SVGID_1_)"/><path d="M4.57 319.07c4.5 29.49 18.54 51.7 45.34 51.7l1024.34-.07c19.57 0 43.55-12.5 43.55-56.68s-7.12-40.77-7.12-40.77-103.13-9.71-108.26-13.62c-5.3-5.03-61.45-16.85-61.45-16.85L718.2 206.35 1.47 194.78s-1.33 95.28 3.1 124.29z" fill="#dadbe2"/><linearGradient id="SVGID_2_" gradientUnits="userSpaceOnUse" x1="559.744" y1="497.089" x2="559.744" y2="287.365"><stop offset="0" stop-color="#898ca2"/><stop offset="1" stop-color="#b5b9d0"/></linearGradient><path d="M6.97 314.02c.19 29.81 16.4 56.75 43.66 56.75h1011.1c56.08 0 53.17 4.79 53.17-53.74L4.57 316.88l2.4-2.86z" fill="url(#SVGID_2_)"/><linearGradient id="SVGID_3_" gradientUnits="userSpaceOnUse" x1="567.981" y1="369.977" x2="567.981" y2="356.355"><stop offset="0" stop-color="#8090aa"/><stop offset="1" stop-color="#b5b9d0" stop-opacity="0"/></linearGradient><path d="M1114.37 361.47H21.6s11.44 9.39 26.51 9.39h1047.65c6.19-.01 15.35-2.4 18.61-9.39z" fill="url(#SVGID_3_)"/><path fill="#f4f4f6" d="M1113.6 362.97H23.62l-4.23-3H1115z"/><path class="st3" d="M813.12 184.18h7.1a6.31 6.31 0 006.31-6.31v-17.75h-26.49v10.98c0 7.23 5.86 13.08 13.08 13.08z"/><path transform="rotate(-180 813.287 154.113)" fill="#4cb848" d="M800.04 148.1h26.49v12.03h-26.49z"/><path d="M800.04 148.1h26.49v-8.87a3.15 3.15 0 00-3.15-3.15H803.2a3.15 3.15 0 00-3.15 3.15v8.87z" fill="#7cc355"/><path class="st3" d="M843.77 169c0 10.99-9.8 19.91-21.9 19.91s-21.9-8.91-21.9-19.91"/><path class="st194" d="M126.53 337.82l-36.08-35.09c-.91-.9-2.2-1.41-3.54-1.41H6.54c-2.78 0-4.98 2.12-4.82 4.64.87 13.6 4.41 52.83 16.32 59.8 7.99 4.68 14.06 4.07 28.1 4.99.11.01.23.01.34.01h76.79c1.11 0 1.12-1.98 1.1-4.42-.06-5.46.89-14.97 3.32-24.61.35-1.39-.09-2.86-1.16-3.91z"/><linearGradient id="SVGID_4_" gradientUnits="userSpaceOnUse" x1="929.824" y1="239.387" x2="929.824" y2="419.22"><stop offset="0" stop-color="#f9f9fa"/><stop offset="1" stop-color="#9497ac"/></linearGradient><path d="M1026.42 301.62c-16.05-41.85-53.17-64.68-95.82-64.68-38.81 0-82.31 21.07-98.29 60.74-10.94 27.14-7.92 60.01 8.13 60.01 36.13 0 174.68.73 174.68.73s33.07-.02 11.3-56.8z" fill="url(#SVGID_4_)"/><path class="st3" d="M747.99 350.02H393.15c-9.14 0-16.55-7.41-16.55-16.55 0-.69.56-1.25 1.25-1.25h385.43c.69 0 1.25.56 1.25 1.25.01 9.14-7.4 16.55-16.54 16.55z"/><path class="st194" d="M929.82 263.2h185.86c6.43 0 11.64 4.74 11.64 10.58v69.25c0 15.41-13.74 27.9-30.69 27.9h-65.39l-7.86-54.64-93.56-53.09z"/><path class="st3" d="M821.85 370.93c0-59.63 48.34-107.98 107.98-107.98 59.63 0 107.98 48.34 107.98 107.98h44.27"/><circle class="st194" cx="929.82" cy="367.08" r="84.32"/><linearGradient id="SVGID_5_" gradientUnits="userSpaceOnUse" x1="929.824" y1="324.829" x2="929.824" y2="373.965"><stop offset="0" stop-color="#62b340"/><stop offset="1" stop-color="#2b9d51"/></linearGradient><circle cx="929.82" cy="364.83" r="47.89" fill="url(#SVGID_5_)"/><path class="st196" d="M929.82 323.97c25.27 0 45.95 19.57 47.75 44.37.08-1.16.14-2.33.14-3.52 0-26.45-21.44-47.89-47.89-47.89s-47.89 21.44-47.89 47.89c0 1.18.06 2.35.14 3.52 1.81-24.8 22.49-44.37 47.75-44.37z"/><path class="st3" d="M1108.03 237.38c-7.47-17.84-9.39-29.08-28.28-38.01-11.54-5.46-42.61-10.96-42.61-10.96l3.59 8.67 11.38 27.46a23.96 23.96 0 0022.15 14.79h-10.09 44.79l-.93-1.95z"/><linearGradient id="SVGID_6_" gradientUnits="userSpaceOnUse" x1="219.714" y1="239.328" x2="219.714" y2="419.161"><stop offset="0" stop-color="#f9f9fa"/><stop offset="1" stop-color="#9497ac"/></linearGradient><path d="M316.31 301.56c-16.05-41.85-53.17-64.68-95.82-64.68-38.81 0-82.31 21.07-98.3 60.74-10.94 27.14-7.92 60.01 8.13 60.01 36.13 0 174.68.73 174.68.73s33.08-.02 11.31-56.8z" fill="url(#SVGID_6_)"/><path class="st3" d="M111.74 370.87c0-59.63 48.34-107.98 107.98-107.98S327.7 311.23 327.7 370.87"/><circle class="st194" cx="219.71" cy="367.02" r="84.32"/><linearGradient id="SVGID_7_" gradientUnits="userSpaceOnUse" x1="219.714" y1="324.77" x2="219.714" y2="373.906"><stop offset="0" stop-color="#62b340"/><stop offset="1" stop-color="#2b9d51"/></linearGradient><circle cx="219.71" cy="364.77" r="47.89" fill="url(#SVGID_7_)"/><path class="st196" d="M219.71 323.91c25.27 0 45.95 19.57 47.75 44.37.08-1.16.14-2.33.14-3.52 0-26.45-21.44-47.89-47.89-47.89s-47.89 21.44-47.89 47.89c0 1.18.06 2.35.14 3.52 1.81-24.8 22.49-44.37 47.75-44.37z"/><linearGradient id="SVGID_8_" gradientUnits="userSpaceOnUse" x1="827.863" y1="259.912" x2="636.374" y2="106.721"><stop offset="0" stop-color="#1e735c"/><stop offset="1" stop-color="#1d2141"/></linearGradient><path d="M586.73 60.5l5.5 97.79c.84 7.56 7.16 13.33 14.76 13.47l162.8 2.97c10.36.2 24.13.03 18.26-19.72-6.55-20.67-26.81-42.96-58.72-65.94-27.52-19.81-63.51-41.51-126.55-45.36-9.42-.57-17.09 7.42-16.05 16.79z" fill="url(#SVGID_8_)"/><path d="M4.44 168.03s798.8-29.02 1022.24 94.87h-91.32s-325.9-84.07-932.23-53.26l1.31-41.61z" fill="#ffe419"/><path d="M47.16 301.32V164.65c0-21.14-15.48-38.15-38.74-38.15l-3.5 7c-8.72 100.57-3.2 172.46-3.2 172.46l45.44-4.64z" fill="#c72127"/><path d="M580.37 159.37v141.77c0 8.37 6.73 15.16 15.03 15.16h158.94c7.25 0 13.47-5.22 14.79-12.41l23.85-68.21a31.05 31.05 0 0112.33-19.59v0c8.06-5.83 42.96-15.21 42.96-25.21" fill="none" stroke="#f4f4f6" stroke-width="3" stroke-linecap="round" stroke-miterlimit="10"/><path class="st3" d="M633 230.19h-28.12c-6.39 0-11.57-5.18-11.57-11.57h28.12c6.39-.01 11.57 5.18 11.57 11.57z"/><path d="M209.88 117.23c-.48-.06-.97-.09-1.47-.09-2.3 0-4.47.89-6.04 2.68v-2.28h-6.25v27.16h6.24v-7.42h.02v-2.13c1.52 1.68 3.63 2.52 6.04 2.52.33 0 .66-.01.99-.03 5.14-.38 8.96-3.74 8.96-10.21-.01-6.3-3.7-9.64-8.49-10.2m-2.62 14.98c-2.97 0-4.89-1.49-4.89-4.82 0-3.29 1.92-4.78 4.89-4.78 2.94 0 4.85 1.49 4.85 4.78 0 3.33-1.92 4.82-4.85 4.82zm68.62-15.07c-6.22 0-11.14 3.36-11.14 10.24 0 6.92 4.93 10.28 11.14 10.28 6.18 0 11.1-3.36 11.1-10.28 0-6.88-4.92-10.24-11.1-10.24m0 15.05c-2.97 0-4.89-1.49-4.89-4.81 0-3.28 1.92-4.77 4.89-4.77 2.93 0 4.85 1.49 4.85 4.77 0 3.33-1.92 4.81-4.85 4.81m45.74.02v-14.68h-6.26v19.77h10.38l6.53-14.87v14.87h6.27v-19.77h-10.47zm-12.45-5.03c1.23-.91 1.86-2.29 1.86-3.99 0-3.28-2.33-5.65-6.72-5.65h-14.32v19.77h15.11c4.39 0 6.72-2.37 6.72-5.65 0-2.03-.95-3.57-2.65-4.48m-12.95-4.9h7c1.07 0 1.74.43 1.74 1.42 0 .95-.67 1.34-1.74 1.34h-7v-2.76zm7.63 10.12h-7.63v-2.85h7.63c1.03 0 1.74.44 1.74 1.38 0 1-.71 1.47-1.74 1.47m77.78-14.87l-5.15 6.93h-2.64v-6.93h-6.26v19.77h6.26v-7.4h3.56l4.22 7.4h6.78l-6.36-11.18 6.36-8.59zm18.49-.39c-6.23 0-11.16 3.37-11.16 10.26 0 6.93 4.93 10.3 11.16 10.3 6.19 0 11.12-3.37 11.12-10.3-.01-6.89-4.94-10.26-11.12-10.26m0 15.07c-2.97 0-4.9-1.49-4.9-4.82 0-3.29 1.92-4.78 4.9-4.78 2.94 0 4.85 1.49 4.85 4.78 0 3.33-1.92 4.82-4.85 4.82m30.66-14.95v-3.43h-5.48v3.43c-7.05.7-11.55 4.11-11.55 10.1 0 6.11 4.5 9.51 11.55 10.22v3.47h5.48v-3.47c7.01-.7 12.1-4.11 12.1-10.22-.01-5.99-5.09-9.4-12.1-10.1m-5.48 14.8c-3.33-.43-5.29-1.76-5.29-4.7 0-2.86 1.96-4.15 5.29-4.58v9.28zm5.48 0v-9.28c3.29.43 5.25 1.72 5.25 4.58-.01 2.93-1.96 4.26-5.25 4.7m-73.99-8.04c0 3.2-8.22 3.17-8.22 0v-6.49h-6.26v8.03c0 8.42 13.97 6.51 14.48 5.05v6.69h6.26v-19.77h-6.26v6.49zm-179.85-6.42h16.68v5.46h-10.45v14.23h-6.23zm65.9 0l-11.25 23.14a7.934 7.934 0 01-7.13 4.46h-3.6v-5.46l3 .05c2.06.04 3.56-1.99 3.56-4.05l-8.82-18.15h7.02l5.11 11.75 5.07-11.75h7.04zm5.69 12.13c0 2.54 1.44 2.89 4.17 2.89 2.07 0 3.94-.35 3.94-1.62 0-1.38-1.64-1.66-3.35-1.66h-2.38v-4.29h2.38c1.72 0 2.96-.37 2.96-1.61 0-1.12-1.36-1.56-3.47-1.56-2.69 0-3.86.38-3.86 2.08h-5.85c0-4.37 3.51-6.75 9.71-6.75 5.85 0 9.32 2.22 9.32 5.38 0 2.94-1.55 4.5-4.13 4.5 2.63 0 4.92 1.37 4.92 4.93 0 3.58-4.33 5.65-10.18 5.65-6.2 0-10.02-2.42-10.02-7.95h5.84z" fill="#fff"/><path d="M250.31 65.66v17.29c0 3.05 2.92 5.24 5.85 4.39l72.61-21.07c4.57-1.33 9.49-.29 13.14 2.77l20.7 17.35c3.08 2.58 7.77.39 7.77-3.63V65.68c0-2.05-.68-4.04-1.93-5.67l-25.28-32.83a13.955 13.955 0 00-17.45-3.89L253.46 60.5c-1.93 1-3.15 2.99-3.15 5.16z" fill="#ffdc04"/></svg>